<?xml version="1.0" encoding="utf-8" ?>
<svg xmlns="http://www.w3.org/2000/svg" xmlns:cc="http://creativecommons.org/ns" xmlns:dc="http://purl.org/dc/elements/1.1/" xmlns:ev="http://www.w3.org/2001/xml-events" xmlns:inkscape="http://www.inkscape.org/namespaces/inkscape" xmlns:rdf="http://www.w3.org/1999/02/22-rdf-syntax-ns" xmlns:sodipodi="http://sodipodi.sourceforge.net/DTD/sodipodi-0.dtd" xmlns:xlink="http://www.w3.org/1999/xlink" baseProfile="tiny" height="9.99987567cm" version="1.2" viewBox="0 0 377.9433575349813 377.9480566910331" width="9.99975133cm">
  <metadata>
    <rdf:RDF>
      <cc:Work>
        <dc:format>image/svg+xml</dc:format>
        <dc:source>vpype penset earth circle -l 1 0 0 5.0cm circle -l 2 0 0 4.17cm circle -l 3 0 0 3.33cm circle -l 4 0 0 2.5cm circle -l 5 0 0 1.67cm circle -l 6 0 0 0.83cm colorize write docs/images/earth.svg
</dc:source>
        <dc:date>2026-04-05T15:21:22.267374</dc:date>
      </cc:Work>
    </rdf:RDF>
  </metadata>
  <defs/>
  <g fill="none" id="layer1" inkscape:groupmode="layer" inkscape:label="1" stroke="#3c2814" style="display:inline">
    <polygon points="377.9434,188.974 377.9058,185.2048 377.793,181.4371 377.6051,177.6725 377.3422,173.9123 377.0043,170.1581 376.5916,166.4113 376.1043,162.6736 375.5425,158.9463 374.9064,155.231 374.1964,151.5291 373.4127,147.8421 372.5556,144.1714 371.6255,140.5186 370.6227,136.8851 369.5477,133.2723 368.4008,129.6816 367.1825,126.1145 365.8933,122.5725 364.5337,119.0568 363.1042,115.569 361.6055,112.1104 360.0381,108.6824 358.4026,105.2863 356.6997,101.9235 354.9301,98.5953 353.0945,95.3031 351.1935,92.0482 349.228,88.8318 347.1988,85.6553 345.1066,82.5198 342.9523,79.4268 340.7367,76.3773 338.4607,73.3726 336.1253,70.4139 333.7313,67.5024 331.2797,64.6392 328.7715,61.8254 326.2077,59.0623 323.5892,56.3508 320.9172,53.6921 318.1928,51.0872 315.4169,48.5372 312.5906,46.0431 309.7153,43.6058 306.7918,41.2263 303.8215,38.9057 300.8055,36.6447 297.745,34.4444 294.6412,32.3055 291.4954,30.229 288.3088,28.2156 285.0827,26.2662 281.8183,24.3815 278.517,22.5623 275.18,20.8093 271.8088,19.1232 268.4046,17.5047 264.9688,15.9544 261.5027,14.4729 258.0078,13.0609 254.4854,11.7188 250.937,10.4473 247.3639,9.2468 243.7676,8.1178 240.1494,7.0608 236.5109,6.0761 232.8535,5.1642 229.1787,4.3255 225.4878,3.5602 221.7824,2.8686 218.0639,2.2511 214.3339,1.7079 210.5938,1.2392 206.845,0.8452 203.0892,0.5261 199.3277,0.2819 195.5622,0.1128 191.794,0.0188 188.0246,0.0 184.2557,0.0564 180.4886,0.1879 176.7249,0.3946 172.966,0.6763 169.2136,1.0329 165.469,1.4643 161.7337,1.9702 158.0093,2.5506 154.2972,3.2052 150.5988,3.9336 146.9158,4.7357 143.2495,5.6111 139.6013,6.5594 135.9728,7.5803 132.3654,8.6734 128.7805,9.8382 125.2196,11.0742 121.684,12.3811 118.1752,13.7582 114.6945,15.205 111.2434,16.721 107.8233,18.3054 104.4354,19.9578 101.0811,21.6775 97.7618,23.4636 94.4788,25.3157 91.2334,27.2328 88.0268,29.2143 84.8605,31.2594 81.7355,33.3672 78.6532,35.5369 75.6148,37.7677 72.6215,40.0586 69.6745,42.4088 66.7749,44.8173 63.924,47.2831 61.1228,49.8053 58.3725,52.3829 55.6741,55.0148 53.0287,57.7 50.4375,60.4374 47.9013,63.226 45.4213,66.0646 42.9984,68.9522 40.6336,71.8874 38.3278,74.8693 36.0819,77.8965 33.8968,80.9679 31.7735,84.0823 29.7126,87.2385 27.7152,90.4351 25.7818,93.6709 23.9135,96.9446 22.1107,100.255 20.3744,103.6006 18.7051,106.9803 17.1036,110.3925 15.5705,113.836 14.1063,117.3094 12.7117,120.8113 11.3873,124.3403 10.1335,127.895 8.9508,131.4741 7.8398,135.076 6.8008,138.6993 5.8343,142.3427 4.9406,146.0046 4.1202,149.6836 3.3733,153.3783 2.7003,157.0871 2.1013,160.8086 1.5767,164.5413 1.1267,168.2837 0.7514,172.0343 0.4509,175.7917 0.2255,179.5543 0.0752,183.3207 0.0,187.0893 0.0,190.8587 0.0752,194.6273 0.2255,198.3937 0.4509,202.1564 0.7514,205.9137 1.1267,209.6644 1.5767,213.4068 2.1013,217.1395 2.7003,220.861 3.3733,224.5698 4.1202,228.2644 4.9406,231.9434 5.8343,235.6053 6.8008,239.2487 7.8398,242.8721 8.9508,246.474 10.1335,250.053 11.3873,253.6078 12.7117,257.1368 14.1063,260.6387 15.5705,264.1121 17.1036,267.5556 18.7051,270.9678 20.3744,274.3474 22.1107,277.6931 23.9135,281.0034 25.7818,284.2771 27.7152,287.513 29.7126,290.7096 31.7735,293.8657 33.8968,296.9801 36.0819,300.0516 38.3278,303.0788 40.6336,306.0606 42.9984,308.9959 45.4213,311.8834 47.9013,314.722 50.4375,317.5106 53.0287,320.2481 55.6741,322.9333 58.3725,325.5652 61.1228,328.1428 63.924,330.665 66.7749,333.1308 69.6745,335.5393 72.6215,337.8894 75.6148,340.1804 78.6532,342.4111 81.7355,344.5808 84.8605,346.6887 88.0268,348.7337 91.2334,350.7152 94.4788,352.6324 97.7618,354.4844 101.0811,356.2706 104.4354,357.9902 107.8233,359.6426 111.2434,361.2271 114.6945,362.7431 118.1752,364.1899 121.684,365.567 125.2196,366.8738 128.7805,368.1099 132.3654,369.2747 135.9728,370.3678 139.6013,371.3887 143.2495,372.337 146.9158,373.2124 150.5988,374.0144 154.2972,374.7429 158.0093,375.3974 161.7337,375.9778 165.469,376.4838 169.2136,376.9152 172.966,377.2718 176.7249,377.5535 180.4886,377.7601 184.2557,377.8917 188.0246,377.9481 191.794,377.9293 195.5622,377.8353 199.3277,377.6662 203.0892,377.422 206.845,377.1028 210.5938,376.7088 214.3339,376.2401 218.0639,375.6969 221.7824,375.0794 225.4878,374.3879 229.1787,373.6226 232.8535,372.7838 236.5109,371.8719 240.1494,370.8873 243.7676,369.8302 247.3639,368.7012 250.937,367.5007 254.4854,366.2292 258.0078,364.8872 261.5027,363.4751 264.9688,361.9937 268.4046,360.4434 271.8088,358.8249 275.18,357.1388 278.517,355.3858 281.8183,353.5666 285.0827,351.6819 288.3088,349.7325 291.4954,347.7191 294.6412,345.6425 297.745,343.5037 300.8055,341.3033 303.8215,339.0424 306.7918,336.7217 309.7153,334.3423 312.5906,331.905 315.4169,329.4108 318.1928,326.8608 320.9172,324.256 323.5892,321.5973 326.2077,318.8858 328.7715,316.1226 331.2797,313.3089 333.7313,310.4457 336.1253,307.5342 338.4607,304.5755 340.7367,301.5708 342.9523,298.5213 345.1066,295.4282 347.1988,292.2928 349.228,289.1163 351.1935,285.8999 353.0945,282.6449 354.9301,279.3527 356.6997,276.0246 358.4026,272.6618 360.0381,269.2657 361.6055,265.8376 363.1042,262.379 364.5337,258.8912 365.8933,255.3756 367.1825,251.8335 368.4008,248.2664 369.5477,244.6758 370.6227,241.063 371.6255,237.4294 372.5556,233.7766 373.4127,230.106 374.1964,226.419 374.9064,222.7171 375.5425,219.0017 376.1043,215.2745 376.5916,211.5367 377.0043,207.79 377.3422,204.0358 377.6051,200.2756 377.793,196.5109 377.9058,192.7432"/>
  </g>
  <g fill="none" id="layer2" inkscape:groupmode="layer" inkscape:label="2" stroke="#785028" style="display:inline">
    <polygon points="346.5733,188.974 346.5283,185.2091 346.3934,181.4463 346.1687,177.6878 345.8542,173.9358 345.4502,170.1924 344.9569,166.4596 344.3745,162.7397 343.7035,159.0348 342.9441,155.347 342.0969,151.6783 341.1623,148.031 340.1408,144.407 339.033,140.8085 337.8396,137.2374 336.5613,133.6959 335.1986,130.1859 333.7526,126.7095 332.2239,123.2686 330.6134,119.8652 328.9221,116.5012 327.1509,113.1786 325.3009,109.8993 323.373,106.6651 321.3685,103.4779 319.2883,100.3394 317.1338,97.2516 314.9062,94.2161 312.6066,91.2347 310.2365,88.309 307.7972,85.4409 305.2901,82.6318 302.7166,79.8834 300.0782,77.1972 297.3763,74.5749 294.6126,72.0178 291.7886,69.5275 288.9059,67.1054 285.9661,64.7528 282.971,62.4711 279.9223,60.2616 276.8216,58.1256 273.6708,56.0643 270.4717,54.0788 267.226,52.1703 263.9357,50.3399 260.6026,48.5885 257.2286,46.9174 253.8157,45.3273 250.3657,43.8191 246.8807,42.3939 243.3626,41.0522 239.8135,39.795 236.2354,38.623 232.6303,37.5367 229.0003,36.5369 225.3474,35.6241 221.6738,34.7988 217.9815,34.0615 214.2726,33.4126 210.5493,32.8524 206.8137,32.3814 203.0679,31.9998 199.3141,31.7077 195.5543,31.5055 191.7908,31.393 188.0257,31.3705 184.2611,31.438 180.4992,31.5954 176.7421,31.8426 172.992,32.1794 169.251,32.6058 165.5213,33.1214 161.805,33.7259 158.1041,34.4191 154.4209,35.2004 150.7574,36.0696 147.1157,37.026 143.4979,38.0691 139.906,39.1983 136.3421,40.413 132.8083,41.7125 129.3065,43.0961 125.8388,44.5629 122.4071,46.1121 119.0134,47.7429 115.6596,49.4542 112.3476,51.2452 109.0794,53.1148 105.8568,55.062 102.6816,57.0855 99.5556,59.1844 96.4807,61.3573 93.4586,63.603 90.4909,65.9203 87.5795,68.3079 84.7259,70.7642 81.9319,73.2881 79.1989,75.878 76.5286,78.5324 73.9224,81.2499 71.3819,84.0288 68.9085,86.8677 66.5036,89.7648 64.1686,92.7185 61.9049,95.7272 59.7137,98.7891 57.5962,101.9024 55.5537,105.0655 53.5873,108.2764 51.6983,111.5334 49.8875,114.8346 48.1562,118.1781 46.5052,121.5621 44.9355,124.9845 43.448,128.4434 42.0435,131.9368 40.7229,135.4628 39.487,139.0194 38.3363,142.6044 37.2716,146.216 36.2935,149.8519 35.4025,153.5101 34.5991,157.1886 33.8839,160.8853 33.2571,164.5979 32.7193,168.3245 32.2706,172.0629 31.9113,175.8109 31.6417,179.5664 31.4619,183.3273 31.3719,187.0914 31.3719,190.8566 31.4619,194.6207 31.6417,198.3816 31.9113,202.1372 32.2706,205.8852 32.7193,209.6235 33.2571,213.3501 33.8839,217.0628 34.5991,220.7594 35.4025,224.4379 36.2935,228.0962 37.2716,231.7321 38.3363,235.3436 39.487,238.9287 40.7229,242.4852 42.0435,246.0112 43.448,249.5047 44.9355,252.9636 46.5052,256.386 48.1562,259.7699 49.8875,263.1134 51.6983,266.4146 53.5873,269.6716 55.5537,272.8826 57.5962,276.0456 59.7137,279.159 61.9049,282.2209 64.1686,285.2295 66.5036,288.1833 68.9085,291.0804 71.3819,293.9192 73.9224,296.6982 76.5286,299.4156 79.1989,302.0701 81.9319,304.6599 84.7259,307.1838 87.5795,309.6402 90.4909,312.0277 93.4586,314.345 96.4807,316.5908 99.5556,318.7637 102.6816,320.8625 105.8568,322.8861 109.0794,324.8332 112.3476,326.7028 115.6596,328.4938 119.0134,330.2052 122.4071,331.8359 125.8388,333.3852 129.3065,334.852 132.8083,336.2355 136.3421,337.535 139.906,338.7497 143.4979,339.879 147.1157,340.9221 150.7574,341.8785 154.4209,342.7476 158.1041,343.529 161.805,344.2221 165.5213,344.8267 169.251,345.3423 172.992,345.7686 176.7421,346.1055 180.4992,346.3527 184.2611,346.5101 188.0257,346.5775 191.7908,346.555 195.5543,346.4426 199.3141,346.2403 203.0679,345.9483 206.8137,345.5666 210.5493,345.0956 214.2726,344.5355 217.9815,343.8866 221.6738,343.1493 225.3474,342.324 229.0003,341.4112 232.6303,340.4113 236.2354,339.3251 239.8135,338.153 243.3626,336.8958 246.8807,335.5542 250.3657,334.1289 253.8157,332.6208 257.2286,331.0307 260.6026,329.3595 263.9357,327.6082 267.226,325.7778 270.4717,323.8693 273.6708,321.8838 276.8216,319.8224 279.9223,317.6864 282.971,315.4769 285.9661,313.1952 288.9059,310.8427 291.7886,308.4205 294.6126,305.9302 297.3763,303.3732 300.0782,300.7508 302.7166,298.0647 305.2901,295.3163 307.7972,292.5072 310.2365,289.639 312.6066,286.7134 314.9062,283.732 317.1338,280.6965 319.2883,277.6086 321.3685,274.4702 323.373,271.283 325.3009,268.0488 327.1509,264.7694 328.9221,261.4468 330.6134,258.0829 332.2239,254.6795 333.7526,251.2386 335.1986,247.7622 336.5613,244.2522 337.8396,240.7107 339.033,237.1396 340.1408,233.541 341.1623,229.9171 342.0969,226.2697 342.9441,222.6011 343.7035,218.9132 344.3745,215.2083 344.9569,211.4884 345.4502,207.7557 345.8542,204.0122 346.1687,200.2602 346.3934,196.5017 346.5283,192.739"/>
  </g>
  <g fill="none" id="layer3" inkscape:groupmode="layer" inkscape:label="3" stroke="#a0783c" style="display:inline">
    <polygon points="314.8252,188.974 314.7689,185.2089 314.6,181.4472 314.3186,177.6922 313.925,173.9473 313.4195,170.2158 312.8027,166.5012 312.0749,162.8066 311.237,159.1355 310.2897,155.4911 309.2337,151.8767 308.0701,148.2954 306.7999,144.7506 305.4242,141.2454 303.9442,137.7829 302.3614,134.3662 300.677,130.9984 298.8926,127.6825 297.0099,124.4214 295.0304,121.2182 292.956,118.0755 290.7885,114.9964 288.5298,111.9835 286.182,109.0395 283.7472,106.167 281.2276,103.3687 278.6254,100.647 275.9429,98.0043 273.1826,95.4431 270.3469,92.9656 267.4383,90.5741 264.4595,88.2706 261.4131,86.0573 258.3019,83.9361 255.1286,81.9089 251.8961,79.9776 248.6073,78.1438 245.265,76.4092 241.8724,74.7754 238.4324,73.2439 234.9482,71.8159 231.4227,70.4928 227.8593,69.2757 224.2611,68.1658 220.6313,67.164 216.9731,66.2713 213.2898,65.4884 209.5848,64.816 205.8613,64.2548 202.1228,63.8052 198.3724,63.4677 194.6136,63.2425 190.8497,63.1298 187.0842,63.1298 183.3204,63.2425 179.5616,63.4677 175.8112,63.8052 172.0726,64.2548 168.3491,64.816 164.6441,65.4884 160.9609,66.2713 157.3027,67.164 153.6729,68.1658 150.0746,69.2757 146.5112,70.4928 142.9858,71.8159 139.5015,73.2439 136.0615,74.7754 132.6689,76.4092 129.3267,78.1438 126.0378,79.9776 122.8053,81.9089 119.632,83.9361 116.5208,86.0573 113.4744,88.2706 110.4956,90.5741 107.5871,92.9656 104.7514,95.4431 101.991,98.0043 99.3086,100.647 96.7063,103.3687 94.1867,106.167 91.7519,109.0395 89.4041,111.9835 87.1455,114.9964 84.978,118.0755 82.9036,121.2182 80.9241,124.4214 79.0413,127.6825 77.257,130.9984 75.5726,134.3662 73.9897,137.7829 72.5098,141.2454 71.1341,144.7506 69.8639,148.2954 68.7002,151.8767 67.6443,155.4911 66.6969,159.1355 65.859,162.8066 65.1313,166.5012 64.5144,170.2158 64.009,173.9473 63.6154,177.6922 63.334,181.4472 63.165,185.2089 63.1087,188.974 63.165,192.7391 63.334,196.5009 63.6154,200.2559 64.009,204.0008 64.5144,207.7322 65.1313,211.4469 65.859,215.1414 66.6969,218.8126 67.6443,222.457 68.7002,226.0714 69.8639,229.6526 71.1341,233.1975 72.5098,236.7027 73.9897,240.1652 75.5726,243.5819 77.257,246.9497 79.0413,250.2656 80.9241,253.5266 82.9036,256.7299 84.978,259.8725 87.1455,262.9517 89.4041,265.9646 91.7519,268.9086 94.1867,271.7811 96.7063,274.5794 99.3086,277.3011 101.991,279.9437 104.7514,282.5049 107.5871,284.9824 110.4956,287.374 113.4744,289.6775 116.5208,291.8908 119.632,294.012 122.8053,296.0391 126.0378,297.9705 129.3267,299.8043 132.6689,301.5388 136.0615,303.1726 139.5015,304.7042 142.9858,306.1322 146.5112,307.4553 150.0746,308.6724 153.6729,309.7823 157.3027,310.784 160.9609,311.6768 164.6441,312.4597 168.3491,313.132 172.0726,313.6932 175.8112,314.1428 179.5616,314.4804 183.3204,314.7056 187.0842,314.8182 190.8497,314.8182 194.6136,314.7056 198.3724,314.4804 202.1228,314.1428 205.8613,313.6932 209.5848,313.132 213.2898,312.4597 216.9731,311.6768 220.6313,310.784 224.2611,309.7823 227.8593,308.6724 231.4227,307.4553 234.9482,306.1322 238.4324,304.7042 241.8724,303.1726 245.265,301.5388 248.6073,299.8043 251.8961,297.9705 255.1286,296.0391 258.3019,294.012 261.4131,291.8908 264.4595,289.6775 267.4383,287.374 270.3469,284.9824 273.1826,282.5049 275.9429,279.9437 278.6254,277.3011 281.2276,274.5794 283.7472,271.7811 286.182,268.9086 288.5298,265.9646 290.7885,262.9517 292.956,259.8725 295.0304,256.7299 297.0099,253.5266 298.8926,250.2656 300.677,246.9497 302.3614,243.5819 303.9442,240.1652 305.4242,236.7027 306.7999,233.1975 308.0701,229.6526 309.2337,226.0714 310.2897,222.457 311.237,218.8126 312.0749,215.1414 312.8027,211.4469 313.4195,207.7322 313.925,204.0008 314.3186,200.2559 314.6,196.5009 314.7689,192.7391"/>
  </g>
  <g fill="none" id="layer4" inkscape:groupmode="layer" inkscape:label="4" stroke="#b4a064" style="display:inline">
    <polygon points="283.4552,188.974 283.3805,185.2175 283.1565,181.4669 282.7836,177.7282 282.2623,174.0073 281.5935,170.31 280.7783,166.6423 279.8178,163.0098 278.7138,159.4184 277.4678,155.8738 276.0819,152.3815 274.5582,148.947 272.8992,145.5759 271.1075,142.2733 269.1859,139.0446 267.1374,135.8949 264.9654,132.829 262.6732,129.852 260.2644,126.9684 257.7429,124.1829 255.1127,121.4999 252.3779,118.9235 249.5428,116.4579 246.6119,114.1069 243.5898,111.8744 240.4814,109.7637 237.2916,107.7783 234.0253,105.9213 230.6878,104.1956 227.2843,102.6039 223.8203,101.1488 220.3011,99.8326 216.7324,98.6574 213.1197,97.6249 209.4689,96.7369 205.7857,95.9947 202.0758,95.3996 198.3453,94.9524 194.5999,94.6539 190.8456,94.5045 187.0883,94.5045 183.3341,94.6539 179.5887,94.9524 175.8581,95.3996 172.1483,95.9947 168.465,96.7369 164.8142,97.6249 161.2016,98.6574 157.6329,99.8326 154.1137,101.1488 150.6496,102.6039 147.2461,104.1956 143.9086,105.9213 140.6424,107.7783 137.4525,109.7637 134.3441,111.8744 131.3221,114.1069 128.3912,116.4579 125.5561,118.9235 122.8213,121.4999 120.191,124.1829 117.6695,126.9684 115.2608,129.852 112.9686,132.829 110.7965,135.8949 108.7481,139.0446 106.8265,142.2733 105.0348,145.5759 103.3758,148.947 101.8521,152.3815 100.4662,155.8738 99.2202,159.4184 98.1161,163.0098 97.1557,166.6423 96.3405,170.31 95.6717,174.0073 95.1504,177.7282 94.7775,181.4669 94.5535,185.2175 94.4788,188.974 94.5535,192.7305 94.7775,196.4811 95.1504,200.2198 95.6717,203.9408 96.3405,207.638 97.1557,211.3058 98.1161,214.9382 99.2202,218.5296 100.4662,222.0743 101.8521,225.5666 103.3758,229.001 105.0348,232.3722 106.8265,235.6747 108.7481,238.9034 110.7965,242.0532 112.9686,245.119 115.2608,248.0961 117.6695,250.9796 120.191,253.7651 122.8213,256.4482 125.5561,259.0246 128.3912,261.4902 131.3221,263.8411 134.3441,266.0737 137.4525,268.1844 140.6424,270.1698 143.9086,272.0268 147.2461,273.7525 150.6496,275.3442 154.1137,276.7992 157.6329,278.1154 161.2016,279.2907 164.8142,280.3232 168.465,281.2112 172.1483,281.9533 175.8581,282.5485 179.5887,282.9956 183.3341,283.2942 187.0883,283.4435 190.8456,283.4435 194.5999,283.2942 198.3453,282.9956 202.0758,282.5485 205.7857,281.9533 209.4689,281.2112 213.1197,280.3232 216.7324,279.2907 220.3011,278.1154 223.8203,276.7992 227.2843,275.3442 230.6878,273.7525 234.0253,272.0268 237.2916,270.1698 240.4814,268.1844 243.5898,266.0737 246.6119,263.8411 249.5428,261.4902 252.3779,259.0246 255.1127,256.4482 257.7429,253.7651 260.2644,250.9796 262.6732,248.0961 264.9654,245.119 267.1374,242.0532 269.1859,238.9034 271.1075,235.6747 272.8992,232.3722 274.5582,229.001 276.0819,225.5666 277.4678,222.0743 278.7138,218.5296 279.8178,214.9382 280.7783,211.3058 281.5935,207.638 282.2623,203.9408 282.7836,200.2198 283.1565,196.4811 283.3805,192.7305"/>
  </g>
  <g fill="none" id="layer5" inkscape:groupmode="layer" inkscape:label="5" stroke="#8ca050" style="display:inline">
    <polygon points="252.0851,188.974 251.9721,185.1993 251.6336,181.4381 251.0708,177.7039 250.2856,174.01 249.2809,170.3696 248.0604,166.7959 246.6282,163.3016 244.9897,159.8991 243.1506,156.6008 241.1176,153.4183 238.8979,150.3631 236.4994,147.4462 233.9308,144.6779 231.2012,142.0681 228.3205,139.6263 225.2988,137.3611 222.1471,135.2807 218.8767,133.3925 215.4991,131.7033 212.0266,130.219 208.4715,128.9451 204.8467,127.8861 201.1649,127.0458 197.4395,126.4272 193.6838,126.0324 189.9112,125.863 186.1352,125.9195 182.3693,126.2017 178.6271,126.7086 174.9219,127.4384 171.2669,128.3885 167.6753,129.5555 164.16,130.9352 160.7334,132.5226 157.4079,134.3121 154.1954,136.2973 151.1074,138.4711 148.1548,140.8257 145.3484,143.3526 142.6981,146.0428 140.2135,148.8867 137.9034,151.8741 135.776,154.9944 133.8391,158.2362 132.0995,161.5881 130.5635,165.038 129.2366,168.5736 128.1235,172.1823 127.2282,175.851 126.5538,179.5668 126.103,183.3162 125.8771,187.0858 125.8771,190.8622 126.103,194.6319 126.5538,198.3813 127.2282,202.097 128.1235,205.7658 129.2366,209.3744 130.5635,212.91 132.0995,216.36 133.8391,219.7118 135.776,222.9537 137.9034,226.0739 140.2135,229.0613 142.6981,231.9052 145.3484,234.5955 148.1548,237.1224 151.1074,239.4769 154.1954,241.6507 157.4079,243.6359 160.7334,245.4254 164.16,247.0129 167.6753,248.3926 171.2669,249.5595 174.9219,250.5096 178.6271,251.2395 182.3693,251.7464 186.1352,252.0286 189.9112,252.0851 193.6838,251.9156 197.4395,251.5209 201.1649,250.9023 204.8467,250.0619 208.4715,249.0029 212.0266,247.729 215.4991,246.2448 218.8767,244.5556 222.1471,242.6673 225.2988,240.5869 228.3205,238.3218 231.2012,235.8799 233.9308,233.2702 236.4994,230.5019 238.8979,227.5849 241.1176,224.5297 243.1506,221.3473 244.9897,218.0489 246.6282,214.6465 248.0604,211.1521 249.2809,207.5784 250.2856,203.9381 251.0708,200.2442 251.6336,196.51 251.9721,192.7488"/>
  </g>
  <g fill="none" id="layer6" inkscape:groupmode="layer" inkscape:label="6" stroke="#50783c" style="display:inline">
    <polygon points="220.3371,188.974 220.1169,185.2638 219.4594,181.6056 218.3739,178.0509 216.8756,174.6495 214.9855,171.4492 212.7302,168.4949 210.1412,165.8281 207.2551,163.4863 204.1122,161.5022 200.7567,159.9037 197.2357,158.7133 193.5987,157.9478 189.8966,157.6177 186.1814,157.7279 182.5054,158.2766 178.9201,159.2563 175.4758,160.6532 172.2209,162.4476 169.2011,164.6144 166.4587,167.1232 164.0323,169.9387 161.956,173.0214 160.2588,176.328 158.9646,179.8122 158.0916,183.425 157.652,187.1156 157.652,190.8324 158.0916,194.5231 158.9646,198.1359 160.2588,201.62 161.956,204.9267 164.0323,208.0094 166.4587,210.8249 169.2011,213.3336 172.2209,215.5004 175.4758,217.2949 178.9201,218.6917 182.5054,219.6714 186.1814,220.2202 189.8966,220.3303 193.5987,220.0003 197.2357,219.2347 200.7567,218.0444 204.1122,216.4459 207.2551,214.4618 210.1412,212.1199 212.7302,209.4531 214.9855,206.4988 216.8756,203.2985 218.3739,199.8971 219.4594,196.3424 220.1169,192.6843"/>
  </g>
</svg>
