<?xml encoding="utf-8" ?>
<svg xmlns="http://www.w3.org/2000/svg" height="9.99987567cm" viewBox="0 0 377.9433575349813 377.9480566910331" width="9.99975133cm">
  <rect width="100%" height="100%" fill="white"/>
  <g fill="none" stroke-width="2" id="layer1" stroke="#000000">
    <polygon points="377.9434,188.974 377.9058,185.2048 377.793,181.4371 377.6051,177.6725 377.3422,173.9123 377.0043,170.1581 376.5916,166.4113 376.1043,162.6736 375.5425,158.9463 374.9064,155.231 374.1964,151.5291 373.4127,147.8421 372.5556,144.1714 371.6255,140.5186 370.6227,136.8851 369.5477,133.2723 368.4008,129.6816 367.1825,126.1145 365.8933,122.5725 364.5337,119.0568 363.1042,115.569 361.6055,112.1104 360.0381,108.6824 358.4026,105.2863 356.6997,101.9235 354.9301,98.5953 353.0945,95.3031 351.1935,92.0482 349.228,88.8318 347.1988,85.6553 345.1066,82.5198 342.9523,79.4268 340.7367,76.3773 338.4607,73.3726 336.1253,70.4139 333.7313,67.5024 331.2797,64.6392 328.7715,61.8254 326.2077,59.0623 323.5892,56.3508 320.9172,53.6921 318.1928,51.0872 315.4169,48.5372 312.5906,46.0431 309.7153,43.6058 306.7918,41.2263 303.8215,38.9057 300.8055,36.6447 297.745,34.4444 294.6412,32.3055 291.4954,30.229 288.3088,28.2156 285.0827,26.2662 281.8183,24.3815 278.517,22.5623 275.18,20.8093 271.8088,19.1232 268.4046,17.5047 264.9688,15.9544 261.5027,14.4729 258.0078,13.0609 254.4854,11.7188 250.937,10.4473 247.3639,9.2468 243.7676,8.1178 240.1494,7.0608 236.5109,6.0761 232.8535,5.1642 229.1787,4.3255 225.4878,3.5602 221.7824,2.8686 218.0639,2.2511 214.3339,1.7079 210.5938,1.2392 206.845,0.8452 203.0892,0.5261 199.3277,0.2819 195.5622,0.1128 191.794,0.0188 188.0246,0.0 184.2557,0.0564 180.4886,0.1879 176.7249,0.3946 172.966,0.6763 169.2136,1.0329 165.469,1.4643 161.7337,1.9702 158.0093,2.5506 154.2972,3.2052 150.5988,3.9336 146.9158,4.7357 143.2495,5.6111 139.6013,6.5594 135.9728,7.5803 132.3654,8.6734 128.7805,9.8382 125.2196,11.0742 121.684,12.3811 118.1752,13.7582 114.6945,15.205 111.2434,16.721 107.8233,18.3054 104.4354,19.9578 101.0811,21.6775 97.7618,23.4636 94.4788,25.3157 91.2334,27.2328 88.0268,29.2143 84.8605,31.2594 81.7355,33.3672 78.6532,35.5369 75.6148,37.7677 72.6215,40.0586 69.6745,42.4088 66.7749,44.8173 63.924,47.2831 61.1228,49.8053 58.3725,52.3829 55.6741,55.0148 53.0287,57.7 50.4375,60.4374 47.9013,63.226 45.4213,66.0646 42.9984,68.9522 40.6336,71.8874 38.3278,74.8693 36.0819,77.8965 33.8968,80.9679 31.7735,84.0823 29.7126,87.2385 27.7152,90.4351 25.7818,93.6709 23.9135,96.9446 22.1107,100.255 20.3744,103.6006 18.7051,106.9803 17.1036,110.3925 15.5705,113.836 14.1063,117.3094 12.7117,120.8113 11.3873,124.3403 10.1335,127.895 8.9508,131.4741 7.8398,135.076 6.8008,138.6993 5.8343,142.3427 4.9406,146.0046 4.1202,149.6836 3.3733,153.3783 2.7003,157.0871 2.1013,160.8086 1.5767,164.5413 1.1267,168.2837 0.7514,172.0343 0.4509,175.7917 0.2255,179.5543 0.0752,183.3207 0.0,187.0893 0.0,190.8587 0.0752,194.6273 0.2255,198.3937 0.4509,202.1564 0.7514,205.9137 1.1267,209.6644 1.5767,213.4068 2.1013,217.1395 2.7003,220.861 3.3733,224.5698 4.1202,228.2644 4.9406,231.9434 5.8343,235.6053 6.8008,239.2487 7.8398,242.8721 8.9508,246.474 10.1335,250.053 11.3873,253.6078 12.7117,257.1368 14.1063,260.6387 15.5705,264.1121 17.1036,267.5556 18.7051,270.9678 20.3744,274.3474 22.1107,277.6931 23.9135,281.0034 25.7818,284.2771 27.7152,287.513 29.7126,290.7096 31.7735,293.8657 33.8968,296.9801 36.0819,300.0516 38.3278,303.0788 40.6336,306.0606 42.9984,308.9959 45.4213,311.8834 47.9013,314.722 50.4375,317.5106 53.0287,320.2481 55.6741,322.9333 58.3725,325.5652 61.1228,328.1428 63.924,330.665 66.7749,333.1308 69.6745,335.5393 72.6215,337.8894 75.6148,340.1804 78.6532,342.4111 81.7355,344.5808 84.8605,346.6887 88.0268,348.7337 91.2334,350.7152 94.4788,352.6324 97.7618,354.4844 101.0811,356.2706 104.4354,357.9902 107.8233,359.6426 111.2434,361.2271 114.6945,362.7431 118.1752,364.1899 121.684,365.567 125.2196,366.8738 128.7805,368.1099 132.3654,369.2747 135.9728,370.3678 139.6013,371.3887 143.2495,372.337 146.9158,373.2124 150.5988,374.0144 154.2972,374.7429 158.0093,375.3974 161.7337,375.9778 165.469,376.4838 169.2136,376.9152 172.966,377.2718 176.7249,377.5535 180.4886,377.7601 184.2557,377.8917 188.0246,377.9481 191.794,377.9293 195.5622,377.8353 199.3277,377.6662 203.0892,377.422 206.845,377.1028 210.5938,376.7088 214.3339,376.2401 218.0639,375.6969 221.7824,375.0794 225.4878,374.3879 229.1787,373.6226 232.8535,372.7838 236.5109,371.8719 240.1494,370.8873 243.7676,369.8302 247.3639,368.7012 250.937,367.5007 254.4854,366.2292 258.0078,364.8872 261.5027,363.4751 264.9688,361.9937 268.4046,360.4434 271.8088,358.8249 275.18,357.1388 278.517,355.3858 281.8183,353.5666 285.0827,351.6819 288.3088,349.7325 291.4954,347.7191 294.6412,345.6425 297.745,343.5037 300.8055,341.3033 303.8215,339.0424 306.7918,336.7217 309.7153,334.3423 312.5906,331.905 315.4169,329.4108 318.1928,326.8608 320.9172,324.256 323.5892,321.5973 326.2077,318.8858 328.7715,316.1226 331.2797,313.3089 333.7313,310.4457 336.1253,307.5342 338.4607,304.5755 340.7367,301.5708 342.9523,298.5213 345.1066,295.4282 347.1988,292.2928 349.228,289.1163 351.1935,285.8999 353.0945,282.6449 354.9301,279.3527 356.6997,276.0246 358.4026,272.6618 360.0381,269.2657 361.6055,265.8376 363.1042,262.379 364.5337,258.8912 365.8933,255.3756 367.1825,251.8335 368.4008,248.2664 369.5477,244.6758 370.6227,241.063 371.6255,237.4294 372.5556,233.7766 373.4127,230.106 374.1964,226.419 374.9064,222.7171 375.5425,219.0017 376.1043,215.2745 376.5916,211.5367 377.0043,207.79 377.3422,204.0358 377.6051,200.2756 377.793,196.5109 377.9058,192.7432"/>
  </g>
  <g fill="none" stroke-width="2" id="layer2" stroke="#323232">
    <polygon points="340.1481,188.974 340.1011,185.205 339.9602,181.4383 339.7253,177.6763 339.3968,173.9213 338.9748,170.1756 338.4595,166.4417 337.8513,162.7217 337.1505,159.0181 336.3577,155.3331 335.4732,151.669 334.4976,148.0281 333.4315,144.4126 332.2757,140.8249 331.0307,137.267 329.6975,133.7414 328.2768,130.25 326.7694,126.7952 325.1764,123.379 323.4988,120.0036 321.7375,116.6711 319.8937,113.3835 317.9684,110.1429 315.963,106.9513 313.8787,103.8107 311.7167,100.723 309.4784,97.6902 307.1651,94.7142 304.7784,91.7967 302.3197,88.9396 299.7906,86.1448 297.1925,83.4138 294.5272,80.7485 291.7962,78.1504 289.0014,75.6213 286.1443,73.1626 283.2269,70.7759 280.2508,68.4627 277.218,66.2243 274.1303,64.0623 270.9897,61.978 267.7981,59.9726 264.5575,58.0474 261.2699,56.2035 257.9374,54.4422 254.562,52.7646 251.1458,51.1716 247.691,49.6642 244.1996,48.2435 240.674,46.9103 237.1161,45.6653 233.5284,44.5095 229.9129,43.4434 226.272,42.4679 222.6079,41.5834 218.9229,40.7905 215.2193,40.0897 211.4994,39.4815 207.7654,38.9662 204.0198,38.5442 200.2648,38.2157 196.5027,37.9809 192.736,37.8399 188.967,37.7929 185.1979,37.8399 181.4312,37.9809 177.6692,38.2157 173.9142,38.5442 170.1686,38.9662 166.4346,39.4815 162.7147,40.0897 159.011,40.7905 155.326,41.5834 151.6619,42.4679 148.021,43.4434 144.4056,44.5095 140.8178,45.6653 137.26,46.9103 133.7343,48.2435 130.243,49.6642 126.7881,51.1716 123.372,52.7646 119.9965,54.4422 116.664,56.2035 113.3764,58.0474 110.1358,59.9726 106.9442,61.978 103.8036,64.0623 100.716,66.2243 97.6832,68.4627 94.7071,70.7759 91.7896,73.1626 88.9326,75.6213 86.1377,78.1504 83.4068,80.7485 80.7414,83.4138 78.1434,86.1448 75.6142,88.9396 73.1555,91.7967 70.7688,94.7142 68.4556,97.6902 66.2173,100.723 64.0553,103.8107 61.9709,106.9513 59.9655,110.1429 58.0403,113.3835 56.1965,116.6711 54.4352,120.0036 52.7575,123.379 51.1645,126.7952 49.6572,130.25 48.2365,133.7414 46.9032,137.267 45.6583,140.8249 44.5024,144.4126 43.4364,148.0281 42.4608,151.669 41.5763,155.3331 40.7834,159.0181 40.0827,162.7217 39.4744,166.4417 38.9592,170.1756 38.5371,173.9213 38.2086,177.6763 37.9738,181.4383 37.8329,185.205 37.7859,188.974 37.8329,192.7431 37.9738,196.5098 38.2086,200.2718 38.5371,204.0268 38.9592,207.7724 39.4744,211.5064 40.0827,215.2264 40.7834,218.93 41.5763,222.615 42.4608,226.2791 43.4364,229.92 44.5024,233.5354 45.6583,237.1232 46.9032,240.681 48.2365,244.2067 49.6572,247.698 51.1645,251.1529 52.7575,254.5691 54.4352,257.9445 56.1965,261.277 58.0403,264.5646 59.9655,267.8052 61.9709,270.9968 64.0553,274.1374 66.2173,277.225 68.4556,280.2578 70.7688,283.2339 73.1555,286.1514 75.6142,289.0084 78.1434,291.8033 80.7414,294.5342 83.4068,297.1996 86.1377,299.7976 88.9326,302.3268 91.7896,304.7855 94.7071,307.1722 97.6832,309.4854 100.716,311.7237 103.8036,313.8857 106.9442,315.9701 110.1358,317.9755 113.3764,319.9007 116.664,321.7445 119.9965,323.5058 123.372,325.1835 126.7881,326.7765 130.243,328.2838 133.7343,329.7045 137.26,331.0378 140.8178,332.2827 144.4056,333.4386 148.021,334.5046 151.6619,335.4802 155.326,336.3647 159.011,337.1576 162.7147,337.8584 166.4346,338.4666 170.1686,338.9818 173.9142,339.4039 177.6692,339.7324 181.4312,339.9672 185.1979,340.1081 188.967,340.1551 192.736,340.1081 196.5027,339.9672 200.2648,339.7324 204.0198,339.4039 207.7654,338.9818 211.4994,338.4666 215.2193,337.8584 218.9229,337.1576 222.6079,336.3647 226.272,335.4802 229.9129,334.5046 233.5284,333.4386 237.1161,332.2827 240.674,331.0378 244.1996,329.7045 247.691,328.2838 251.1458,326.7765 254.562,325.1835 257.9374,323.5058 261.2699,321.7445 264.5575,319.9007 267.7981,317.9755 270.9897,315.9701 274.1303,313.8857 277.218,311.7237 280.2508,309.4854 283.2269,307.1722 286.1443,304.7855 289.0014,302.3268 291.7962,299.7976 294.5272,297.1996 297.1925,294.5342 299.7906,291.8033 302.3197,289.0084 304.7784,286.1514 307.1651,283.2339 309.4784,280.2578 311.7167,277.225 313.8787,274.1374 315.963,270.9968 317.9684,267.8052 319.8937,264.5646 321.7375,261.277 323.4988,257.9445 325.1764,254.5691 326.7694,251.1529 328.2768,247.698 329.6975,244.2067 331.0307,240.681 332.2757,237.1232 333.4315,233.5354 334.4976,229.92 335.4732,226.2791 336.3577,222.615 337.1505,218.93 337.8513,215.2264 338.4595,211.5064 338.9748,207.7724 339.3968,204.0268 339.7253,200.2718 339.9602,196.5098 340.1011,192.7431"/>
  </g>
  <g fill="none" stroke-width="2" id="layer3" stroke="#646464">
    <polygon points="302.3528,188.974 302.2902,185.2053 302.1023,181.4407 301.7894,177.6844 301.3518,173.9407 300.79,170.2135 300.1046,166.5071 299.2965,162.8255 298.3664,159.1727 297.3154,155.553 296.1447,151.9701 294.8555,148.4282 293.4493,144.931 291.9277,141.4826 290.2923,138.0866 288.5449,134.7468 286.6874,131.467 284.722,128.2507 282.6507,125.1015 280.476,122.0229 278.2001,119.0183 275.8256,116.091 273.3551,113.2443 270.7913,110.4812 268.1371,107.8049 265.3955,105.2182 262.5693,102.7242 259.6619,100.3254 256.6763,98.0246 253.6159,95.8243 250.484,93.727 247.2842,91.7349 244.0199,89.8503 240.6948,88.0752 237.3125,86.4116 233.8768,84.8613 230.3915,83.4261 226.8604,82.1076 223.2874,80.9071 219.6764,79.8261 216.0316,78.8657 212.3568,78.0269 208.6562,77.3108 204.9339,76.718 201.1938,76.2494 197.4403,75.9053 193.6774,75.6861 189.9093,75.5921 186.1402,75.6234 182.3742,75.78 178.6155,76.0617 174.8682,76.4682 171.1365,76.9989 167.4245,77.6535 163.7363,78.431 160.0759,79.3307 156.4476,80.3516 152.8551,81.4925 149.3026,82.7522 145.7939,84.1293 142.3329,85.6222 138.9234,87.2293 135.5692,88.9489 132.2741,90.779 129.0416,92.7177 125.8753,94.7627 122.7787,96.9118 119.7553,99.1626 116.8084,101.5127 113.9412,103.9595 111.1569,106.5002 108.4586,109.132 105.8493,111.8521 103.3318,114.6574 100.909,117.5448 98.5835,120.5112 96.3578,123.5532 94.2345,126.6675 92.2159,129.8507 90.3042,133.0992 88.5015,136.4094 86.8099,139.7778 85.2311,143.2005 83.767,146.6738 82.4192,150.1938 81.189,153.7567 80.078,157.3585 79.0874,160.9952 78.2181,164.6629 77.4712,168.3574 76.8476,172.0747 76.3478,175.8107 75.9725,179.5613 75.7221,183.3222 75.5968,187.0894 75.5968,190.8587 75.7221,194.6258 75.9725,198.3868 76.3478,202.1373 76.8476,205.8733 77.4712,209.5906 78.2181,213.2852 79.0874,216.9528 80.078,220.5896 81.189,224.1914 82.4192,227.7543 83.767,231.2743 85.2311,234.7476 86.8099,238.1703 88.5015,241.5386 90.3042,244.8489 92.2159,248.0974 94.2345,251.2806 96.3578,254.3949 98.5835,257.4369 100.909,260.4033 103.3318,263.2907 105.8493,266.096 108.4586,268.816 111.1569,271.4479 113.9412,273.9886 116.8084,276.4353 119.7553,278.7854 122.7787,281.0363 125.8753,283.1854 129.0416,285.2304 132.2741,287.169 135.5692,288.9992 138.9234,290.7187 142.3329,292.3259 145.7939,293.8188 149.3026,295.1959 152.8551,296.4556 156.4476,297.5965 160.0759,298.6173 163.7363,299.517 167.4245,300.2946 171.1365,300.9491 174.8682,301.4799 178.6155,301.8863 182.3742,302.168 186.1402,302.3246 189.9093,302.3559 193.6774,302.262 197.4403,302.0428 201.1938,301.6987 204.9339,301.23 208.6562,300.6373 212.3568,299.9211 216.0316,299.0824 219.6764,298.122 223.2874,297.0409 226.8604,295.8405 230.3915,294.5219 233.8768,293.0867 237.3125,291.5365 240.6948,289.8729 244.0199,288.0978 247.2842,286.2132 250.484,284.2211 253.6159,282.1237 256.6763,279.9234 259.6619,277.6226 262.5693,275.2239 265.3955,272.7298 268.1371,270.1432 270.7913,267.4669 273.3551,264.7038 275.8256,261.857 278.2001,258.9297 280.476,255.9251 282.6507,252.8465 284.722,249.6974 286.6874,246.4811 288.5449,243.2013 290.2923,239.8615 291.9277,236.4655 293.4493,233.017 294.8555,229.5199 296.1447,225.9779 297.3154,222.3951 298.3664,218.7753 299.2965,215.1226 300.1046,211.441 300.79,207.7346 301.3518,204.0074 301.7894,200.2636 302.1023,196.5074 302.2902,192.7428"/>
  </g>
  <g fill="none" stroke-width="2" id="layer4" stroke="#969696">
    <polygon points="264.5575,188.974 264.4636,185.2062 264.1819,181.4476 263.7132,177.7078 263.0588,173.9961 262.2201,170.3215 261.1993,166.6933 259.9989,163.1205 258.6219,159.612 257.0717,156.1765 255.3522,152.8225 253.4677,149.5585 251.4228,146.3924 249.2227,143.3321 246.8727,140.3854 244.3788,137.5594 241.7471,134.8613 238.9842,132.2977 236.0969,129.875 233.0925,127.5992 229.9784,125.476 226.7623,123.5107 223.4522,121.7081 220.0564,120.0728 216.5833,118.6088 213.0416,117.3197 209.44,116.2087 205.7875,115.2787 202.0931,114.5319 198.3662,113.9701 194.6159,113.5948 190.8515,113.407 187.0825,113.407 183.3181,113.5948 179.5678,113.9701 175.8408,114.5319 172.1465,115.2787 168.494,116.2087 164.8924,117.3197 161.3507,118.6088 157.8776,120.0728 154.4818,121.7081 151.1717,123.5107 147.9556,125.476 144.8415,127.5992 141.837,129.875 138.9498,132.2977 136.1869,134.8613 133.5552,137.5594 131.0613,140.3854 128.7113,143.3321 126.5111,146.3924 124.4663,149.5585 122.5817,152.8225 120.8622,156.1765 119.3121,159.612 117.9351,163.1205 116.7347,166.6933 115.7139,170.3215 114.8752,173.9961 114.2207,177.7078 113.7521,181.4476 113.4704,185.2062 113.3764,188.974 113.4704,192.7419 113.7521,196.5004 114.2207,200.2402 114.8752,203.952 115.7139,207.6266 116.7347,211.2547 117.9351,214.8275 119.3121,218.336 120.8622,221.7715 122.5817,225.1255 124.4663,228.3896 126.5111,231.5557 128.7113,234.6159 131.0613,237.5627 133.5552,240.3887 136.1869,243.0868 138.9498,245.6504 141.837,248.0731 144.8415,250.3489 147.9556,252.4721 151.1717,254.4374 154.4818,256.2399 157.8776,257.8753 161.3507,259.3393 164.8924,260.6284 168.494,261.7393 172.1465,262.6694 175.8408,263.4162 179.5678,263.9779 183.3181,264.3532 187.0825,264.5411 190.8515,264.5411 194.6159,264.3532 198.3662,263.9779 202.0931,263.4162 205.7875,262.6694 209.44,261.7393 213.0416,260.6284 216.5833,259.3393 220.0564,257.8753 223.4522,256.2399 226.7623,254.4374 229.9784,252.4721 233.0925,250.3489 236.0969,248.0731 238.9842,245.6504 241.7471,243.0868 244.3788,240.3887 246.8727,237.5627 249.2227,234.6159 251.4228,231.5557 253.4677,228.3896 255.3522,225.1255 257.0717,221.7715 258.6219,218.336 259.9989,214.8275 261.1993,211.2547 262.2201,207.6266 263.0588,203.952 263.7132,200.2402 264.1819,196.5004 264.4636,192.7419"/>
  </g>
  <g fill="none" stroke-width="2" id="layer5" stroke="#c8c8c8">
    <polygon points="226.7623,188.974 226.5744,185.2108 226.0129,181.485 225.0831,177.8337 223.7944,174.293 222.1596,170.8983 220.1949,167.6832 217.9198,164.6797 215.357,161.9176 212.5319,159.4245 209.4727,157.225 206.2096,155.3411 202.7751,153.7914 199.2035,152.5914 195.5301,151.7529 191.7914,151.2844 188.0247,151.1905 184.2674,151.4721 180.5567,152.1264 176.9297,153.1469 173.4223,154.5234 170.0693,156.2424 166.9042,158.2866 163.9584,160.6358 161.2611,163.2667 158.8391,166.1531 156.7166,169.2662 154.9146,172.5753 153.451,176.0473 152.3404,179.6478 151.5938,183.3409 151.2187,187.0901 151.2187,190.858 151.5938,194.6071 152.3404,198.3003 153.451,201.9008 154.9146,205.3728 156.7166,208.6818 158.8391,211.795 161.2611,214.6813 163.9584,217.3122 166.9042,219.6614 170.0693,221.7057 173.4223,223.4246 176.9297,224.8012 180.5567,225.8217 184.2674,226.476 188.0247,226.7576 191.7914,226.6636 195.5301,226.1951 199.2035,225.3567 202.7751,224.1567 206.2096,222.607 209.4727,220.723 212.5319,218.5236 215.357,216.0304 217.9198,213.2684 220.1949,210.2649 222.1596,207.0498 223.7944,203.655 225.0831,200.1144 226.0129,196.463 226.5744,192.7372"/>
  </g>
</svg>
