<?xml encoding="utf-8" ?>
<svg xmlns="http://www.w3.org/2000/svg" height="9.99987567cm" viewBox="0 0 377.9433575349813 377.9480566910331" width="9.99975133cm">
  <rect width="100%" height="100%" fill="white"/>
  <g fill="none" id="layer1" stroke="#000000" stroke-width="0.5">
    <polygon points="377.9434,188.974 377.9058,185.2048 377.793,181.4371 377.6051,177.6725 377.3422,173.9123 377.0043,170.1581 376.5916,166.4113 376.1043,162.6736 375.5425,158.9463 374.9064,155.231 374.1964,151.5291 373.4127,147.8421 372.5556,144.1714 371.6255,140.5186 370.6227,136.8851 369.5477,133.2723 368.4008,129.6816 367.1825,126.1145 365.8933,122.5725 364.5337,119.0568 363.1042,115.569 361.6055,112.1104 360.0381,108.6824 358.4026,105.2863 356.6997,101.9235 354.9301,98.5953 353.0945,95.3031 351.1935,92.0482 349.228,88.8318 347.1988,85.6553 345.1066,82.5198 342.9523,79.4268 340.7367,76.3773 338.4607,73.3726 336.1253,70.4139 333.7313,67.5024 331.2797,64.6392 328.7715,61.8254 326.2077,59.0623 323.5892,56.3508 320.9172,53.6921 318.1928,51.0872 315.4169,48.5372 312.5906,46.0431 309.7153,43.6058 306.7918,41.2263 303.8215,38.9057 300.8055,36.6447 297.745,34.4444 294.6412,32.3055 291.4954,30.229 288.3088,28.2156 285.0827,26.2662 281.8183,24.3815 278.517,22.5623 275.18,20.8093 271.8088,19.1232 268.4046,17.5047 264.9688,15.9544 261.5027,14.4729 258.0078,13.0609 254.4854,11.7188 250.937,10.4473 247.3639,9.2468 243.7676,8.1178 240.1494,7.0608 236.5109,6.0761 232.8535,5.1642 229.1787,4.3255 225.4878,3.5602 221.7824,2.8686 218.0639,2.2511 214.3339,1.7079 210.5938,1.2392 206.845,0.8452 203.0892,0.5261 199.3277,0.2819 195.5622,0.1128 191.794,0.0188 188.0246,0.0 184.2557,0.0564 180.4886,0.1879 176.7249,0.3946 172.966,0.6763 169.2136,1.0329 165.469,1.4643 161.7337,1.9702 158.0093,2.5506 154.2972,3.2052 150.5988,3.9336 146.9158,4.7357 143.2495,5.6111 139.6013,6.5594 135.9728,7.5803 132.3654,8.6734 128.7805,9.8382 125.2196,11.0742 121.684,12.3811 118.1752,13.7582 114.6945,15.205 111.2434,16.721 107.8233,18.3054 104.4354,19.9578 101.0811,21.6775 97.7618,23.4636 94.4788,25.3157 91.2334,27.2328 88.0268,29.2143 84.8605,31.2594 81.7355,33.3672 78.6532,35.5369 75.6148,37.7677 72.6215,40.0586 69.6745,42.4088 66.7749,44.8173 63.924,47.2831 61.1228,49.8053 58.3725,52.3829 55.6741,55.0148 53.0287,57.7 50.4375,60.4374 47.9013,63.226 45.4213,66.0646 42.9984,68.9522 40.6336,71.8874 38.3278,74.8693 36.0819,77.8965 33.8968,80.9679 31.7735,84.0823 29.7126,87.2385 27.7152,90.4351 25.7818,93.6709 23.9135,96.9446 22.1107,100.255 20.3744,103.6006 18.7051,106.9803 17.1036,110.3925 15.5705,113.836 14.1063,117.3094 12.7117,120.8113 11.3873,124.3403 10.1335,127.895 8.9508,131.4741 7.8398,135.076 6.8008,138.6993 5.8343,142.3427 4.9406,146.0046 4.1202,149.6836 3.3733,153.3783 2.7003,157.0871 2.1013,160.8086 1.5767,164.5413 1.1267,168.2837 0.7514,172.0343 0.4509,175.7917 0.2255,179.5543 0.0752,183.3207 0.0,187.0893 0.0,190.8587 0.0752,194.6273 0.2255,198.3937 0.4509,202.1564 0.7514,205.9137 1.1267,209.6644 1.5767,213.4068 2.1013,217.1395 2.7003,220.861 3.3733,224.5698 4.1202,228.2644 4.9406,231.9434 5.8343,235.6053 6.8008,239.2487 7.8398,242.8721 8.9508,246.474 10.1335,250.053 11.3873,253.6078 12.7117,257.1368 14.1063,260.6387 15.5705,264.1121 17.1036,267.5556 18.7051,270.9678 20.3744,274.3474 22.1107,277.6931 23.9135,281.0034 25.7818,284.2771 27.7152,287.513 29.7126,290.7096 31.7735,293.8657 33.8968,296.9801 36.0819,300.0516 38.3278,303.0788 40.6336,306.0606 42.9984,308.9959 45.4213,311.8834 47.9013,314.722 50.4375,317.5106 53.0287,320.2481 55.6741,322.9333 58.3725,325.5652 61.1228,328.1428 63.924,330.665 66.7749,333.1308 69.6745,335.5393 72.6215,337.8894 75.6148,340.1804 78.6532,342.4111 81.7355,344.5808 84.8605,346.6887 88.0268,348.7337 91.2334,350.7152 94.4788,352.6324 97.7618,354.4844 101.0811,356.2706 104.4354,357.9902 107.8233,359.6426 111.2434,361.2271 114.6945,362.7431 118.1752,364.1899 121.684,365.567 125.2196,366.8738 128.7805,368.1099 132.3654,369.2747 135.9728,370.3678 139.6013,371.3887 143.2495,372.337 146.9158,373.2124 150.5988,374.0144 154.2972,374.7429 158.0093,375.3974 161.7337,375.9778 165.469,376.4838 169.2136,376.9152 172.966,377.2718 176.7249,377.5535 180.4886,377.7601 184.2557,377.8917 188.0246,377.9481 191.794,377.9293 195.5622,377.8353 199.3277,377.6662 203.0892,377.422 206.845,377.1028 210.5938,376.7088 214.3339,376.2401 218.0639,375.6969 221.7824,375.0794 225.4878,374.3879 229.1787,373.6226 232.8535,372.7838 236.5109,371.8719 240.1494,370.8873 243.7676,369.8302 247.3639,368.7012 250.937,367.5007 254.4854,366.2292 258.0078,364.8872 261.5027,363.4751 264.9688,361.9937 268.4046,360.4434 271.8088,358.8249 275.18,357.1388 278.517,355.3858 281.8183,353.5666 285.0827,351.6819 288.3088,349.7325 291.4954,347.7191 294.6412,345.6425 297.745,343.5037 300.8055,341.3033 303.8215,339.0424 306.7918,336.7217 309.7153,334.3423 312.5906,331.905 315.4169,329.4108 318.1928,326.8608 320.9172,324.256 323.5892,321.5973 326.2077,318.8858 328.7715,316.1226 331.2797,313.3089 333.7313,310.4457 336.1253,307.5342 338.4607,304.5755 340.7367,301.5708 342.9523,298.5213 345.1066,295.4282 347.1988,292.2928 349.228,289.1163 351.1935,285.8999 353.0945,282.6449 354.9301,279.3527 356.6997,276.0246 358.4026,272.6618 360.0381,269.2657 361.6055,265.8376 363.1042,262.379 364.5337,258.8912 365.8933,255.3756 367.1825,251.8335 368.4008,248.2664 369.5477,244.6758 370.6227,241.063 371.6255,237.4294 372.5556,233.7766 373.4127,230.106 374.1964,226.419 374.9064,222.7171 375.5425,219.0017 376.1043,215.2745 376.5916,211.5367 377.0043,207.79 377.3422,204.0358 377.6051,200.2756 377.793,196.5109 377.9058,192.7432"/>
  </g>
  <g fill="none" id="layer2" stroke="#0000b4" stroke-width="0.5">
    <polygon points="351.4867,188.974 351.443,185.2063 351.312,181.4406 351.0937,177.679 350.7883,173.9234 350.3959,170.176 349.9167,166.4386 349.351,162.7133 348.6991,159.0022 347.9613,155.3072 347.1381,151.6302 346.2298,147.9734 345.237,144.3385 344.1602,140.7277 343.0,137.1428 341.757,133.5858 340.4319,130.0585 339.0253,126.5629 337.5381,123.1009 335.971,119.6742 334.3249,116.2849 332.6007,112.9345 330.7993,109.6251 328.9216,106.3583 326.9687,103.1359 324.9416,99.9597 322.8414,96.8313 320.6693,93.7525 318.4264,90.7248 316.1138,87.7499 313.733,84.8295 311.2851,81.965 308.7714,79.158 306.1933,76.4101 303.5522,73.7227 300.8495,71.0972 298.0867,68.5351 295.2652,66.0378 292.3866,63.6065 289.4524,61.2426 286.4642,58.9473 283.4236,56.722 280.3322,54.5677 277.1917,52.4857 274.0037,50.4771 270.7701,48.5429 267.4925,46.6842 264.1726,44.902 260.8124,43.1972 257.4135,41.5708 253.9779,40.0236 250.5073,38.5565 247.0036,37.1702 243.4687,35.8655 239.9045,34.6432 236.3129,33.5038 232.6959,32.4479 229.0554,31.4762 225.3934,30.5892 221.7117,29.7873 218.0125,29.0709 214.2976,28.4405 210.5691,27.8964 206.8291,27.4389 203.0794,27.0682 199.3221,26.7846 195.5593,26.5881 191.7929,26.4789 188.025,26.4571 184.2576,26.5226 180.4927,26.6754 176.7324,26.9155 172.9787,27.2427 169.2335,27.6568 165.499,28.1577 161.7771,28.7449 158.0698,29.4184 154.3791,30.1775 150.707,31.0221 147.0555,31.9515 143.4265,32.9653 139.8219,34.063 136.2438,35.244 132.6941,36.5076 129.1745,37.8532 125.6871,39.28 122.2338,40.7872 118.8163,42.3741 115.4365,44.0398 112.0962,45.7835 108.7973,47.6041 105.5414,49.5006 102.3304,51.4722 99.166,53.5176 96.0498,55.6359 92.9836,57.8259 89.969,60.0863 87.0076,62.416 84.101,64.8138 81.2507,67.2783 78.4584,69.8082 75.7255,72.4021 73.0534,75.0587 70.4437,77.7766 67.8976,80.5542 65.4166,83.3901 63.0021,86.2828 60.6552,89.2306 58.3774,92.2321 56.1697,95.2856 54.0334,98.3894 51.9696,101.5419 49.9795,104.7415 48.0641,107.9863 46.2244,111.2746 44.4614,114.6047 42.7762,117.9748 41.1695,121.383 39.6422,124.8276 38.1952,128.3066 36.8293,131.8183 35.5451,135.3607 34.3435,138.9319 33.2249,142.53 32.19,146.1531 31.2394,149.7992 30.3736,153.4663 29.5931,157.1525 28.8982,160.8559 28.2893,164.5743 27.7669,168.3059 27.331,172.0486 26.9821,175.8003 26.7202,179.5592 26.5456,183.3231 26.4582,187.09 26.4582,190.858 26.5456,194.625 26.7202,198.3889 26.9821,202.1477 27.331,205.8995 27.7669,209.6422 28.2893,213.3737 28.8982,217.0922 29.5931,220.7955 30.3736,224.4818 31.2394,228.1489 32.19,231.795 33.2249,235.4181 34.3435,239.0162 35.5451,242.5874 36.8293,246.1297 38.1952,249.6414 39.6422,253.1205 41.1695,256.565 42.7762,259.9733 44.4614,263.3433 46.2244,266.6734 48.0641,269.9618 49.9795,273.2066 51.9696,276.4061 54.0334,279.5586 56.1697,282.6625 58.3774,285.7159 60.6552,288.7174 63.0021,291.6653 65.4166,294.5579 67.8976,297.3938 70.4437,300.1715 73.0534,302.8893 75.7255,305.5459 78.4584,308.1399 81.2507,310.6698 84.101,313.1343 87.0076,315.532 89.969,317.8618 92.9836,320.1222 96.0498,322.3121 99.166,324.4304 102.3304,326.4759 105.5414,328.4474 108.7973,330.344 112.0962,332.1646 115.4365,333.9082 118.8163,335.5739 122.2338,337.1608 125.6871,338.6681 129.1745,340.0949 132.6941,341.4404 136.2438,342.704 139.8219,343.885 143.4265,344.9827 147.0555,345.9966 150.707,346.926 154.3791,347.7705 158.0698,348.5297 161.7771,349.2031 165.499,349.7904 169.2335,350.2912 172.9787,350.7054 176.7324,351.0325 180.4927,351.2726 184.2576,351.4255 188.025,351.491 191.7929,351.4691 195.5593,351.36 199.3221,351.1635 203.0794,350.8798 206.8291,350.5091 210.5691,350.0516 214.2976,349.5075 218.0125,348.8771 221.7117,348.1608 225.3934,347.3589 229.0554,346.4719 232.6959,345.5001 236.3129,344.4443 239.9045,343.3049 243.4687,342.0825 247.0036,340.7779 250.5073,339.3916 253.9779,337.9245 257.4135,336.3773 260.8124,334.7509 264.1726,333.0461 267.4925,331.2639 270.7701,329.4052 274.0037,327.471 277.1917,325.4623 280.3322,323.3803 283.4236,321.2261 286.4642,319.0007 289.4524,316.7055 292.3866,314.3416 295.2652,311.9103 298.0867,309.4129 300.8495,306.8508 303.5522,304.2254 306.1933,301.538 308.7714,298.79 311.2851,295.9831 313.733,293.1186 316.1138,290.1981 318.4264,287.2233 320.6693,284.1956 322.8414,281.1167 324.9416,277.9884 326.9687,274.8121 328.9216,271.5897 330.7993,268.3229 332.6007,265.0135 334.3249,261.6632 335.971,258.2738 337.5381,254.8472 339.0253,251.3851 340.4319,247.8895 341.757,244.3623 343.0,240.8052 344.1602,237.2203 345.237,233.6095 346.2298,229.9747 347.1381,226.3178 347.9613,222.6409 348.6991,218.9459 349.351,215.2347 349.9167,211.5095 350.3959,207.7721 350.7883,204.0246 351.0937,200.2691 351.312,196.5074 351.443,192.7417"/>
  </g>
  <g fill="none" id="layer3" stroke="#c80000" stroke-width="0.5">
    <polygon points="325.03,188.974 324.9779,185.2084 324.8215,181.4456 324.5611,177.6887 324.1969,173.9403 323.729,170.2035 323.1579,166.481 322.484,162.7758 321.7078,159.0907 320.8299,155.4284 319.851,151.7919 318.7718,148.1838 317.5932,144.607 316.316,141.0642 314.9413,137.5581 313.4701,134.0913 311.9035,130.6666 310.2427,127.2866 308.489,123.9539 306.6438,120.6709 304.7083,117.4403 302.6843,114.2645 300.5731,111.1459 298.3764,108.0869 296.0958,105.0899 293.7333,102.1572 291.2904,99.291 288.7692,96.4934 286.1715,93.7668 283.4993,91.113 280.7547,88.5343 277.9398,86.0325 275.0568,83.6095 272.1078,81.2673 269.0951,79.0075 266.021,76.8321 262.8879,74.7425 259.6981,72.7404 256.4542,70.8274 253.1585,69.0049 249.8137,67.2743 246.4223,65.637 242.9868,64.0941 239.51,62.6469 235.9944,61.2965 232.4429,60.0439 228.858,58.89 225.2425,57.8359 221.5993,56.8821 217.9311,56.0296 214.2406,55.2789 210.5309,54.6307 206.8046,54.0853 203.0646,53.6433 199.3138,53.305 195.5551,53.0706 191.7914,52.9404 188.0255,52.9143 184.2603,52.9925 180.4987,53.1748 176.7436,53.4612 172.9979,53.8514 169.2644,54.3451 165.546,54.942 161.8455,55.6415 158.1658,56.4432 154.5097,57.3464 150.8801,58.3504 147.2795,59.4545 143.711,60.6579 140.1771,61.9595 136.6805,63.3585 133.2241,64.8537 129.8103,66.4439 126.4419,68.1281 123.1213,69.9048 119.8512,71.7727 116.6341,73.7304 113.4723,75.7764 110.3684,77.9092 107.3247,80.127 104.3436,82.4282 101.4273,84.811 98.578,87.2736 95.798,89.8142 93.0894,92.4307 90.4542,95.1211 87.8945,97.8835 85.4122,100.7156 83.0093,103.6154 80.6875,106.5805 78.4487,109.6088 76.2945,112.6979 74.2267,115.8454 72.2467,119.0489 70.3562,122.306 68.5566,125.6142 66.8492,128.9709 65.2353,132.3736 63.7162,135.8196 62.2931,139.3064 60.9671,142.8312 59.7391,146.3913 58.6101,149.9841 57.5809,153.6068 56.6524,157.2565 55.8253,160.9306 55.1002,164.6261 54.4776,168.3403 53.9581,172.0703 53.542,175.8132 53.2296,179.5662 53.0212,183.3265 52.917,187.091 52.917,190.857 53.0212,194.6216 53.2296,198.3818 53.542,202.1348 53.9581,205.8778 54.4776,209.6078 55.1002,213.3219 55.8253,217.0175 56.6524,220.6915 57.5809,224.3413 58.6101,227.9639 59.7391,231.5567 60.9671,235.1169 62.2931,238.6417 63.7162,242.1284 65.2353,245.5745 66.8492,248.9772 68.5566,252.3339 70.3562,255.642 72.2467,258.8991 74.2267,262.1027 76.2945,265.2502 78.4487,268.3393 80.6875,271.3675 83.0093,274.3327 85.4122,277.2324 87.8945,280.0646 90.4542,282.8269 93.0894,285.5174 95.798,288.1339 98.578,290.6744 101.4273,293.1371 104.3436,295.5199 107.3247,297.8211 110.3684,300.0389 113.4723,302.1716 116.6341,304.2176 119.8512,306.1753 123.1213,308.0433 126.4419,309.82 129.8103,311.5041 133.2241,313.0944 136.6805,314.5896 140.1771,315.9885 143.711,317.2902 147.2795,318.4935 150.8801,319.5976 154.5097,320.6017 158.1658,321.5049 161.8455,322.3066 165.546,323.0061 169.2644,323.6029 172.9979,324.0967 176.7436,324.4869 180.4987,324.7732 184.2603,324.9556 188.0255,325.0338 191.7914,325.0077 195.5551,324.8774 199.3138,324.643 203.0646,324.3047 206.8046,323.8627 210.5309,323.3174 214.2406,322.6691 217.9311,321.9185 221.5993,321.0659 225.2425,320.1122 228.858,319.058 232.4429,317.9042 235.9944,316.6516 239.51,315.3011 242.9868,313.8539 246.4223,312.3111 249.8137,310.6737 253.1585,308.9431 256.4542,307.1206 259.6981,305.2076 262.8879,303.2056 266.021,301.116 269.0951,298.9405 272.1078,296.6808 275.0568,294.3386 277.9398,291.9156 280.7547,289.4138 283.4993,286.835 286.1715,284.1813 288.7692,281.4546 291.2904,278.6571 293.7333,275.7909 296.0958,272.8581 298.3764,269.8611 300.5731,266.8022 302.6843,263.6836 304.7083,260.5078 306.6438,257.2771 308.489,253.9942 310.2427,250.6614 311.9035,247.2814 313.4701,243.8567 314.9413,240.39 316.316,236.8839 317.5932,233.341 318.7718,229.7642 319.851,226.1562 320.8299,222.5196 321.7078,218.8574 322.484,215.1722 323.1579,211.467 323.729,207.7446 324.1969,204.0077 324.5611,200.2594 324.8215,196.5024 324.9779,192.7397"/>
  </g>
  <g fill="none" id="layer4" stroke="#008200" stroke-width="0.5">
    <polygon points="298.5733,188.974 298.5087,185.2115 298.315,181.4534 297.9924,177.7042 297.5412,173.9683 296.9621,170.25 296.2557,166.5538 295.4229,162.8841 294.4645,159.2451 293.3818,155.6411 292.176,152.0765 290.8486,148.5553 289.4011,145.0818 287.8352,141.66 286.1527,138.2939 284.3557,134.9877 282.4463,131.745 280.4267,128.5698 278.2992,125.4658 276.0665,122.4367 273.7311,119.486 271.2958,116.6172 268.7634,113.8337 266.137,111.1388 263.4196,108.5356 260.6145,106.0272 257.7249,103.6166 254.7542,101.3066 251.7061,99.1 248.5839,96.9992 245.3915,95.0069 242.1326,93.1254 238.811,91.3568 235.4307,89.7034 231.9956,88.1669 228.5097,86.7492 224.9773,85.4521 221.4024,84.2769 217.7893,83.2252 214.1422,82.2981 210.4654,81.4968 206.7633,80.8221 203.0402,80.275 199.3006,79.8559 195.5487,79.5655 191.7891,79.4041 188.0262,79.3718 184.2643,79.4687 180.5081,79.6946 176.7617,80.0494 173.0298,80.5326 169.3167,81.1436 165.6267,81.8817 161.9642,82.746 158.3336,83.7356 154.7391,84.8491 151.1849,86.0855 147.6752,87.4431 144.2143,88.9204 140.806,90.5156 137.4546,92.2269 134.1638,94.0522 130.9377,95.9894 127.78,98.0362 124.6943,100.1902 121.6845,102.4489 118.7539,104.8095 115.9061,107.2693 113.1445,109.8255 110.4722,112.475 107.8924,115.2146 105.4082,118.0411 103.0225,120.9513 100.7381,123.9417 98.5577,127.0087 96.4839,130.1487 94.519,133.3581 92.6655,136.6331 90.9256,139.9697 89.3011,143.3641 87.7942,146.8123 86.4065,150.3102 85.1397,153.8536 83.9953,157.4385 82.9746,161.0605 82.0789,164.7154 81.3092,168.3989 80.6663,172.1067 80.1511,175.8343 79.7642,179.5774 79.506,183.3316 79.3768,187.0925 79.3768,190.8556 79.506,194.6164 79.7642,198.3706 80.1511,202.1138 80.6663,205.8414 81.3092,209.5492 82.0789,213.2327 82.9746,216.8876 83.9953,220.5096 85.1397,224.0944 86.4065,227.6379 87.7942,231.1357 89.3011,234.5839 90.9256,237.9783 92.6655,241.315 94.519,244.5899 96.4839,247.7993 98.5577,250.9394 100.7381,254.0064 103.0225,256.9967 105.4082,259.9069 107.8924,262.7335 110.4722,265.4731 113.1445,268.1226 115.9061,270.6787 118.7539,273.1386 121.6845,275.4992 124.6943,277.7579 127.78,279.9119 130.9377,281.9587 134.1638,283.8959 137.4546,285.7212 140.806,287.4325 144.2143,289.0277 147.6752,290.505 151.1849,291.8626 154.7391,293.0989 158.3336,294.2125 161.9642,295.202 165.6267,296.0664 169.3167,296.8045 173.0298,297.4155 176.7617,297.8986 180.5081,298.2534 184.2643,298.4794 188.0262,298.5763 191.7891,298.544 195.5487,298.3825 199.3006,298.0921 203.0402,297.6731 206.7633,297.1259 210.4654,296.4513 214.1422,295.6499 217.7893,294.7229 221.4024,293.6711 224.9773,292.496 228.5097,291.1988 231.9956,289.7812 235.4307,288.2447 238.811,286.5912 242.1326,284.8226 245.3915,282.9411 248.5839,280.9488 251.7061,278.8481 254.7542,276.6414 257.7249,274.3315 260.6145,271.9209 263.4196,269.4125 266.137,266.8093 268.7634,264.1144 271.2958,261.3309 273.7311,258.4621 276.0665,255.5114 278.2992,252.4822 280.4267,249.3782 282.4463,246.203 284.3557,242.9604 286.1527,239.6541 287.8352,236.2881 289.4011,232.8663 290.8486,229.3928 292.176,225.8716 293.3818,222.3069 294.4645,218.703 295.4229,215.064 296.2557,211.3942 296.9621,207.698 297.5412,203.9798 297.9924,200.2439 298.315,196.4946 298.5087,192.7365"/>
  </g>
  <g fill="none" id="layer5" stroke="#640096" stroke-width="0.5">
    <polygon points="272.1166,188.974 272.0317,185.2167 271.777,181.4671 271.3532,177.7328 270.7611,174.0214 270.0019,170.3407 269.0771,166.6979 267.9887,163.1007 266.7388,159.5564 265.3301,156.0721 263.7653,152.6551 262.0477,149.3122 260.1809,146.0504 258.1685,142.8763 256.0148,139.7963 253.7241,136.8169 251.3011,133.9439 248.7508,131.1834 246.0783,128.541 243.2892,126.022 240.389,123.6316 237.3839,121.3747 234.2798,119.256 231.0831,117.2796 227.8004,115.4497 224.4384,113.7701 221.0039,112.244 217.5039,110.8747 213.9457,109.665 210.3364,108.6173 206.6834,107.7337 202.9943,107.0162 199.2765,106.466 195.5377,106.0844 191.7854,105.8722 188.0274,105.8297 184.2712,105.9571 180.5247,106.2541 176.7954,106.7201 173.091,107.3541 169.4191,108.1549 165.787,109.1207 162.2023,110.2498 158.6723,111.5396 155.2042,112.9876 151.8051,114.5909 148.4819,116.3461 145.2414,118.2497 142.0902,120.2978 139.0348,122.4862 136.0814,124.8104 133.236,127.2657 130.5045,129.8471 127.8924,132.5493 125.4051,135.3667 123.0477,138.2937 120.8249,141.3241 118.7413,144.452 116.8012,147.6708 115.0085,150.9739 113.367,154.3547 111.8798,157.8063 110.5502,161.3215 109.3807,164.8932 108.3739,168.5141 107.5317,172.1768 106.8558,175.8738 106.3477,179.5975 106.0084,183.3405 105.8386,187.0949 105.8386,190.8532 106.0084,194.6076 106.3477,198.3505 106.8558,202.0743 107.5317,205.7713 108.3739,209.434 109.3807,213.0549 110.5502,216.6266 111.8798,220.1418 113.367,223.5933 115.0085,226.9741 116.8012,230.2773 118.7413,233.4961 120.8249,236.6239 123.0477,239.6544 125.4051,242.5814 127.8924,245.3988 130.5045,248.101 133.236,250.6823 136.0814,253.1376 139.0348,255.4619 142.0902,257.6502 145.2414,259.6983 148.4819,261.6019 151.8051,263.3572 155.2042,264.9604 158.6723,266.4085 162.2023,267.6983 165.787,268.8273 169.4191,269.7932 173.091,270.5939 176.7954,271.228 180.5247,271.6939 184.2712,271.9909 188.0274,272.1183 191.7854,272.0759 195.5377,271.8636 199.2765,271.482 202.9943,270.9319 206.6834,270.2143 210.3364,269.3308 213.9457,268.2831 217.5039,267.0733 221.0039,265.704 224.4384,264.178 227.8004,262.4983 231.0831,260.6684 234.2798,258.6921 237.3839,256.5733 240.389,254.3164 243.2892,251.9261 246.0783,249.4071 248.7508,246.7646 251.3011,244.0041 253.7241,241.1312 256.0148,238.1517 258.1685,235.0718 260.1809,231.8976 262.0477,228.6358 263.7653,225.293 265.3301,221.8759 266.7388,218.3917 267.9887,214.8473 269.0771,211.2501 270.0019,207.6074 270.7611,203.9266 271.3532,200.2153 271.777,196.481 272.0317,192.7313"/>
  </g>
  <g fill="none" id="layer6" stroke="#00a0c8" stroke-width="0.5">
    <polygon points="245.6599,188.974 245.5359,185.2272 245.1646,181.4967 244.5476,177.7989 243.6875,174.15 242.5881,170.5659 241.2543,167.0623 239.6918,163.6545 237.9075,160.3574 235.9092,157.1855 233.7057,154.1525 231.3065,151.2718 228.7221,148.556 225.964,146.017 223.044,143.6657 219.9751,141.5126 216.7705,139.567 213.4444,137.8375 210.0112,136.3316 206.4861,135.0559 202.8843,134.0159 199.2216,133.2163 195.5141,132.6604 191.778,132.3508 188.0296,132.2889 184.2853,132.4748 180.5615,132.9077 176.8744,133.5858 173.2402,134.5061 169.6748,135.6646 166.1937,137.0562 162.8122,138.6748 159.5451,140.5133 156.4066,142.5638 153.4105,144.8172 150.5699,147.2637 147.8972,149.8926 145.4041,152.6923 143.1014,155.6508 140.9994,158.7549 139.1071,161.9912 137.4328,165.3455 135.9838,168.803 134.7665,172.3488 133.7863,175.9673 133.0473,179.6427 132.5528,183.3588 132.3051,187.0996 132.3051,190.8485 132.5528,194.5892 133.0473,198.3054 133.7863,201.9807 134.7665,205.5992 135.9838,209.145 137.4328,212.6026 139.1071,215.9569 140.9994,219.1931 143.1014,222.2973 145.4041,225.2557 147.8972,228.0555 150.5699,230.6844 153.4105,233.1309 156.4066,235.3843 159.5451,237.4347 162.8122,239.2733 166.1937,240.8919 169.6748,242.2835 173.2402,243.442 176.8744,244.3623 180.5615,245.0404 184.2853,245.4733 188.0296,245.6592 191.778,245.5972 195.5141,245.2876 199.2216,244.7318 202.8843,243.9322 206.4861,242.8922 210.0112,241.6165 213.4444,240.1105 216.7705,238.381 219.9751,236.4354 223.044,234.2823 225.964,231.9311 228.7221,229.392 231.3065,226.6762 233.7057,223.7955 235.9092,220.7626 237.9075,217.5907 239.6918,214.2936 241.2543,210.8858 242.5881,207.3822 243.6875,203.7981 244.5476,200.1492 245.1646,196.4514 245.5359,192.7209"/>
  </g>
  <g fill="none" id="layer7" stroke="#dc6400" stroke-width="0.5">
    <polygon points="219.2032,188.974 218.974,185.2584 218.29,181.599 217.1614,178.0514 215.6055,174.6695 213.6457,171.5043 211.3118,168.604 208.6392,166.0125 205.6684,163.769 202.4444,161.9077 199.0161,160.4566 195.4355,159.4378 191.7568,158.8668 188.0359,158.7521 184.329,159.0956 180.6924,159.8921 177.1813,161.1293 173.8489,162.7887 170.7456,164.845 167.9185,167.2671 165.4105,170.0182 163.2596,173.0567 161.4984,176.3365 160.1536,179.8078 159.2456,183.4181 158.7881,187.1127 158.7881,190.8354 159.2456,194.5299 160.1536,198.1402 161.4984,201.6116 163.2596,204.8913 165.4105,207.9298 167.9185,210.681 170.7456,213.1031 173.8489,215.1594 177.1813,216.8187 180.6924,218.056 184.329,218.8524 188.0359,219.1959 191.7568,219.0813 195.4355,218.5102 199.0161,217.4915 202.4444,216.0404 205.6684,214.179 208.6392,211.9356 211.3118,209.344 213.6457,206.4437 215.6055,203.2786 217.1614,199.8966 218.29,196.3491 218.974,192.6897"/>
  </g>
  <g fill="none" id="layer8" stroke="#b40050" stroke-width="0.5">
    <polygon points="200.3056,188.974 199.6912,185.2924 197.9147,182.0097 195.1686,179.4817 191.7504,177.9824 188.0306,177.6742 184.4123,178.5905 181.2876,180.632 178.995,183.5775 177.783,187.1078 177.783,190.8403 178.995,194.3706 181.2876,197.3161 184.4123,199.3576 188.0306,200.2739 191.7504,199.9657 195.1686,198.4663 197.9147,195.9383 199.6912,192.6557"/>
  </g>
</svg>
