<?xml version="1.0" encoding="utf-8" ?>
<svg xmlns="http://www.w3.org/2000/svg" xmlns:cc="http://creativecommons.org/ns" xmlns:dc="http://purl.org/dc/elements/1.1/" xmlns:ev="http://www.w3.org/2001/xml-events" xmlns:inkscape="http://www.inkscape.org/namespaces/inkscape" xmlns:rdf="http://www.w3.org/1999/02/22-rdf-syntax-ns" xmlns:sodipodi="http://sodipodi.sourceforge.net/DTD/sodipodi-0.dtd" xmlns:xlink="http://www.w3.org/1999/xlink" baseProfile="tiny" height="9.99987567cm" version="1.2" viewBox="0 0 377.9433575349813 377.9480566910331" width="9.99975133cm">
  <metadata>
    <rdf:RDF>
      <cc:Work>
        <dc:format>image/svg+xml</dc:format>
        <dc:source>vpype penset rainbow circle -l 1 0 0 5.0cm circle -l 2 0 0 4.29cm circle -l 3 0 0 3.57cm circle -l 4 0 0 2.86cm circle -l 5 0 0 2.14cm circle -l 6 0 0 1.43cm circle -l 7 0 0 0.71cm colorize write docs/images/rainbow.svg
</dc:source>
        <dc:date>2026-04-02T23:56:30.539729</dc:date>
      </cc:Work>
    </rdf:RDF>
  </metadata>
  <defs/>
  <g fill="none" id="layer1" inkscape:groupmode="layer" inkscape:label="1" stroke="#ff0000" style="display:inline">
    <polygon points="377.9434,188.974 377.9058,185.2048 377.793,181.4371 377.6051,177.6725 377.3422,173.9123 377.0043,170.1581 376.5916,166.4113 376.1043,162.6736 375.5425,158.9463 374.9064,155.231 374.1964,151.5291 373.4127,147.8421 372.5556,144.1714 371.6255,140.5186 370.6227,136.8851 369.5477,133.2723 368.4008,129.6816 367.1825,126.1145 365.8933,122.5725 364.5337,119.0568 363.1042,115.569 361.6055,112.1104 360.0381,108.6824 358.4026,105.2863 356.6997,101.9235 354.9301,98.5953 353.0945,95.3031 351.1935,92.0482 349.228,88.8318 347.1988,85.6553 345.1066,82.5198 342.9523,79.4268 340.7367,76.3773 338.4607,73.3726 336.1253,70.4139 333.7313,67.5024 331.2797,64.6392 328.7715,61.8254 326.2077,59.0623 323.5892,56.3508 320.9172,53.6921 318.1928,51.0872 315.4169,48.5372 312.5906,46.0431 309.7153,43.6058 306.7918,41.2263 303.8215,38.9057 300.8055,36.6447 297.745,34.4444 294.6412,32.3055 291.4954,30.229 288.3088,28.2156 285.0827,26.2662 281.8183,24.3815 278.517,22.5623 275.18,20.8093 271.8088,19.1232 268.4046,17.5047 264.9688,15.9544 261.5027,14.4729 258.0078,13.0609 254.4854,11.7188 250.937,10.4473 247.3639,9.2468 243.7676,8.1178 240.1494,7.0608 236.5109,6.0761 232.8535,5.1642 229.1787,4.3255 225.4878,3.5602 221.7824,2.8686 218.0639,2.2511 214.3339,1.7079 210.5938,1.2392 206.845,0.8452 203.0892,0.5261 199.3277,0.2819 195.5622,0.1128 191.794,0.0188 188.0246,0.0 184.2557,0.0564 180.4886,0.1879 176.7249,0.3946 172.966,0.6763 169.2136,1.0329 165.469,1.4643 161.7337,1.9702 158.0093,2.5506 154.2972,3.2052 150.5988,3.9336 146.9158,4.7357 143.2495,5.6111 139.6013,6.5594 135.9728,7.5803 132.3654,8.6734 128.7805,9.8382 125.2196,11.0742 121.684,12.3811 118.1752,13.7582 114.6945,15.205 111.2434,16.721 107.8233,18.3054 104.4354,19.9578 101.0811,21.6775 97.7618,23.4636 94.4788,25.3157 91.2334,27.2328 88.0268,29.2143 84.8605,31.2594 81.7355,33.3672 78.6532,35.5369 75.6148,37.7677 72.6215,40.0586 69.6745,42.4088 66.7749,44.8173 63.924,47.2831 61.1228,49.8053 58.3725,52.3829 55.6741,55.0148 53.0287,57.7 50.4375,60.4374 47.9013,63.226 45.4213,66.0646 42.9984,68.9522 40.6336,71.8874 38.3278,74.8693 36.0819,77.8965 33.8968,80.9679 31.7735,84.0823 29.7126,87.2385 27.7152,90.4351 25.7818,93.6709 23.9135,96.9446 22.1107,100.255 20.3744,103.6006 18.7051,106.9803 17.1036,110.3925 15.5705,113.836 14.1063,117.3094 12.7117,120.8113 11.3873,124.3403 10.1335,127.895 8.9508,131.4741 7.8398,135.076 6.8008,138.6993 5.8343,142.3427 4.9406,146.0046 4.1202,149.6836 3.3733,153.3783 2.7003,157.0871 2.1013,160.8086 1.5767,164.5413 1.1267,168.2837 0.7514,172.0343 0.4509,175.7917 0.2255,179.5543 0.0752,183.3207 0.0,187.0893 0.0,190.8587 0.0752,194.6273 0.2255,198.3937 0.4509,202.1564 0.7514,205.9137 1.1267,209.6644 1.5767,213.4068 2.1013,217.1395 2.7003,220.861 3.3733,224.5698 4.1202,228.2644 4.9406,231.9434 5.8343,235.6053 6.8008,239.2487 7.8398,242.8721 8.9508,246.474 10.1335,250.053 11.3873,253.6078 12.7117,257.1368 14.1063,260.6387 15.5705,264.1121 17.1036,267.5556 18.7051,270.9678 20.3744,274.3474 22.1107,277.6931 23.9135,281.0034 25.7818,284.2771 27.7152,287.513 29.7126,290.7096 31.7735,293.8657 33.8968,296.9801 36.0819,300.0516 38.3278,303.0788 40.6336,306.0606 42.9984,308.9959 45.4213,311.8834 47.9013,314.722 50.4375,317.5106 53.0287,320.2481 55.6741,322.9333 58.3725,325.5652 61.1228,328.1428 63.924,330.665 66.7749,333.1308 69.6745,335.5393 72.6215,337.8894 75.6148,340.1804 78.6532,342.4111 81.7355,344.5808 84.8605,346.6887 88.0268,348.7337 91.2334,350.7152 94.4788,352.6324 97.7618,354.4844 101.0811,356.2706 104.4354,357.9902 107.8233,359.6426 111.2434,361.2271 114.6945,362.7431 118.1752,364.1899 121.684,365.567 125.2196,366.8738 128.7805,368.1099 132.3654,369.2747 135.9728,370.3678 139.6013,371.3887 143.2495,372.337 146.9158,373.2124 150.5988,374.0144 154.2972,374.7429 158.0093,375.3974 161.7337,375.9778 165.469,376.4838 169.2136,376.9152 172.966,377.2718 176.7249,377.5535 180.4886,377.7601 184.2557,377.8917 188.0246,377.9481 191.794,377.9293 195.5622,377.8353 199.3277,377.6662 203.0892,377.422 206.845,377.1028 210.5938,376.7088 214.3339,376.2401 218.0639,375.6969 221.7824,375.0794 225.4878,374.3879 229.1787,373.6226 232.8535,372.7838 236.5109,371.8719 240.1494,370.8873 243.7676,369.8302 247.3639,368.7012 250.937,367.5007 254.4854,366.2292 258.0078,364.8872 261.5027,363.4751 264.9688,361.9937 268.4046,360.4434 271.8088,358.8249 275.18,357.1388 278.517,355.3858 281.8183,353.5666 285.0827,351.6819 288.3088,349.7325 291.4954,347.7191 294.6412,345.6425 297.745,343.5037 300.8055,341.3033 303.8215,339.0424 306.7918,336.7217 309.7153,334.3423 312.5906,331.905 315.4169,329.4108 318.1928,326.8608 320.9172,324.256 323.5892,321.5973 326.2077,318.8858 328.7715,316.1226 331.2797,313.3089 333.7313,310.4457 336.1253,307.5342 338.4607,304.5755 340.7367,301.5708 342.9523,298.5213 345.1066,295.4282 347.1988,292.2928 349.228,289.1163 351.1935,285.8999 353.0945,282.6449 354.9301,279.3527 356.6997,276.0246 358.4026,272.6618 360.0381,269.2657 361.6055,265.8376 363.1042,262.379 364.5337,258.8912 365.8933,255.3756 367.1825,251.8335 368.4008,248.2664 369.5477,244.6758 370.6227,241.063 371.6255,237.4294 372.5556,233.7766 373.4127,230.106 374.1964,226.419 374.9064,222.7171 375.5425,219.0017 376.1043,215.2745 376.5916,211.5367 377.0043,207.79 377.3422,204.0358 377.6051,200.2756 377.793,196.5109 377.9058,192.7432"/>
  </g>
  <g fill="none" id="layer2" inkscape:groupmode="layer" inkscape:label="2" stroke="#ff7f00" style="display:inline">
    <polygon points="351.1087,188.974 351.0648,185.2012 350.9331,181.4303 350.7137,177.6636 350.4068,173.903 350.0124,170.1505 349.5308,166.4083 348.9622,162.6782 348.307,158.9624 347.5655,155.2629 346.7382,151.5816 345.8254,147.9205 344.8276,144.2817 343.7455,140.6671 342.5795,137.0786 341.3304,133.5183 339.9987,129.988 338.5853,126.4896 337.0908,123.025 335.5162,119.5962 333.8621,116.205 332.1296,112.8531 330.3196,109.5425 328.4331,106.2748 326.471,103.052 324.4344,99.8757 322.3245,96.7476 320.1424,93.6695 317.8892,90.643 315.5663,87.6697 313.1748,84.7513 310.716,81.8894 308.1913,79.0854 305.602,76.3409 302.9495,73.6574 300.2354,71.0364 297.461,68.4792 294.6278,65.9873 291.7374,63.562 288.7914,61.2046 285.7913,58.9164 282.7388,56.6986 279.6355,54.5524 276.4831,52.4791 273.2833,50.4796 270.0378,48.5552 266.7485,46.7068 263.417,44.9354 260.0452,43.242 256.635,41.6275 253.188,40.0929 249.7063,38.6388 246.1918,37.2662 242.6462,35.9757 239.0715,34.7681 235.4698,33.6439 231.8428,32.6039 228.1926,31.6486 224.5212,30.7785 220.8305,29.994 217.1226,29.2956 213.3994,28.6837 209.663,28.1586 205.9154,27.7205 202.1586,27.3698 198.3947,27.1066 194.6256,26.9311 190.8535,26.8433 187.0804,26.8433 183.3083,26.9311 179.5393,27.1066 175.7753,27.3698 172.0186,27.7205 168.2709,28.1586 164.5345,28.6837 160.8114,29.2956 157.1034,29.994 153.4128,30.7785 149.7413,31.6486 146.0912,32.6039 142.4642,33.6439 138.8624,34.7681 135.2878,35.9757 131.7422,37.2662 128.2276,38.6388 124.7459,40.0929 121.299,41.6275 117.8887,43.242 114.5169,44.9354 111.1855,46.7068 107.8961,48.5552 104.6507,50.4796 101.4509,52.4791 98.2985,54.5524 95.1952,56.6986 92.1427,58.9164 89.1426,61.2046 86.1965,63.562 83.3061,65.9873 80.473,68.4792 77.6986,71.0364 74.9844,73.6574 72.332,76.3409 69.7427,79.0854 67.218,81.8894 64.7592,84.7513 62.3677,87.6697 60.0447,90.643 57.7916,93.6695 55.6094,96.7476 53.4995,99.8757 51.463,103.052 49.5009,106.2748 47.6143,109.5425 45.8043,112.8531 44.0718,116.205 42.4178,119.5962 40.8431,123.025 39.3487,126.4896 37.9352,129.988 36.6036,133.5183 35.3544,137.0786 34.1885,140.6671 33.1063,144.2817 32.1086,147.9205 31.1958,151.5816 30.3684,155.2629 29.627,158.9624 28.9718,162.6782 28.4032,166.4083 27.9216,170.1505 27.5272,173.903 27.2202,177.6636 27.0008,181.4303 26.8691,185.2012 26.8252,188.974 26.8691,192.7469 27.0008,196.5177 27.2202,200.2845 27.5272,204.0451 27.9216,207.7975 28.4032,211.5398 28.9718,215.2698 29.627,218.9856 30.3684,222.6852 31.1958,226.3665 32.1086,230.0275 33.1063,233.6663 34.1885,237.281 35.3544,240.8694 36.6036,244.4298 37.9352,247.9601 39.3487,251.4585 40.8431,254.923 42.4178,258.3518 44.0718,261.7431 45.8043,265.095 47.6143,268.4056 49.5009,271.6732 51.463,274.8961 53.4995,278.0724 55.6094,281.2004 57.7916,284.2785 60.0447,287.3051 62.3677,290.2783 64.7592,293.1967 67.218,296.0587 69.7427,298.8627 72.332,301.6071 74.9844,304.2906 77.6986,306.9117 80.473,309.4688 83.3061,311.9607 86.1965,314.3861 89.1426,316.7435 92.1427,319.0317 95.1952,321.2495 98.2985,323.3956 101.4509,325.469 104.6507,327.4684 107.8961,329.3929 111.1855,331.2413 114.5169,333.0127 117.8887,334.7061 121.299,336.3205 124.7459,337.8552 128.2276,339.3092 131.7422,340.6819 135.2878,341.9723 138.8624,343.18 142.4642,344.3041 146.0912,345.3441 149.7413,346.2995 153.4128,347.1696 157.1034,347.9541 160.8114,348.6525 164.5345,349.2644 168.2709,349.7895 172.0186,350.2275 175.7753,350.5782 179.5393,350.8414 183.3083,351.017 187.0804,351.1048 190.8535,351.1048 194.6256,351.017 198.3947,350.8414 202.1586,350.5782 205.9154,350.2275 209.663,349.7895 213.3994,349.2644 217.1226,348.6525 220.8305,347.9541 224.5212,347.1696 228.1926,346.2995 231.8428,345.3441 235.4698,344.3041 239.0715,343.18 242.6462,341.9723 246.1918,340.6819 249.7063,339.3092 253.188,337.8552 256.635,336.3205 260.0452,334.7061 263.417,333.0127 266.7485,331.2413 270.0378,329.3929 273.2833,327.4684 276.4831,325.469 279.6355,323.3956 282.7388,321.2495 285.7913,319.0317 288.7914,316.7435 291.7374,314.3861 294.6278,311.9607 297.461,309.4688 300.2354,306.9117 302.9495,304.2906 305.602,301.6071 308.1913,298.8627 310.716,296.0587 313.1748,293.1967 315.5663,290.2783 317.8892,287.3051 320.1424,284.2785 322.3245,281.2004 324.4344,278.0724 326.471,274.8961 328.4331,271.6732 330.3196,268.4056 332.1296,265.095 333.8621,261.7431 335.5162,258.3518 337.0908,254.923 338.5853,251.4585 339.9987,247.9601 341.3304,244.4298 342.5795,240.8694 343.7455,237.281 344.8276,233.6663 345.8254,230.0275 346.7382,226.3665 347.5655,222.6852 348.307,218.9856 348.9622,215.2698 349.5308,211.5398 350.0124,207.7975 350.4068,204.0451 350.7137,200.2845 350.9331,196.5177 351.0648,192.7469"/>
  </g>
  <g fill="none" id="layer3" inkscape:groupmode="layer" inkscape:label="3" stroke="#ffff00" style="display:inline">
    <polygon points="323.8961,188.974 323.8435,185.2066 323.6857,181.4421 323.4229,177.6834 323.0552,173.9336 322.583,170.1955 322.0066,166.4721 321.3264,162.7662 320.543,159.0807 319.6571,155.4185 318.6692,151.7825 317.5802,148.1755 316.3909,144.6003 315.1022,141.0598 313.7152,137.5565 312.2309,134.0934 310.6505,130.6731 308.9752,127.2982 307.2063,123.9714 305.3452,120.6953 303.3934,117.4725 301.3523,114.3054 299.2236,111.1965 297.009,108.1483 294.7101,105.1631 292.3287,102.2433 289.8667,99.391 287.3261,96.6087 284.7087,93.8983 282.0167,91.2621 279.2522,88.7021 276.4172,86.2203 273.5141,83.8186 270.545,81.4989 267.5123,79.263 264.4184,77.1127 261.2656,75.0496 258.0565,73.0753 254.7935,71.1914 251.4791,69.3993 248.116,67.7005 244.7068,66.0963 241.2541,64.5878 237.7607,63.1764 234.2292,61.863 230.6624,60.6488 227.0631,59.5346 223.4341,58.5214 219.7782,57.6099 216.0982,56.8008 212.3972,56.0948 208.6778,55.4924 204.9431,54.9941 201.196,54.6002 197.4392,54.3111 193.6759,54.1271 189.909,54.0482 186.1412,54.0745 182.3757,54.206 178.6153,54.4426 174.863,54.7841 171.1217,55.2302 167.3943,55.7806 163.6838,56.4349 159.9929,57.1925 156.3247,58.0529 152.6819,59.0153 149.0673,60.0791 145.4839,61.2435 141.9345,62.5074 138.4216,63.8699 134.9482,65.33 131.5169,66.8865 128.1305,68.5382 124.7914,70.2838 121.5024,72.122 118.266,74.0513 115.0847,76.0701 111.9611,78.1771 108.8975,80.3704 105.8963,82.6484 102.9599,85.0093 100.0906,87.4513 97.2906,89.9725 94.562,92.5708 91.9071,95.2444 89.3278,97.991 86.8263,100.8086 84.4044,103.6949 82.064,106.6477 79.807,109.6647 77.6351,112.7435 75.5501,115.8818 73.5534,119.0771 71.6468,122.3269 69.8316,125.6286 68.1094,128.9798 66.4814,132.3777 64.9488,135.8198 63.513,139.3033 62.1751,142.8255 60.936,146.3838 59.7967,149.9752 58.7581,153.5971 57.8211,157.2465 56.9864,160.9207 56.2545,164.6167 55.6262,168.3318 55.1018,172.0629 54.6818,175.8073 54.3665,179.5618 54.1562,183.3238 54.051,187.0901 54.051,190.8579 54.1562,194.6243 54.3665,198.3862 54.6818,202.1408 55.1018,205.8851 55.6262,209.6163 56.2545,213.3313 56.9864,217.0274 57.8211,220.7016 58.7581,224.351 59.7967,227.9728 60.936,231.5643 62.1751,235.1225 63.513,238.6448 64.9488,242.1283 66.4814,245.5703 68.1094,248.9683 69.8316,252.3194 71.6468,255.6212 73.5534,258.871 75.5501,262.0662 77.6351,265.2045 79.807,268.2834 82.064,271.3004 84.4044,274.2532 86.8263,277.1395 89.3278,279.9571 91.9071,282.7037 94.562,285.3772 97.2906,287.9756 100.0906,290.4967 102.9599,292.9387 105.8963,295.2996 108.8975,297.5777 111.9611,299.771 115.0847,301.8779 118.266,303.8968 121.5024,305.8261 124.7914,307.6642 128.1305,309.4099 131.5169,311.0616 134.9482,312.6181 138.4216,314.0781 141.9345,315.4407 145.4839,316.7046 149.0673,317.8689 152.6819,318.9327 156.3247,319.8952 159.9929,320.7556 163.6838,321.5132 167.3943,322.1675 171.1217,322.7179 174.863,323.164 178.6153,323.5055 182.3757,323.7421 186.1412,323.8736 189.909,323.8999 193.6759,323.821 197.4392,323.6369 201.196,323.3478 204.9431,322.954 208.6778,322.4557 212.3972,321.8533 216.0982,321.1473 219.7782,320.3382 223.4341,319.4267 227.0631,318.4134 230.6624,317.2993 234.2292,316.085 237.7607,314.7717 241.2541,313.3602 244.7068,311.8518 248.116,310.2475 251.4791,308.5487 254.7935,306.7566 258.0565,304.8727 261.2656,302.8985 264.4184,300.8353 267.5123,298.685 270.545,296.4491 273.5141,294.1294 276.4172,291.7277 279.2522,289.2459 282.0167,286.6859 284.7087,284.0497 287.3261,281.3394 289.8667,278.557 292.3287,275.7048 294.7101,272.785 297.009,269.7998 299.2236,266.7515 301.3523,263.6427 303.3934,260.4756 305.3452,257.2527 307.2063,253.9766 308.9752,250.6499 310.6505,247.275 312.2309,243.8547 313.7152,240.3915 315.1022,236.8883 316.3909,233.3477 317.5802,229.7725 318.6692,226.1655 319.6571,222.5295 320.543,218.8674 321.3264,215.1819 322.0066,211.476 322.583,207.7525 323.0552,204.0144 323.4229,200.2646 323.6857,196.506 323.8435,192.7415"/>
  </g>
  <g fill="none" id="layer4" inkscape:groupmode="layer" inkscape:label="4" stroke="#00c800" style="display:inline">
    <polygon points="297.0615,188.974 296.9956,185.2016 296.7982,181.4337 296.4693,177.6751 296.0095,173.9302 295.4193,170.2036 294.6993,166.4999 293.8506,162.8236 292.8741,159.1791 291.7709,155.571 290.5426,152.0035 289.1904,148.4811 287.7162,145.008 286.1217,141.5885 284.4087,138.2267 282.5796,134.9268 280.6363,131.6927 278.5814,128.5284 276.4173,125.4377 274.1466,122.4244 271.7722,119.4922 269.2968,116.6447 266.7236,113.8853 264.0557,111.2174 261.2963,108.6442 258.4488,106.1688 255.5166,103.7944 252.5033,101.5238 249.4127,99.3596 246.2483,97.3047 243.0142,95.3615 239.7143,93.5323 236.3525,91.8193 232.933,90.2248 229.4599,88.7506 225.9375,87.3984 222.37,86.1701 218.7619,85.0669 215.1174,84.0904 211.4411,83.2417 207.7374,82.5217 204.0108,81.9315 200.2659,81.4717 196.5073,81.1429 192.7394,80.9454 188.967,80.8795 185.1945,80.9454 181.4267,81.1429 177.668,81.4717 173.9231,81.9315 170.1966,82.5217 166.4929,83.2417 162.8166,84.0904 159.1721,85.0669 155.5639,86.1701 151.9965,87.3984 148.4741,88.7506 145.001,90.2248 141.5815,91.8193 138.2197,93.5323 134.9197,95.3615 131.6856,97.3047 128.5213,99.3596 125.4306,101.5238 122.4174,103.7944 119.4852,106.1688 116.6376,108.6442 113.8782,111.2174 111.2103,113.8853 108.6371,116.6447 106.1618,119.4922 103.7874,122.4244 101.5167,125.4377 99.3526,128.5284 97.2977,131.6927 95.3544,134.9268 93.5252,138.2267 91.8123,141.5885 90.2178,145.008 88.7435,148.4811 87.3914,152.0035 86.163,155.571 85.0599,159.1791 84.0834,162.8236 83.2346,166.4999 82.5147,170.2036 81.9245,173.9302 81.4646,177.6751 81.1358,181.4337 80.9383,185.2016 80.8725,188.974 80.9383,192.7465 81.1358,196.5143 81.4646,200.273 81.9245,204.0179 82.5147,207.7444 83.2346,211.4481 84.0834,215.1245 85.0599,218.7689 86.163,222.3771 87.3914,225.9445 88.7435,229.4669 90.2178,232.94 91.8123,236.3595 93.5252,239.7213 95.3544,243.0213 97.2977,246.2554 99.3526,249.4197 101.5167,252.5104 103.7874,255.5236 106.1618,258.4558 108.6371,261.3034 111.2103,264.0628 113.8782,266.7307 116.6376,269.3039 119.4852,271.7792 122.4174,274.1536 125.4306,276.4243 128.5213,278.5884 131.6856,280.6434 134.9197,282.5866 138.2197,284.4158 141.5815,286.1287 145.001,287.7233 148.4741,289.1975 151.9965,290.5496 155.5639,291.778 159.1721,292.8811 162.8166,293.8576 166.4929,294.7064 170.1966,295.4263 173.9231,296.0165 177.668,296.4764 181.4267,296.8052 185.1945,297.0027 188.967,297.0685 192.7394,297.0027 196.5073,296.8052 200.2659,296.4764 204.0108,296.0165 207.7374,295.4263 211.4411,294.7064 215.1174,293.8576 218.7619,292.8811 222.37,291.778 225.9375,290.5496 229.4599,289.1975 232.933,287.7233 236.3525,286.1287 239.7143,284.4158 243.0142,282.5866 246.2483,280.6434 249.4127,278.5884 252.5033,276.4243 255.5166,274.1536 258.4488,271.7792 261.2963,269.3039 264.0557,266.7307 266.7236,264.0628 269.2968,261.3034 271.7722,258.4558 274.1466,255.5236 276.4173,252.5104 278.5814,249.4197 280.6363,246.2554 282.5796,243.0213 284.4087,239.7213 286.1217,236.3595 287.7162,232.94 289.1904,229.4669 290.5426,225.9445 291.7709,222.3771 292.8741,218.7689 293.8506,215.1245 294.6993,211.4481 295.4193,207.7444 296.0095,204.0179 296.4693,200.273 296.7982,196.5143 296.9956,192.7465"/>
  </g>
  <g fill="none" id="layer5" inkscape:groupmode="layer" inkscape:label="5" stroke="#0064ff" style="display:inline">
    <polygon points="269.8489,188.974 269.7613,185.211 269.4987,181.4561 269.0617,177.7174 268.4513,174.0032 267.6687,170.3214 266.7156,166.68 265.5942,163.0868 264.3068,159.5497 262.8563,156.0764 261.2457,152.6743 259.4786,149.3508 257.5587,146.1132 255.4903,142.9683 253.2779,139.9231 250.9261,136.9842 248.4402,134.1578 245.8254,131.4501 243.0875,128.8671 240.2324,126.4142 237.2663,124.0968 234.1956,121.9199 231.0269,119.8882 227.7671,118.0062 224.4233,116.2779 221.0027,114.707 217.5127,113.2969 213.9609,112.0508 210.3549,110.9712 206.7026,110.0606 203.012,109.3209 199.2909,108.7537 195.5474,108.3603 191.7897,108.1414 188.0259,108.0976 184.2641,108.229 180.5125,108.5352 176.7792,109.0157 173.0723,109.6693 169.3999,110.4947 165.7698,111.49 162.1899,112.6532 158.6681,113.9816 155.2119,115.4725 151.8287,117.1226 148.526,118.9283 145.3109,120.8856 142.1904,122.9905 139.1711,125.2382 136.2597,127.624 133.4625,130.1427 130.7854,132.7887 128.2344,135.5565 125.8149,138.44 123.5322,141.4328 121.3911,144.5287 119.3965,147.7208 117.5525,151.0023 115.8632,154.366 114.3322,157.8046 112.9629,161.3108 111.7581,164.8769 110.7206,168.4951 109.8526,172.1577 109.1558,175.8568 108.632,179.5842 108.2821,183.332 108.107,187.092 108.107,190.8561 108.2821,194.6161 108.632,198.3638 109.1558,202.0913 109.8526,205.7903 110.7206,209.4529 111.7581,213.0712 112.9629,216.6373 114.3322,220.1434 115.8632,223.5821 117.5525,226.9458 119.3965,230.2272 121.3911,233.4194 123.5322,236.5152 125.8149,239.5081 128.2344,242.3916 130.7854,245.1593 133.4625,247.8054 136.2597,250.324 139.1711,252.7098 142.1904,254.9576 145.3109,257.0624 148.526,259.0198 151.8287,260.8255 155.2119,262.4755 158.6681,263.9664 162.1899,265.2949 165.7698,266.458 169.3999,267.4534 173.0723,268.2788 176.7792,268.9324 180.5125,269.4128 184.2641,269.7191 188.0259,269.8504 191.7897,269.8066 195.5474,269.5878 199.2909,269.1943 203.012,268.6271 206.7026,267.8874 210.3549,266.9768 213.9609,265.8973 217.5127,264.6511 221.0027,263.2411 224.4233,261.6702 227.7671,259.9419 231.0269,258.0598 234.1956,256.0282 237.2663,253.8513 240.2324,251.5339 243.0875,249.081 245.8254,246.4979 248.4402,243.7903 250.9261,240.9639 253.2779,238.0249 255.4903,234.9797 257.5587,231.8349 259.4786,228.5972 261.2457,225.2738 262.8563,221.8717 264.3068,218.3983 265.5942,214.8612 266.7156,211.2681 267.6687,207.6267 268.4513,203.9449 269.0617,200.2306 269.4987,196.492 269.7613,192.7371"/>
  </g>
  <g fill="none" id="layer6" inkscape:groupmode="layer" inkscape:label="6" stroke="#4b0082" style="display:inline">
    <polygon points="243.0142,188.974 242.8826,185.2039 242.4882,181.4521 241.8332,177.737 240.9205,174.0766 239.7548,170.4888 238.3416,166.991 236.6879,163.6004 234.8016,160.3334 232.6921,157.2059 230.3696,154.2331 227.8453,151.4297 225.1316,148.8091 222.2418,146.3842 219.1898,144.1668 215.9906,142.1677 212.6597,140.3967 209.2134,138.8623 205.6685,137.572 202.0422,136.5322 198.3522,135.7479 194.6165,135.2229 190.8532,134.9597 187.0808,134.9597 183.3175,135.2229 179.5818,135.7479 175.8918,136.5322 172.2655,137.572 168.7205,138.8623 165.2742,140.3967 161.9434,142.1677 158.7441,144.1668 155.6922,146.3842 152.8023,148.8091 150.0886,151.4297 147.5644,154.2331 145.2418,157.2059 143.1323,160.3334 141.2461,163.6004 139.5924,166.991 138.1792,170.4888 137.0134,174.0766 136.1008,177.737 135.4457,181.4521 135.0514,185.2039 134.9197,188.974 135.0514,192.7442 135.4457,196.496 136.1008,200.2111 137.0134,203.8715 138.1792,207.4593 139.5924,210.957 141.2461,214.3477 143.1323,217.6147 145.2418,220.7422 147.5644,223.7149 150.0886,226.5184 152.8023,229.139 155.6922,231.5638 158.7441,233.7812 161.9434,235.7803 165.2742,237.5514 168.7205,239.0858 172.2655,240.376 175.8918,241.4158 179.5818,242.2002 183.3175,242.7252 187.0808,242.9883 190.8532,242.9883 194.6165,242.7252 198.3522,242.2002 202.0422,241.4158 205.6685,240.376 209.2134,239.0858 212.6597,237.5514 215.9906,235.7803 219.1898,233.7812 222.2418,231.5638 225.1316,229.139 227.8453,226.5184 230.3696,223.7149 232.6921,220.7422 234.8016,217.6147 236.6879,214.3477 238.3416,210.957 239.7548,207.4593 240.9205,203.8715 241.8332,200.2111 242.4882,196.496 242.8826,192.7442"/>
  </g>
  <g fill="none" id="layer7" inkscape:groupmode="layer" inkscape:label="7" stroke="#9400d3" style="display:inline">
    <polygon points="215.8016,188.974 215.5405,185.2394 214.7621,181.5774 213.4816,178.0594 211.724,174.7538 209.5235,171.7251 206.9229,169.032 203.9727,166.7271 200.7305,164.8552 197.2593,163.4528 193.6268,162.5471 189.9035,162.1557 186.162,162.2864 182.4751,162.9365 178.9145,164.0934 175.5497,165.7345 172.4459,167.828 169.6638,170.3331 167.2573,173.201 165.2734,176.3759 163.7507,179.796 162.7187,183.3948 162.1977,187.1021 162.1977,190.8459 162.7187,194.5533 163.7507,198.152 165.2734,201.5721 167.2573,204.747 169.6638,207.6149 172.4459,210.12 175.5497,212.2135 178.9145,213.8547 182.4751,215.0116 186.162,215.6617 189.9035,215.7923 193.6268,215.401 197.2593,214.4953 200.7305,213.0928 203.9727,211.221 206.9229,208.9161 209.5235,206.223 211.724,203.1942 213.4816,199.8887 214.7621,196.3707 215.5405,192.7087"/>
  </g>
</svg>
