<?xml version="1.0" encoding="utf-8" ?>
<svg xmlns="http://www.w3.org/2000/svg" xmlns:cc="http://creativecommons.org/ns" xmlns:dc="http://purl.org/dc/elements/1.1/" xmlns:ev="http://www.w3.org/2001/xml-events" xmlns:inkscape="http://www.inkscape.org/namespaces/inkscape" xmlns:rdf="http://www.w3.org/1999/02/22-rdf-syntax-ns" xmlns:sodipodi="http://sodipodi.sourceforge.net/DTD/sodipodi-0.dtd" xmlns:xlink="http://www.w3.org/1999/xlink" baseProfile="tiny" height="9.99987567cm" version="1.2" viewBox="0 0 377.9433575349813 377.9480566910331" width="9.99975133cm">
  <metadata>
    <rdf:RDF>
      <cc:Work>
        <dc:format>image/svg+xml</dc:format>
        <dc:source>vpype penset stabilo88 circle -l 1 0 0 5.0cm circle -l 2 0 0 4.38cm circle -l 3 0 0 3.75cm circle -l 4 0 0 3.12cm circle -l 5 0 0 2.5cm circle -l 6 0 0 1.88cm circle -l 7 0 0 1.25cm circle -l 8 0 0 0.62cm colorize write docs/images/stabilo88.svg
</dc:source>
        <dc:date>2026-04-05T15:21:25.007318</dc:date>
      </cc:Work>
    </rdf:RDF>
  </metadata>
  <defs/>
  <g fill="none" id="layer1" inkscape:groupmode="layer" inkscape:label="1" stroke="#000000" stroke-width="0.4" style="display:inline">
    <polygon points="377.9434,188.974 377.9058,185.2048 377.793,181.4371 377.6051,177.6725 377.3422,173.9123 377.0043,170.1581 376.5916,166.4113 376.1043,162.6736 375.5425,158.9463 374.9064,155.231 374.1964,151.5291 373.4127,147.8421 372.5556,144.1714 371.6255,140.5186 370.6227,136.8851 369.5477,133.2723 368.4008,129.6816 367.1825,126.1145 365.8933,122.5725 364.5337,119.0568 363.1042,115.569 361.6055,112.1104 360.0381,108.6824 358.4026,105.2863 356.6997,101.9235 354.9301,98.5953 353.0945,95.3031 351.1935,92.0482 349.228,88.8318 347.1988,85.6553 345.1066,82.5198 342.9523,79.4268 340.7367,76.3773 338.4607,73.3726 336.1253,70.4139 333.7313,67.5024 331.2797,64.6392 328.7715,61.8254 326.2077,59.0623 323.5892,56.3508 320.9172,53.6921 318.1928,51.0872 315.4169,48.5372 312.5906,46.0431 309.7153,43.6058 306.7918,41.2263 303.8215,38.9057 300.8055,36.6447 297.745,34.4444 294.6412,32.3055 291.4954,30.229 288.3088,28.2156 285.0827,26.2662 281.8183,24.3815 278.517,22.5623 275.18,20.8093 271.8088,19.1232 268.4046,17.5047 264.9688,15.9544 261.5027,14.4729 258.0078,13.0609 254.4854,11.7188 250.937,10.4473 247.3639,9.2468 243.7676,8.1178 240.1494,7.0608 236.5109,6.0761 232.8535,5.1642 229.1787,4.3255 225.4878,3.5602 221.7824,2.8686 218.0639,2.2511 214.3339,1.7079 210.5938,1.2392 206.845,0.8452 203.0892,0.5261 199.3277,0.2819 195.5622,0.1128 191.794,0.0188 188.0246,0.0 184.2557,0.0564 180.4886,0.1879 176.7249,0.3946 172.966,0.6763 169.2136,1.0329 165.469,1.4643 161.7337,1.9702 158.0093,2.5506 154.2972,3.2052 150.5988,3.9336 146.9158,4.7357 143.2495,5.6111 139.6013,6.5594 135.9728,7.5803 132.3654,8.6734 128.7805,9.8382 125.2196,11.0742 121.684,12.3811 118.1752,13.7582 114.6945,15.205 111.2434,16.721 107.8233,18.3054 104.4354,19.9578 101.0811,21.6775 97.7618,23.4636 94.4788,25.3157 91.2334,27.2328 88.0268,29.2143 84.8605,31.2594 81.7355,33.3672 78.6532,35.5369 75.6148,37.7677 72.6215,40.0586 69.6745,42.4088 66.7749,44.8173 63.924,47.2831 61.1228,49.8053 58.3725,52.3829 55.6741,55.0148 53.0287,57.7 50.4375,60.4374 47.9013,63.226 45.4213,66.0646 42.9984,68.9522 40.6336,71.8874 38.3278,74.8693 36.0819,77.8965 33.8968,80.9679 31.7735,84.0823 29.7126,87.2385 27.7152,90.4351 25.7818,93.6709 23.9135,96.9446 22.1107,100.255 20.3744,103.6006 18.7051,106.9803 17.1036,110.3925 15.5705,113.836 14.1063,117.3094 12.7117,120.8113 11.3873,124.3403 10.1335,127.895 8.9508,131.4741 7.8398,135.076 6.8008,138.6993 5.8343,142.3427 4.9406,146.0046 4.1202,149.6836 3.3733,153.3783 2.7003,157.0871 2.1013,160.8086 1.5767,164.5413 1.1267,168.2837 0.7514,172.0343 0.4509,175.7917 0.2255,179.5543 0.0752,183.3207 0.0,187.0893 0.0,190.8587 0.0752,194.6273 0.2255,198.3937 0.4509,202.1564 0.7514,205.9137 1.1267,209.6644 1.5767,213.4068 2.1013,217.1395 2.7003,220.861 3.3733,224.5698 4.1202,228.2644 4.9406,231.9434 5.8343,235.6053 6.8008,239.2487 7.8398,242.8721 8.9508,246.474 10.1335,250.053 11.3873,253.6078 12.7117,257.1368 14.1063,260.6387 15.5705,264.1121 17.1036,267.5556 18.7051,270.9678 20.3744,274.3474 22.1107,277.6931 23.9135,281.0034 25.7818,284.2771 27.7152,287.513 29.7126,290.7096 31.7735,293.8657 33.8968,296.9801 36.0819,300.0516 38.3278,303.0788 40.6336,306.0606 42.9984,308.9959 45.4213,311.8834 47.9013,314.722 50.4375,317.5106 53.0287,320.2481 55.6741,322.9333 58.3725,325.5652 61.1228,328.1428 63.924,330.665 66.7749,333.1308 69.6745,335.5393 72.6215,337.8894 75.6148,340.1804 78.6532,342.4111 81.7355,344.5808 84.8605,346.6887 88.0268,348.7337 91.2334,350.7152 94.4788,352.6324 97.7618,354.4844 101.0811,356.2706 104.4354,357.9902 107.8233,359.6426 111.2434,361.2271 114.6945,362.7431 118.1752,364.1899 121.684,365.567 125.2196,366.8738 128.7805,368.1099 132.3654,369.2747 135.9728,370.3678 139.6013,371.3887 143.2495,372.337 146.9158,373.2124 150.5988,374.0144 154.2972,374.7429 158.0093,375.3974 161.7337,375.9778 165.469,376.4838 169.2136,376.9152 172.966,377.2718 176.7249,377.5535 180.4886,377.7601 184.2557,377.8917 188.0246,377.9481 191.794,377.9293 195.5622,377.8353 199.3277,377.6662 203.0892,377.422 206.845,377.1028 210.5938,376.7088 214.3339,376.2401 218.0639,375.6969 221.7824,375.0794 225.4878,374.3879 229.1787,373.6226 232.8535,372.7838 236.5109,371.8719 240.1494,370.8873 243.7676,369.8302 247.3639,368.7012 250.937,367.5007 254.4854,366.2292 258.0078,364.8872 261.5027,363.4751 264.9688,361.9937 268.4046,360.4434 271.8088,358.8249 275.18,357.1388 278.517,355.3858 281.8183,353.5666 285.0827,351.6819 288.3088,349.7325 291.4954,347.7191 294.6412,345.6425 297.745,343.5037 300.8055,341.3033 303.8215,339.0424 306.7918,336.7217 309.7153,334.3423 312.5906,331.905 315.4169,329.4108 318.1928,326.8608 320.9172,324.256 323.5892,321.5973 326.2077,318.8858 328.7715,316.1226 331.2797,313.3089 333.7313,310.4457 336.1253,307.5342 338.4607,304.5755 340.7367,301.5708 342.9523,298.5213 345.1066,295.4282 347.1988,292.2928 349.228,289.1163 351.1935,285.8999 353.0945,282.6449 354.9301,279.3527 356.6997,276.0246 358.4026,272.6618 360.0381,269.2657 361.6055,265.8376 363.1042,262.379 364.5337,258.8912 365.8933,255.3756 367.1825,251.8335 368.4008,248.2664 369.5477,244.6758 370.6227,241.063 371.6255,237.4294 372.5556,233.7766 373.4127,230.106 374.1964,226.419 374.9064,222.7171 375.5425,219.0017 376.1043,215.2745 376.5916,211.5367 377.0043,207.79 377.3422,204.0358 377.6051,200.2756 377.793,196.5109 377.9058,192.7432"/>
  </g>
  <g fill="none" id="layer2" inkscape:groupmode="layer" inkscape:label="2" stroke="#b41e1e" stroke-width="0.4" style="display:inline">
    <polygon points="354.5103,188.974 354.4674,185.2057 354.3387,181.4394 354.1244,177.677 353.8244,173.9204 353.439,170.1716 352.9684,166.4326 352.4128,162.7052 351.7725,158.9915 351.0478,155.2932 350.2391,151.6125 349.3469,147.9511 348.3715,144.311 347.3135,140.694 346.1735,137.102 344.952,133.5369 343.6496,130.0006 342.2671,126.4948 340.8052,123.0214 339.2645,119.5822 337.646,116.1789 335.9504,112.8133 334.1787,109.4873 332.3317,106.2024 330.4104,102.9604 328.4158,99.763 326.3489,96.6118 324.2109,93.5085 322.0027,90.4546 319.7256,87.4518 317.3808,84.5016 314.9694,81.6056 312.4927,78.7652 309.952,75.9819 307.3486,73.2572 304.6838,70.5924 301.9591,67.989 299.1758,65.4483 296.3354,62.9716 293.4394,60.5602 290.4892,58.2154 287.4864,55.9383 284.4325,53.7301 281.3292,51.5921 278.178,49.5252 274.9806,47.5306 271.7386,45.6093 268.4537,43.7623 265.1277,41.9906 261.7621,40.295 258.3588,38.6765 254.9196,37.1358 251.4462,35.6739 247.9404,34.2914 244.4041,32.989 240.839,31.7675 237.247,30.6275 233.63,29.5695 229.9899,28.5941 226.3285,27.7019 222.6478,26.8932 218.9496,26.1685 215.2358,25.5282 211.5085,24.9726 207.7694,24.502 204.0206,24.1166 200.2641,23.8166 196.5016,23.6023 192.7353,23.4736 188.967,23.4307 185.1987,23.4736 181.4323,23.6023 177.6699,23.8166 173.9133,24.1166 170.1645,24.502 166.4255,24.9726 162.6981,25.5282 158.9844,26.1685 155.2862,26.8932 151.6054,27.7019 147.9441,28.5941 144.3039,29.5695 140.6869,30.6275 137.095,31.7675 133.5299,32.989 129.9935,34.2914 126.4878,35.6739 123.0143,37.1358 119.5751,38.6765 116.1718,40.295 112.8063,41.9906 109.4802,43.7623 106.1953,45.6093 102.9533,47.5306 99.7559,49.5252 96.6047,51.5921 93.5014,53.7301 90.4476,55.9383 87.4448,58.2154 84.4946,60.5602 81.5986,62.9716 78.7582,65.4483 75.9749,67.989 73.2501,70.5924 70.5854,73.2572 67.982,75.9819 65.4413,78.7652 62.9646,81.6056 60.5532,84.5016 58.2083,87.4518 55.9312,90.4546 53.7231,93.5085 51.585,96.6118 49.5182,99.763 47.5236,102.9604 45.6023,106.2024 43.7553,109.4873 41.9835,112.8133 40.2879,116.1789 38.6694,119.5822 37.1288,123.0214 35.6668,126.4948 34.2843,130.0006 32.982,133.5369 31.7605,137.102 30.6204,140.694 29.5625,144.311 28.5871,147.9511 27.6948,151.6125 26.8862,155.2932 26.1615,158.9915 25.5212,162.7052 24.9656,166.4326 24.4949,170.1716 24.1095,173.9204 23.8096,177.677 23.5952,181.4394 23.4666,185.2057 23.4237,188.974 23.4666,192.7423 23.5952,196.5087 23.8096,200.2711 24.1095,204.0277 24.4949,207.7765 24.9656,211.5155 25.5212,215.2429 26.1615,218.9566 26.8862,222.6548 27.6948,226.3356 28.5871,229.9969 29.5625,233.6371 30.6204,237.2541 31.7605,240.846 32.982,244.4111 34.2843,247.9475 35.6668,251.4533 37.1288,254.9267 38.6694,258.3659 40.2879,261.7692 41.9835,265.1347 43.7553,268.4608 45.6023,271.7457 47.5236,274.9877 49.5182,278.1851 51.585,281.3363 53.7231,284.4396 55.9312,287.4934 58.2083,290.4962 60.5532,293.4464 62.9646,296.3425 65.4413,299.1828 67.982,301.9661 70.5854,304.6909 73.2501,307.3556 75.9749,309.959 78.7582,312.4997 81.5986,314.9764 84.4946,317.3878 87.4448,319.7327 90.4476,322.0098 93.5014,324.2179 96.6047,326.356 99.7559,328.4228 102.9533,330.4174 106.1953,332.3387 109.4802,334.1857 112.8063,335.9575 116.1718,337.6531 119.5751,339.2716 123.0143,340.8122 126.4878,342.2742 129.9935,343.6567 133.5299,344.959 137.095,346.1805 140.6869,347.3206 144.3039,348.3785 147.9441,349.3539 151.6054,350.2462 155.2862,351.0548 158.9844,351.7795 162.6981,352.4198 166.4255,352.9755 170.1645,353.4461 173.9133,353.8315 177.6699,354.1314 181.4323,354.3458 185.1987,354.4744 188.967,354.5173 192.7353,354.4744 196.5016,354.3458 200.2641,354.1314 204.0206,353.8315 207.7694,353.4461 211.5085,352.9755 215.2358,352.4198 218.9496,351.7795 222.6478,351.0548 226.3285,350.2462 229.9899,349.3539 233.63,348.3785 237.247,347.3206 240.839,346.1805 244.4041,344.959 247.9404,343.6567 251.4462,342.2742 254.9196,340.8122 258.3588,339.2716 261.7621,337.6531 265.1277,335.9575 268.4537,334.1857 271.7386,332.3387 274.9806,330.4174 278.178,328.4228 281.3292,326.356 284.4325,324.2179 287.4864,322.0098 290.4892,319.7327 293.4394,317.3878 296.3354,314.9764 299.1758,312.4997 301.9591,309.959 304.6838,307.3556 307.3486,304.6909 309.952,301.9661 312.4927,299.1828 314.9694,296.3425 317.3808,293.4464 319.7256,290.4962 322.0027,287.4934 324.2109,284.4396 326.3489,281.3363 328.4158,278.1851 330.4104,274.9877 332.3317,271.7457 334.1787,268.4608 335.9504,265.1347 337.646,261.7692 339.2645,258.3659 340.8052,254.9267 342.2671,251.4533 343.6496,247.9475 344.952,244.4111 346.1735,240.846 347.3135,237.2541 348.3715,233.6371 349.3469,229.9969 350.2391,226.3356 351.0478,222.6548 351.7725,218.9566 352.4128,215.2429 352.9684,211.5155 353.439,207.7765 353.8244,204.0277 354.1244,200.2711 354.3387,196.5087 354.4674,192.7423"/>
  </g>
  <g fill="none" id="layer3" inkscape:groupmode="layer" inkscape:label="3" stroke="#dc7814" stroke-width="0.4" style="display:inline">
    <polygon points="330.6993,188.974 330.649,185.201 330.4984,181.4307 330.2474,177.6658 329.8963,173.9088 329.4453,170.1625 328.8948,166.4296 328.245,162.7126 327.4966,159.0143 326.65,155.3372 325.7057,151.6839 324.6646,148.0571 323.5273,144.4592 322.2946,140.8929 320.9674,137.3607 319.5466,133.8651 318.0333,130.4085 316.4285,126.9935 314.7334,123.6223 312.9491,120.2975 311.077,117.0214 309.1183,113.7963 307.0745,110.6244 304.9469,107.5081 302.7371,104.4495 300.4467,101.4509 298.0773,98.5142 295.6306,95.6417 293.1082,92.8353 290.512,90.0971 287.8439,87.429 285.1057,84.8328 282.2993,82.3105 279.4268,79.8637 276.4902,77.4943 273.4915,75.2039 270.4329,72.9941 267.3166,70.8665 264.1447,68.8227 260.9196,66.864 257.6435,64.9919 254.3187,63.2076 250.9475,61.5125 247.5325,59.9077 244.0759,58.3944 240.5803,56.9736 237.0481,55.6464 233.4818,54.4137 229.8839,53.2764 226.2571,52.2353 222.6038,51.2911 218.9267,50.4444 215.2284,49.696 211.5114,49.0462 207.7785,48.4957 204.0322,48.0447 200.2752,47.6936 196.5103,47.4426 192.74,47.292 188.967,47.2417 185.194,47.292 181.4237,47.4426 177.6587,47.6936 173.9018,48.0447 170.1555,48.4957 166.4225,49.0462 162.7056,49.696 159.0072,50.4444 155.3301,51.2911 151.6769,52.2353 148.05,53.2764 144.4522,54.4137 140.8859,55.6464 137.3537,56.9736 133.858,58.3944 130.4015,59.9077 126.9864,61.5125 123.6153,63.2076 120.2905,64.9919 117.0143,66.864 113.7892,68.8227 110.6174,70.8665 107.501,72.9941 104.4425,75.2039 101.4438,77.4943 98.5072,79.8637 95.6347,82.3105 92.8283,84.8328 90.0901,87.429 87.4219,90.0971 84.8258,92.8353 82.3034,95.6417 79.8567,98.5142 77.4872,101.4509 75.1968,104.4495 72.9871,107.5081 70.8595,110.6244 68.8156,113.7963 66.857,117.0214 64.9848,120.2975 63.2005,123.6223 61.5054,126.9935 59.9006,130.4085 58.3873,133.8651 56.9666,137.3607 55.6394,140.8929 54.4067,144.4592 53.2694,148.0571 52.2282,151.6839 51.284,155.3372 50.4374,159.0143 49.6889,162.7126 49.0392,166.4296 48.4886,170.1625 48.0376,173.9088 47.6865,177.6658 47.4356,181.4307 47.2849,185.201 47.2347,188.974 47.2849,192.747 47.4356,196.5173 47.6865,200.2823 48.0376,204.0392 48.4886,207.7855 49.0392,211.5185 49.6889,215.2354 50.4374,218.9338 51.284,222.6109 52.2282,226.2642 53.2694,229.891 54.4067,233.4888 55.6394,237.0551 56.9666,240.5873 58.3873,244.083 59.9006,247.5395 61.5054,250.9546 63.2005,254.3257 64.9848,257.6505 66.857,260.9267 68.8156,264.1518 70.8595,267.3236 72.9871,270.44 75.1968,273.4985 77.4872,276.4972 79.8567,279.4338 82.3034,282.3063 84.8258,285.1127 87.4219,287.8509 90.0901,290.5191 92.8283,293.1152 95.6347,295.6376 98.5072,298.0844 101.4438,300.4538 104.4425,302.7442 107.501,304.9539 110.6174,307.0815 113.7892,309.1254 117.0143,311.0841 120.2905,312.9562 123.6153,314.7405 126.9864,316.4356 130.4015,318.0404 133.858,319.5537 137.3537,320.9744 140.8859,322.3016 144.4522,323.5343 148.05,324.6716 151.6769,325.7128 155.3301,326.657 159.0072,327.5036 162.7056,328.2521 166.4225,328.9018 170.1555,329.4524 173.9018,329.9034 177.6587,330.2545 181.4237,330.5054 185.194,330.6561 188.967,330.7063 192.74,330.6561 196.5103,330.5054 200.2752,330.2545 204.0322,329.9034 207.7785,329.4524 211.5114,328.9018 215.2284,328.2521 218.9267,327.5036 222.6038,326.657 226.2571,325.7128 229.8839,324.6716 233.4818,323.5343 237.0481,322.3016 240.5803,320.9744 244.0759,319.5537 247.5325,318.0404 250.9475,316.4356 254.3187,314.7405 257.6435,312.9562 260.9196,311.0841 264.1447,309.1254 267.3166,307.0815 270.4329,304.9539 273.4915,302.7442 276.4902,300.4538 279.4268,298.0844 282.2993,295.6376 285.1057,293.1152 287.8439,290.5191 290.512,287.8509 293.1082,285.1127 295.6306,282.3063 298.0773,279.4338 300.4467,276.4972 302.7371,273.4985 304.9469,270.44 307.0745,267.3236 309.1183,264.1518 311.077,260.9267 312.9491,257.6505 314.7334,254.3257 316.4285,250.9546 318.0333,247.5395 319.5466,244.083 320.9674,240.5873 322.2946,237.0551 323.5273,233.4888 324.6646,229.891 325.7057,226.2642 326.65,222.6109 327.4966,218.9338 328.245,215.2354 328.8948,211.5185 329.4453,207.7855 329.8963,204.0392 330.2474,200.2823 330.4984,196.5173 330.649,192.747"/>
  </g>
  <g fill="none" id="layer4" inkscape:groupmode="layer" inkscape:label="4" stroke="#00783c" stroke-width="0.4" style="display:inline">
    <polygon points="306.8882,188.974 306.8283,185.2136 306.6484,181.4571 306.3489,177.7082 305.9299,173.9707 305.392,170.2485 304.7356,166.5454 303.9615,162.8651 303.0705,159.2113 302.0633,155.5878 300.9411,151.9982 299.7051,148.4463 298.3564,144.9356 296.8964,141.4697 295.3266,138.0521 293.6487,134.6863 291.8643,131.3757 289.9752,128.1237 287.9834,124.9336 285.8908,121.8087 283.6997,118.752 281.4122,115.7668 279.0307,112.8561 276.5576,110.0227 273.9954,107.2697 271.3467,104.5998 268.6142,102.0157 265.8007,99.5201 262.909,97.1154 259.9421,94.8042 256.903,92.5888 253.7949,90.4714 250.6207,88.4542 247.3839,86.5392 244.0877,84.7285 240.7354,83.0238 237.3304,81.4268 233.8762,79.9393 230.3764,78.5626 226.8344,77.2982 223.2539,76.1475 219.6386,75.1115 215.992,74.1913 212.318,73.3879 208.6202,72.702 204.9024,72.1345 201.1684,71.6857 197.422,71.3563 193.667,71.1465 189.9072,71.0565 186.1465,71.0865 182.3886,71.2364 178.6374,71.5061 174.8968,71.8952 171.1704,72.4034 167.4621,73.0302 163.7757,73.775 160.115,74.6369 156.4836,75.6151 152.8852,76.7086 149.3235,77.9163 145.8022,79.237 142.3247,80.6693 138.8947,82.2117 135.5156,83.8628 132.1909,85.6207 128.924,87.4838 125.7181,89.4501 122.5766,91.5177 119.5026,93.6844 116.4992,95.948 113.5696,98.3062 110.7166,100.7567 107.9432,103.2969 105.2523,105.9242 102.6465,108.636 100.1285,111.4295 97.7009,114.3019 95.3661,117.2503 93.1265,120.2716 90.9844,123.3628 88.9419,126.5207 87.0012,129.7422 85.1643,133.0239 83.4329,136.3625 81.8088,139.7546 80.2938,143.1968 78.8892,146.6856 77.5967,150.2173 76.4174,153.7885 75.3526,157.3955 74.4034,161.0346 73.5707,164.7021 72.8554,168.3943 72.2582,172.1075 71.7797,175.8378 71.4204,179.5814 71.1806,183.3346 71.0607,187.0936 71.0607,190.8545 71.1806,194.6134 71.4204,198.3666 71.7797,202.1103 72.2582,205.8406 72.8554,209.5537 73.5707,213.2459 74.4034,216.9134 75.3526,220.5525 76.4174,224.1595 77.5967,227.7307 78.8892,231.2625 80.2938,234.7512 81.8088,238.1934 83.4329,241.5856 85.1643,244.9242 87.0012,248.2059 88.9419,251.4273 90.9844,254.5853 93.1265,257.6765 95.3661,260.6978 97.7009,263.6461 100.1285,266.5185 102.6465,269.312 105.2523,272.0239 107.9432,274.6512 110.7166,277.1914 113.5696,279.6418 116.4992,282.0001 119.5026,284.2637 122.5766,286.4304 125.7181,288.4979 128.924,290.4642 132.1909,292.3273 135.5156,294.0853 138.8947,295.7363 142.3247,297.2788 145.8022,298.7111 149.3235,300.0318 152.8852,301.2395 156.4836,302.333 160.115,303.3112 163.7757,304.1731 167.4621,304.9178 171.1704,305.5446 174.8968,306.0529 178.6374,306.442 182.3886,306.7117 186.1465,306.8616 189.9072,306.8915 193.667,306.8016 197.422,306.5918 201.1684,306.2623 204.9024,305.8136 208.6202,305.246 212.318,304.5602 215.992,303.7567 219.6386,302.8366 223.2539,301.8006 226.8344,300.6498 230.3764,299.3855 233.8762,298.0088 237.3304,296.5212 240.7354,294.9243 244.0877,293.2196 247.3839,291.4088 250.6207,289.4939 253.7949,287.4767 256.903,285.3593 259.9421,283.1438 262.909,280.8326 265.8007,278.428 268.6142,275.9323 271.3467,273.3483 273.9954,270.6783 276.5576,267.9253 279.0307,265.092 281.4122,262.1813 283.6997,259.196 285.8908,256.1394 287.9834,253.0144 289.9752,249.8243 291.8643,246.5724 293.6487,243.2618 295.3266,239.896 296.8964,236.4784 298.3564,233.0125 299.7051,229.5018 300.9411,225.9498 302.0633,222.3603 303.0705,218.7368 303.9615,215.083 304.7356,211.4027 305.392,207.6995 305.9299,203.9773 306.3489,200.2399 306.6484,196.491 306.8283,192.7344"/>
  </g>
  <g fill="none" id="layer5" inkscape:groupmode="layer" inkscape:label="5" stroke="#0050a0" stroke-width="0.4" style="display:inline">
    <polygon points="283.4552,188.974 283.3805,185.2175 283.1565,181.4669 282.7836,177.7282 282.2623,174.0073 281.5935,170.31 280.7783,166.6423 279.8178,163.0098 278.7138,159.4184 277.4678,155.8738 276.0819,152.3815 274.5582,148.947 272.8992,145.5759 271.1075,142.2733 269.1859,139.0446 267.1374,135.8949 264.9654,132.829 262.6732,129.852 260.2644,126.9684 257.7429,124.1829 255.1127,121.4999 252.3779,118.9235 249.5428,116.4579 246.6119,114.1069 243.5898,111.8744 240.4814,109.7637 237.2916,107.7783 234.0253,105.9213 230.6878,104.1956 227.2843,102.6039 223.8203,101.1488 220.3011,99.8326 216.7324,98.6574 213.1197,97.6249 209.4689,96.7369 205.7857,95.9947 202.0758,95.3996 198.3453,94.9524 194.5999,94.6539 190.8456,94.5045 187.0883,94.5045 183.3341,94.6539 179.5887,94.9524 175.8581,95.3996 172.1483,95.9947 168.465,96.7369 164.8142,97.6249 161.2016,98.6574 157.6329,99.8326 154.1137,101.1488 150.6496,102.6039 147.2461,104.1956 143.9086,105.9213 140.6424,107.7783 137.4525,109.7637 134.3441,111.8744 131.3221,114.1069 128.3912,116.4579 125.5561,118.9235 122.8213,121.4999 120.191,124.1829 117.6695,126.9684 115.2608,129.852 112.9686,132.829 110.7965,135.8949 108.7481,139.0446 106.8265,142.2733 105.0348,145.5759 103.3758,148.947 101.8521,152.3815 100.4662,155.8738 99.2202,159.4184 98.1161,163.0098 97.1557,166.6423 96.3405,170.31 95.6717,174.0073 95.1504,177.7282 94.7775,181.4669 94.5535,185.2175 94.4788,188.974 94.5535,192.7305 94.7775,196.4811 95.1504,200.2198 95.6717,203.9408 96.3405,207.638 97.1557,211.3058 98.1161,214.9382 99.2202,218.5296 100.4662,222.0743 101.8521,225.5666 103.3758,229.001 105.0348,232.3722 106.8265,235.6747 108.7481,238.9034 110.7965,242.0532 112.9686,245.119 115.2608,248.0961 117.6695,250.9796 120.191,253.7651 122.8213,256.4482 125.5561,259.0246 128.3912,261.4902 131.3221,263.8411 134.3441,266.0737 137.4525,268.1844 140.6424,270.1698 143.9086,272.0268 147.2461,273.7525 150.6496,275.3442 154.1137,276.7992 157.6329,278.1154 161.2016,279.2907 164.8142,280.3232 168.465,281.2112 172.1483,281.9533 175.8581,282.5485 179.5887,282.9956 183.3341,283.2942 187.0883,283.4435 190.8456,283.4435 194.5999,283.2942 198.3453,282.9956 202.0758,282.5485 205.7857,281.9533 209.4689,281.2112 213.1197,280.3232 216.7324,279.2907 220.3011,278.1154 223.8203,276.7992 227.2843,275.3442 230.6878,273.7525 234.0253,272.0268 237.2916,270.1698 240.4814,268.1844 243.5898,266.0737 246.6119,263.8411 249.5428,261.4902 252.3779,259.0246 255.1127,256.4482 257.7429,253.7651 260.2644,250.9796 262.6732,248.0961 264.9654,245.119 267.1374,242.0532 269.1859,238.9034 271.1075,235.6747 272.8992,232.3722 274.5582,229.001 276.0819,225.5666 277.4678,222.0743 278.7138,218.5296 279.8178,214.9382 280.7783,211.3058 281.5935,207.638 282.2623,203.9408 282.7836,200.2198 283.1565,196.4811 283.3805,192.7305"/>
  </g>
  <g fill="none" id="layer6" inkscape:groupmode="layer" inkscape:label="6" stroke="#642878" stroke-width="0.4" style="display:inline">
    <polygon points="260.0221,188.974 259.9231,185.2241 259.6263,181.4846 259.1326,177.7659 258.4433,174.0785 257.5603,170.4327 256.4862,166.8385 255.2239,163.306 253.7769,159.845 252.1493,156.4652 250.3456,153.1761 248.3708,149.9867 246.2305,146.9059 243.9305,143.9425 241.4773,141.1045 238.8778,138.4 236.1392,135.8364 233.2691,133.4209 230.2755,131.1603 227.1668,129.0608 223.9517,127.1282 220.639,125.3681 217.238,123.7852 213.7582,122.3841 210.2094,121.1685 206.6013,120.1419 202.9441,119.3072 199.2479,118.6666 195.5231,118.222 191.78,117.9746 188.0291,117.9251 184.2808,118.0736 180.5455,118.4197 176.8337,118.9625 173.1557,119.7004 169.5218,120.6314 165.9421,121.7529 162.4266,123.0617 158.985,124.5542 155.627,126.2263 152.362,128.0733 149.1989,130.09 146.1467,132.2708 143.2138,134.6097 140.4085,137.1001 137.7385,139.7351 135.2113,142.5073 132.8339,145.409 130.613,148.4322 128.5547,151.5683 126.6648,154.8087 124.9485,158.1444 123.4107,161.5659 122.0556,165.0639 120.887,168.6285 119.9081,172.2498 119.1217,175.9177 118.53,179.622 118.1346,183.3524 117.9366,187.0984 117.9366,190.8497 118.1346,194.5957 118.53,198.3261 119.1217,202.0304 119.9081,205.6983 120.887,209.3196 122.0556,212.8842 123.4107,216.3821 124.9485,219.8037 126.6648,223.1393 128.5547,226.3797 130.613,229.5159 132.8339,232.539 135.2113,235.4408 137.7385,238.213 140.4085,240.848 143.2138,243.3384 146.1467,245.6772 149.1989,247.8581 152.362,249.8748 155.627,251.7218 158.985,253.3938 162.4266,254.8864 165.9421,256.1952 169.5218,257.3167 173.1557,258.2476 176.8337,258.9856 180.5455,259.5283 184.2808,259.8744 188.0291,260.023 191.78,259.9734 195.5231,259.726 199.2479,259.2814 202.9441,258.6409 206.6013,257.8061 210.2094,256.7796 213.7582,255.564 217.238,254.1628 220.639,252.58 223.9517,250.8198 227.1668,248.8873 230.2755,246.7878 233.2691,244.5272 236.1392,242.1117 238.8778,239.5481 241.4773,236.8436 243.9305,234.0056 246.2305,231.0421 248.3708,227.9614 250.3456,224.772 252.1493,221.4828 253.7769,218.1031 255.2239,214.6421 256.4862,211.1096 257.5603,207.5154 258.4433,203.8695 259.1326,200.1821 259.6263,196.4635 259.9231,192.724"/>
  </g>
  <g fill="none" id="layer7" inkscape:groupmode="layer" inkscape:label="7" stroke="#b43264" stroke-width="0.4" style="display:inline">
    <polygon points="236.2111,188.974 236.0617,185.2205 235.6146,181.4907 234.8726,177.8081 233.8404,174.1962 232.5244,170.6778 230.9331,167.2749 229.0764,164.0093 226.9662,160.9015 224.6157,157.9712 222.0398,155.2369 219.2549,152.7159 216.2784,150.4242 213.1293,148.3762 209.8274,146.5848 206.3936,145.0614 202.8497,143.8157 199.2179,142.8555 195.5214,142.1868 191.7834,141.814 188.0277,141.7393 184.2778,141.9632 180.5576,142.4844 176.8906,143.2995 173.2999,144.4033 169.8083,145.789 166.4378,147.4476 163.2097,149.3689 160.1445,151.5405 157.2615,153.9488 154.579,156.5785 152.1139,159.413 149.8817,162.4344 147.8967,165.6237 146.1714,168.9605 144.7166,172.4239 143.5416,175.9919 142.6537,179.642 142.0587,183.3511 141.7602,187.0958 141.7602,190.8523 142.0587,194.5969 142.6537,198.306 143.5416,201.9561 144.7166,205.5241 146.1714,208.9875 147.8967,212.3244 149.8817,215.5136 152.1139,218.535 154.579,221.3696 157.2615,223.9993 160.1445,226.4076 163.2097,228.5792 166.4378,230.5004 169.8083,232.1591 173.2999,233.5447 176.8906,234.6486 180.5576,235.4637 184.2778,235.9848 188.0277,236.2088 191.7834,236.1341 195.5214,235.7612 199.2179,235.0926 202.8497,234.1324 206.3936,232.8866 209.8274,231.3633 213.1293,229.5719 216.2784,227.5239 219.2549,225.2321 222.0398,222.7111 224.6157,219.9768 226.9662,217.0465 229.0764,213.9387 230.9331,210.6731 232.5244,207.2703 233.8404,203.7518 234.8726,200.1399 235.6146,196.4574 236.0617,192.7276"/>
  </g>
  <g fill="none" id="layer8" inkscape:groupmode="layer" inkscape:label="8" stroke="#3c8cb4" stroke-width="0.4" style="display:inline">
    <polygon points="212.4001,188.974 212.0966,185.2151 211.1941,181.5535 209.7159,178.0841 207.7004,174.8968 205.1996,172.074 202.2785,169.689 199.0126,167.8034 195.4865,166.4661 191.7915,165.7118 188.0234,165.56 184.2798,166.0145 180.6575,167.0637 177.2504,168.6804 174.1468,170.8227 171.4271,173.435 169.1616,176.4499 167.409,179.789 166.2148,183.3661 165.6099,187.0884 165.6099,190.8596 166.2148,194.5819 167.409,198.159 169.1616,201.4982 171.4271,204.513 174.1468,207.1254 177.2504,209.2677 180.6575,210.8843 184.2798,211.9335 188.0234,212.3881 191.7915,212.2362 195.4865,211.4819 199.0126,210.1446 202.2785,208.2591 205.1996,205.874 207.7004,203.0513 209.7159,199.8639 211.1941,196.3945 212.0966,192.733"/>
  </g>
</svg>
