<?xml version="1.0" encoding="utf-8" ?>
<svg xmlns="http://www.w3.org/2000/svg" xmlns:cc="http://creativecommons.org/ns" xmlns:dc="http://purl.org/dc/elements/1.1/" xmlns:ev="http://www.w3.org/2001/xml-events" xmlns:inkscape="http://www.inkscape.org/namespaces/inkscape" xmlns:rdf="http://www.w3.org/1999/02/22-rdf-syntax-ns" xmlns:sodipodi="http://sodipodi.sourceforge.net/DTD/sodipodi-0.dtd" xmlns:xlink="http://www.w3.org/1999/xlink" baseProfile="tiny" height="9.99987567cm" version="1.2" viewBox="0 0 377.9433575349813 377.9480566910331" width="9.99975133cm">
  <metadata>
    <rdf:RDF>
      <cc:Work>
        <dc:format>image/svg+xml</dc:format>
        <dc:source>vpype penset viridis circle -l 1 0 0 5.0cm circle -l 2 0 0 4.55cm circle -l 3 0 0 4.09cm circle -l 4 0 0 3.64cm circle -l 5 0 0 3.18cm circle -l 6 0 0 2.73cm circle -l 7 0 0 2.27cm circle -l 8 0 0 1.82cm circle -l 9 0 0 1.36cm circle -l 10 0 0 0.91cm circle -l 11 0 0 0.45cm colorize write docs/images/viridis.svg
</dc:source>
        <dc:date>2026-04-02T23:56:31.938128</dc:date>
      </cc:Work>
    </rdf:RDF>
  </metadata>
  <defs/>
  <g fill="none" id="layer1" inkscape:groupmode="layer" inkscape:label="1" stroke="#440154" style="display:inline">
    <polygon points="377.9434,188.974 377.9058,185.2048 377.793,181.4371 377.6051,177.6725 377.3422,173.9123 377.0043,170.1581 376.5916,166.4113 376.1043,162.6736 375.5425,158.9463 374.9064,155.231 374.1964,151.5291 373.4127,147.8421 372.5556,144.1714 371.6255,140.5186 370.6227,136.8851 369.5477,133.2723 368.4008,129.6816 367.1825,126.1145 365.8933,122.5725 364.5337,119.0568 363.1042,115.569 361.6055,112.1104 360.0381,108.6824 358.4026,105.2863 356.6997,101.9235 354.9301,98.5953 353.0945,95.3031 351.1935,92.0482 349.228,88.8318 347.1988,85.6553 345.1066,82.5198 342.9523,79.4268 340.7367,76.3773 338.4607,73.3726 336.1253,70.4139 333.7313,67.5024 331.2797,64.6392 328.7715,61.8254 326.2077,59.0623 323.5892,56.3508 320.9172,53.6921 318.1928,51.0872 315.4169,48.5372 312.5906,46.0431 309.7153,43.6058 306.7918,41.2263 303.8215,38.9057 300.8055,36.6447 297.745,34.4444 294.6412,32.3055 291.4954,30.229 288.3088,28.2156 285.0827,26.2662 281.8183,24.3815 278.517,22.5623 275.18,20.8093 271.8088,19.1232 268.4046,17.5047 264.9688,15.9544 261.5027,14.4729 258.0078,13.0609 254.4854,11.7188 250.937,10.4473 247.3639,9.2468 243.7676,8.1178 240.1494,7.0608 236.5109,6.0761 232.8535,5.1642 229.1787,4.3255 225.4878,3.5602 221.7824,2.8686 218.0639,2.2511 214.3339,1.7079 210.5938,1.2392 206.845,0.8452 203.0892,0.5261 199.3277,0.2819 195.5622,0.1128 191.794,0.0188 188.0246,0.0 184.2557,0.0564 180.4886,0.1879 176.7249,0.3946 172.966,0.6763 169.2136,1.0329 165.469,1.4643 161.7337,1.9702 158.0093,2.5506 154.2972,3.2052 150.5988,3.9336 146.9158,4.7357 143.2495,5.6111 139.6013,6.5594 135.9728,7.5803 132.3654,8.6734 128.7805,9.8382 125.2196,11.0742 121.684,12.3811 118.1752,13.7582 114.6945,15.205 111.2434,16.721 107.8233,18.3054 104.4354,19.9578 101.0811,21.6775 97.7618,23.4636 94.4788,25.3157 91.2334,27.2328 88.0268,29.2143 84.8605,31.2594 81.7355,33.3672 78.6532,35.5369 75.6148,37.7677 72.6215,40.0586 69.6745,42.4088 66.7749,44.8173 63.924,47.2831 61.1228,49.8053 58.3725,52.3829 55.6741,55.0148 53.0287,57.7 50.4375,60.4374 47.9013,63.226 45.4213,66.0646 42.9984,68.9522 40.6336,71.8874 38.3278,74.8693 36.0819,77.8965 33.8968,80.9679 31.7735,84.0823 29.7126,87.2385 27.7152,90.4351 25.7818,93.6709 23.9135,96.9446 22.1107,100.255 20.3744,103.6006 18.7051,106.9803 17.1036,110.3925 15.5705,113.836 14.1063,117.3094 12.7117,120.8113 11.3873,124.3403 10.1335,127.895 8.9508,131.4741 7.8398,135.076 6.8008,138.6993 5.8343,142.3427 4.9406,146.0046 4.1202,149.6836 3.3733,153.3783 2.7003,157.0871 2.1013,160.8086 1.5767,164.5413 1.1267,168.2837 0.7514,172.0343 0.4509,175.7917 0.2255,179.5543 0.0752,183.3207 0.0,187.0893 0.0,190.8587 0.0752,194.6273 0.2255,198.3937 0.4509,202.1564 0.7514,205.9137 1.1267,209.6644 1.5767,213.4068 2.1013,217.1395 2.7003,220.861 3.3733,224.5698 4.1202,228.2644 4.9406,231.9434 5.8343,235.6053 6.8008,239.2487 7.8398,242.8721 8.9508,246.474 10.1335,250.053 11.3873,253.6078 12.7117,257.1368 14.1063,260.6387 15.5705,264.1121 17.1036,267.5556 18.7051,270.9678 20.3744,274.3474 22.1107,277.6931 23.9135,281.0034 25.7818,284.2771 27.7152,287.513 29.7126,290.7096 31.7735,293.8657 33.8968,296.9801 36.0819,300.0516 38.3278,303.0788 40.6336,306.0606 42.9984,308.9959 45.4213,311.8834 47.9013,314.722 50.4375,317.5106 53.0287,320.2481 55.6741,322.9333 58.3725,325.5652 61.1228,328.1428 63.924,330.665 66.7749,333.1308 69.6745,335.5393 72.6215,337.8894 75.6148,340.1804 78.6532,342.4111 81.7355,344.5808 84.8605,346.6887 88.0268,348.7337 91.2334,350.7152 94.4788,352.6324 97.7618,354.4844 101.0811,356.2706 104.4354,357.9902 107.8233,359.6426 111.2434,361.2271 114.6945,362.7431 118.1752,364.1899 121.684,365.567 125.2196,366.8738 128.7805,368.1099 132.3654,369.2747 135.9728,370.3678 139.6013,371.3887 143.2495,372.337 146.9158,373.2124 150.5988,374.0144 154.2972,374.7429 158.0093,375.3974 161.7337,375.9778 165.469,376.4838 169.2136,376.9152 172.966,377.2718 176.7249,377.5535 180.4886,377.7601 184.2557,377.8917 188.0246,377.9481 191.794,377.9293 195.5622,377.8353 199.3277,377.6662 203.0892,377.422 206.845,377.1028 210.5938,376.7088 214.3339,376.2401 218.0639,375.6969 221.7824,375.0794 225.4878,374.3879 229.1787,373.6226 232.8535,372.7838 236.5109,371.8719 240.1494,370.8873 243.7676,369.8302 247.3639,368.7012 250.937,367.5007 254.4854,366.2292 258.0078,364.8872 261.5027,363.4751 264.9688,361.9937 268.4046,360.4434 271.8088,358.8249 275.18,357.1388 278.517,355.3858 281.8183,353.5666 285.0827,351.6819 288.3088,349.7325 291.4954,347.7191 294.6412,345.6425 297.745,343.5037 300.8055,341.3033 303.8215,339.0424 306.7918,336.7217 309.7153,334.3423 312.5906,331.905 315.4169,329.4108 318.1928,326.8608 320.9172,324.256 323.5892,321.5973 326.2077,318.8858 328.7715,316.1226 331.2797,313.3089 333.7313,310.4457 336.1253,307.5342 338.4607,304.5755 340.7367,301.5708 342.9523,298.5213 345.1066,295.4282 347.1988,292.2928 349.228,289.1163 351.1935,285.8999 353.0945,282.6449 354.9301,279.3527 356.6997,276.0246 358.4026,272.6618 360.0381,269.2657 361.6055,265.8376 363.1042,262.379 364.5337,258.8912 365.8933,255.3756 367.1825,251.8335 368.4008,248.2664 369.5477,244.6758 370.6227,241.063 371.6255,237.4294 372.5556,233.7766 373.4127,230.106 374.1964,226.419 374.9064,222.7171 375.5425,219.0017 376.1043,215.2745 376.5916,211.5367 377.0043,207.79 377.3422,204.0358 377.6051,200.2756 377.793,196.5109 377.9058,192.7432"/>
  </g>
  <g fill="none" id="layer2" inkscape:groupmode="layer" inkscape:label="2" stroke="#482475" style="display:inline">
    <polygon points="360.9355,188.974 360.894,185.1963 360.7695,181.4204 360.5621,177.6482 360.2719,173.8814 359.899,170.122 359.4437,166.3716 358.906,162.6321 358.2863,158.9053 357.5849,155.1931 356.8022,151.4971 355.9384,147.8193 354.994,144.1613 353.9696,140.5249 352.8654,136.9119 351.6822,133.3241 350.4205,129.763 349.0808,126.2306 347.6638,122.7285 346.1703,119.2583 344.6009,115.8218 342.9564,112.4206 341.2375,109.0563 339.4452,105.7306 337.5802,102.445 335.6436,99.2013 333.6361,96.0008 331.5588,92.8453 329.4127,89.7361 327.1988,86.6748 324.9182,83.6629 322.572,80.7018 320.1613,77.793 317.6873,74.9378 315.1511,72.1377 312.5541,69.3939 309.8974,66.7079 307.1823,64.0809 304.4102,61.5141 301.5824,59.0089 298.7002,56.5664 295.7651,54.1878 292.7784,51.8742 289.7416,49.6269 286.6562,47.4467 283.5237,45.3349 280.3455,43.2924 277.1232,41.3202 273.8583,39.4193 270.5525,37.5905 267.2073,35.8348 263.8244,34.153 260.4053,32.546 256.9517,31.0144 253.4653,29.5591 249.9479,28.1807 246.4009,26.8799 242.8263,25.6573 239.2256,24.5136 235.6007,23.4492 231.9533,22.4647 228.2852,21.5606 224.5981,20.7373 220.8937,19.9952 217.174,19.3346 213.4406,18.7559 209.6955,18.2594 205.9403,17.8452 202.177,17.5136 198.4072,17.2648 194.633,17.0989 190.8559,17.0159 187.078,17.0159 183.301,17.0989 179.5267,17.2648 175.757,17.5136 171.9936,17.8452 168.2385,18.2594 164.4933,18.7559 160.76,19.3346 157.0402,19.9952 153.3359,20.7373 149.6488,21.5606 145.9806,22.4647 142.3332,23.4492 138.7083,24.5136 135.1077,25.6573 131.533,26.8799 127.9861,28.1807 124.4686,29.5591 120.9822,31.0144 117.5287,32.546 114.1096,34.153 110.7266,35.8348 107.3815,37.5905 104.0756,39.4193 100.8108,41.3202 97.5885,43.2924 94.4103,45.3349 91.2777,47.4467 88.1923,49.6269 85.1555,51.8742 82.1689,54.1878 79.2337,56.5664 76.3516,59.0089 73.5237,61.5141 70.7516,64.0809 68.0366,66.7079 65.3799,69.3939 62.7828,72.1377 60.2467,74.9378 57.7727,77.793 55.362,80.7018 53.0158,83.6629 50.7352,86.6748 48.5213,89.7361 46.3752,92.8453 44.2979,96.0008 42.2904,99.2013 40.3537,102.445 38.4888,105.7306 36.6964,109.0563 34.9776,112.4206 33.3331,115.8218 31.7637,119.2583 30.2701,122.7285 28.8532,126.2306 27.5135,129.763 26.2517,133.3241 25.0685,136.9119 23.9644,140.5249 22.9399,144.1613 21.9956,147.8193 21.1318,151.4971 20.349,155.1931 19.6476,158.9053 19.028,162.6321 18.4903,166.3716 18.0349,170.122 17.662,173.8814 17.3718,177.6482 17.1644,181.4204 17.04,185.1963 16.9985,188.974 17.04,192.7517 17.1644,196.5276 17.3718,200.2998 17.662,204.0666 18.0349,207.8261 18.4903,211.5765 19.028,215.316 19.6476,219.0427 20.349,222.755 21.1318,226.4509 21.9956,230.1288 22.9399,233.7868 23.9644,237.4232 25.0685,241.0361 26.2517,244.624 27.5135,248.185 28.8532,251.7174 30.2701,255.2196 31.7637,258.6898 33.3331,262.1263 34.9776,265.5275 36.6964,268.8918 38.4888,272.2175 40.3537,275.503 42.2904,278.7468 44.2979,281.9472 46.3752,285.1028 48.5213,288.212 50.7352,291.2732 53.0158,294.2852 55.362,297.2462 57.7727,300.1551 60.2467,303.0102 62.7828,305.8104 65.3799,308.5541 68.0366,311.2401 70.7516,313.8672 73.5237,316.4339 76.3516,318.9392 79.2337,321.3817 82.1689,323.7603 85.1555,326.0738 88.1923,328.3212 91.2777,330.5013 94.4103,332.6132 97.5885,334.6557 100.8108,336.6279 104.0756,338.5288 107.3815,340.3575 110.7266,342.1132 114.1096,343.795 117.5287,345.4021 120.9822,346.9336 124.4686,348.389 127.9861,349.7674 131.533,351.0682 135.1077,352.2907 138.7083,353.4345 142.3332,354.4988 145.9806,355.4833 149.6488,356.3874 153.3359,357.2107 157.0402,357.9529 160.76,358.6134 164.4933,359.1921 168.2385,359.6887 171.9936,360.1028 175.757,360.4344 179.5267,360.6832 183.301,360.8492 187.078,360.9322 190.8559,360.9322 194.633,360.8492 198.4072,360.6832 202.177,360.4344 205.9403,360.1028 209.6955,359.6887 213.4406,359.1921 217.174,358.6134 220.8937,357.9529 224.5981,357.2107 228.2852,356.3874 231.9533,355.4833 235.6007,354.4988 239.2256,353.4345 242.8263,352.2907 246.4009,351.0682 249.9479,349.7674 253.4653,348.389 256.9517,346.9336 260.4053,345.4021 263.8244,343.795 267.2073,342.1132 270.5525,340.3575 273.8583,338.5288 277.1232,336.6279 280.3455,334.6557 283.5237,332.6132 286.6562,330.5013 289.7416,328.3212 292.7784,326.0738 295.7651,323.7603 298.7002,321.3817 301.5824,318.9392 304.4102,316.4339 307.1823,313.8672 309.8974,311.2401 312.5541,308.5541 315.1511,305.8104 317.6873,303.0102 320.1613,300.1551 322.572,297.2462 324.9182,294.2852 327.1988,291.2732 329.4127,288.212 331.5588,285.1028 333.6361,281.9472 335.6436,278.7468 337.5802,275.503 339.4452,272.2175 341.2375,268.8918 342.9564,265.5275 344.6009,262.1263 346.1703,258.6898 347.6638,255.2196 349.0808,251.7174 350.4205,248.185 351.6822,244.624 352.8654,241.0361 353.9696,237.4232 354.994,233.7868 355.9384,230.1288 356.8022,226.4509 357.5849,222.755 358.2863,219.0427 358.906,215.316 359.4437,211.5765 359.899,207.8261 360.2719,204.0666 360.5621,200.2998 360.7695,196.5276 360.894,192.7517"/>
  </g>
  <g fill="none" id="layer3" inkscape:groupmode="layer" inkscape:label="3" stroke="#414487" style="display:inline">
    <polygon points="343.5497,188.974 343.5035,185.1951 343.3649,181.4185 343.1341,177.6464 342.8111,173.881 342.3961,170.1247 341.8895,166.3797 341.2915,162.6481 340.6024,158.9323 339.8227,155.2344 338.9528,151.5567 337.9933,147.9014 336.9447,144.2706 335.8077,140.6665 334.5829,137.0913 333.2711,133.5472 331.873,130.0361 330.3895,126.5603 328.8215,123.1217 327.1699,119.7226 325.4357,116.3648 323.6199,113.0504 321.7236,109.7814 319.748,106.5597 317.6943,103.3873 315.5636,100.2661 313.3572,97.1978 311.0765,94.1844 308.7228,91.2277 306.2975,88.3294 303.8021,85.4912 301.2381,82.7149 298.607,80.0021 295.9103,77.3545 293.1497,74.7735 290.3269,72.2608 287.4434,69.8179 284.5011,67.4461 281.5018,65.1471 278.4471,62.922 275.3389,60.7722 272.1791,58.6991 268.9695,56.7039 265.7122,54.7877 262.409,52.9517 259.0618,51.197 255.6728,49.5246 252.244,47.9356 248.7773,46.4309 245.2748,45.0114 241.7387,43.678 238.1711,42.4313 234.574,41.2723 230.9497,40.2015 227.3003,39.2197 223.628,38.3274 219.935,37.5251 216.2234,36.8133 212.4956,36.1925 208.7537,35.6629 205.0,35.2251 201.2367,34.8791 197.466,34.6252 193.6903,34.4635 189.9118,34.3942 186.1327,34.4173 182.3553,34.5328 178.5818,34.7406 174.8146,35.0406 171.0558,35.4325 167.3077,35.9163 163.5726,36.4915 159.8526,37.1578 156.15,37.9149 152.4671,38.7623 148.806,39.6995 145.1688,40.7258 141.5579,41.8408 137.9753,43.0437 134.4231,44.3339 130.9036,45.7105 127.4188,47.1727 123.9707,48.7197 120.5615,50.3505 117.1932,52.0641 113.8678,53.8596 110.5872,55.7358 107.3536,57.6917 104.1686,59.726 101.0344,61.8376 97.9528,64.0252 94.9255,66.2874 91.9544,68.623 89.0413,71.0305 86.188,73.5085 83.3961,76.0555 80.6672,78.67 78.0031,81.3505 75.4054,84.0952 72.8754,86.9027 70.4149,89.7711 68.0253,92.6989 65.7079,95.6842 63.4642,98.7252 61.2955,101.8202 59.2031,104.9672 57.1883,108.1645 55.2522,111.4101 53.3961,114.702 51.6209,118.0384 49.9279,121.4171 48.318,124.8362 46.7921,128.2936 45.3512,131.7873 43.9962,135.3152 42.7278,138.8752 41.5468,142.4651 40.4539,146.0828 39.4497,149.7261 38.535,153.3929 37.7101,157.081 36.9757,160.7881 36.3321,164.5121 35.7797,168.2506 35.3189,172.0016 34.9499,175.7627 34.673,179.5317 34.4882,183.3064 34.3959,187.0844 34.3959,190.8636 34.4882,194.6417 34.673,198.4163 34.9499,202.1853 35.3189,205.9464 35.7797,209.6974 36.3321,213.436 36.9757,217.16 37.7101,220.8671 38.535,224.5551 39.4497,228.2219 40.4539,231.8653 41.5468,235.483 42.7278,239.0729 43.9962,242.6328 45.3512,246.1607 46.7921,249.6544 48.318,253.1119 49.9279,256.531 51.6209,259.9097 53.3961,263.246 55.2522,266.538 57.1883,269.7835 59.2031,272.9808 61.2955,276.1279 63.4642,279.2229 65.7079,282.2639 68.0253,285.2492 70.4149,288.1769 72.8754,291.0454 75.4054,293.8528 78.0031,296.5976 80.6672,299.278 83.3961,301.8925 86.188,304.4395 89.0413,306.9175 91.9544,309.325 94.9255,311.6606 97.9528,313.9229 101.0344,316.1104 104.1686,318.222 107.3536,320.2564 110.5872,322.2122 113.8678,324.0885 117.1932,325.884 120.5615,327.5976 123.9707,329.2284 127.4188,330.7754 130.9036,332.2376 134.4231,333.6142 137.9753,334.9043 141.5579,336.1072 145.1688,337.2222 148.806,338.2486 152.4671,339.1858 156.15,340.0331 159.8526,340.7902 163.5726,341.4566 167.3077,342.0318 171.0558,342.5155 174.8146,342.9075 178.5818,343.2075 182.3553,343.4152 186.1327,343.5307 189.9118,343.5538 193.6903,343.4845 197.466,343.3229 201.2367,343.069 205.0,342.723 208.7537,342.2851 212.4956,341.7556 216.2234,341.1348 219.935,340.423 223.628,339.6207 227.3003,338.7284 230.9497,337.7465 234.574,336.6758 238.1711,335.5167 241.7387,334.2701 245.2748,332.9366 248.7773,331.5171 252.244,330.0124 255.6728,328.4234 259.0618,326.7511 262.409,324.9964 265.7122,323.1604 268.9695,321.2442 272.1791,319.2489 275.3389,317.1758 278.4471,315.0261 281.5018,312.801 284.5011,310.5019 287.4434,308.1302 290.3269,305.6873 293.1497,303.1746 295.9103,300.5936 298.607,297.9459 301.2381,295.2331 303.8021,292.4568 306.2975,289.6187 308.7228,286.7204 311.0765,283.7636 313.3572,280.7502 315.5636,277.682 317.6943,274.5607 319.748,271.3883 321.7236,268.1667 323.6199,264.8977 325.4357,261.5833 327.1699,258.2255 328.8215,254.8263 330.3895,251.3878 331.873,247.912 333.2711,244.4009 334.5829,240.8567 335.8077,237.2815 336.9447,233.6775 337.9933,230.0467 338.9528,226.3913 339.8227,222.7136 340.6024,219.0158 341.2915,215.3 341.8895,211.5684 342.3961,207.8233 342.8111,204.067 343.1341,200.3017 343.3649,196.5296 343.5035,192.7529"/>
  </g>
  <g fill="none" id="layer4" inkscape:groupmode="layer" inkscape:label="4" stroke="#355f8d" style="display:inline">
    <polygon points="326.5418,188.974 326.49,185.1998 326.3347,181.4284 326.076,177.6627 325.7141,173.9055 325.2492,170.1596 324.6818,166.4279 324.0121,162.7132 323.2409,159.0183 322.3685,155.3459 321.3958,151.6988 320.3233,148.0798 319.152,144.4915 317.8826,140.9368 316.5163,137.4182 315.0539,133.9384 313.4966,130.5 311.8455,127.1057 310.102,123.7579 308.2672,120.4592 306.3427,117.2121 304.3298,114.019 302.23,110.8824 300.045,107.8045 297.7764,104.7877 295.4259,101.8343 292.9952,98.9465 290.4863,96.1265 287.9009,93.3764 285.241,90.6982 282.5087,88.094 279.7059,85.5657 276.8348,83.1153 273.8976,80.7446 270.8965,78.4553 267.8337,76.2493 264.7115,74.1281 261.5323,72.0933 258.2985,70.1466 255.0125,68.2892 251.6767,66.5228 248.2938,64.8485 244.8662,63.2676 241.3965,61.7814 237.8874,60.3909 234.3414,59.0972 230.7613,57.9013 227.1497,56.804 223.5094,55.8063 219.8431,54.9088 216.1535,54.1122 212.4434,53.4171 208.7157,52.8241 204.9732,52.3335 201.2185,51.9458 197.4547,51.6613 193.6844,51.4801 189.9106,51.4025 186.1361,51.4284 182.3638,51.5578 178.5964,51.7907 174.8368,52.1268 171.0878,52.566 167.3523,53.1078 163.6331,53.7519 159.933,54.4978 156.2547,55.345 152.601,56.2927 148.9747,57.3403 145.3785,58.487 141.8151,59.7319 138.2872,61.0741 134.7975,62.5126 131.3485,64.0463 127.9429,65.674 124.5833,67.3946 121.2721,69.2066 118.0119,71.1089 114.8051,73.0998 111.6541,75.178 108.5613,77.3418 105.529,79.5897 102.5596,81.9199 99.6552,84.3307 96.818,86.8203 94.0502,89.3867 91.3538,92.0282 88.731,94.7426 86.1835,97.5279 83.7135,100.3821 81.3227,103.303 79.0129,106.2883 76.7859,109.336 74.6433,112.4435 72.5868,115.6087 70.6179,118.8291 68.7381,122.1023 66.9487,125.4258 65.2513,128.7972 63.647,132.2138 62.137,135.6732 60.7224,139.1728 59.4045,142.7098 58.184,146.2816 57.062,149.8856 56.0393,153.519 55.1167,157.1791 54.2948,160.8631 53.5743,164.5683 52.9557,168.2918 52.4395,172.031 52.026,175.7828 51.7157,179.5447 51.5087,183.3136 51.4051,187.0867 51.4051,190.8613 51.5087,194.6345 51.7157,198.4034 52.026,202.1652 52.4395,205.9171 52.9557,209.6562 53.5743,213.3798 54.2948,217.085 55.1167,220.769 56.0393,224.4291 57.062,228.0625 58.184,231.6664 59.4045,235.2383 60.7224,238.7753 62.137,242.2748 63.647,245.7342 65.2513,249.1509 66.9487,252.5223 68.7381,255.8458 70.6179,259.119 72.5868,262.3394 74.6433,265.5045 76.7859,268.6121 79.0129,271.6597 81.3227,274.6451 83.7135,277.5659 86.1835,280.4201 88.731,283.2055 91.3538,285.9199 94.0502,288.5613 96.818,291.1278 99.6552,293.6174 102.5596,296.0282 105.529,298.3584 108.5613,300.6062 111.6541,302.7701 114.8051,304.8483 118.0119,306.8392 121.2721,308.7414 124.5833,310.5535 127.9429,312.274 131.3485,313.9018 134.7975,315.4355 138.2872,316.8739 141.8151,318.2162 145.3785,319.4611 148.9747,320.6078 152.601,321.6554 156.2547,322.6031 159.933,323.4502 163.6331,324.1961 167.3523,324.8403 171.0878,325.3821 174.8368,325.8213 178.5964,326.1574 182.3638,326.3903 186.1361,326.5197 189.9106,326.5456 193.6844,326.4679 197.4547,326.2868 201.2185,326.0022 204.9732,325.6145 208.7157,325.124 212.4434,324.531 216.1535,323.8359 219.8431,323.0393 223.5094,322.1418 227.1497,321.144 230.7613,320.0468 234.3414,318.8508 237.8874,317.5572 241.3965,316.1667 244.8662,314.6804 248.2938,313.0996 251.6767,311.4253 255.0125,309.6588 258.2985,307.8015 261.5323,305.8547 264.7115,303.82 267.8337,301.6988 270.8965,299.4927 273.8976,297.2035 276.8348,294.8327 279.7059,292.3823 282.5087,289.8541 285.241,287.2499 287.9009,284.5717 290.4863,281.8215 292.9952,279.0015 295.4259,276.1137 297.7764,273.1603 300.045,270.1435 302.23,267.0657 304.3298,263.929 306.3427,260.7359 308.2672,257.4888 310.102,254.1902 311.8455,250.8424 313.4966,247.448 315.0539,244.0097 316.5163,240.5299 317.8826,237.0113 319.152,233.4565 320.3233,229.8683 321.3958,226.2493 322.3685,222.6022 323.2409,218.9298 324.0121,215.2348 324.6818,211.5201 325.2492,207.7884 325.7141,204.0426 326.076,200.2854 326.3347,196.5197 326.49,192.7483"/>
  </g>
  <g fill="none" id="layer5" inkscape:groupmode="layer" inkscape:label="5" stroke="#2a788e" style="display:inline">
    <polygon points="309.156,188.974 309.0966,185.1988 308.9188,181.4273 308.6226,177.6632 308.2082,173.9104 307.6762,170.1723 307.0271,166.4529 306.2614,162.7556 305.38,159.0842 304.3837,155.4424 303.2735,151.8336 302.0505,148.2615 300.7159,144.7295 299.271,141.2412 297.7172,137.8001 296.0561,134.4094 294.2894,131.0725 292.4187,127.7929 290.4459,124.5736 288.3729,121.4178 286.2019,118.3287 283.9349,115.3094 281.5742,112.3627 279.1221,109.4916 276.581,106.699 273.9534,103.9876 271.242,101.36 268.4494,98.8189 265.5783,96.3668 262.6317,94.0061 259.6123,91.7391 256.5232,89.5681 253.3675,87.4951 250.1481,85.5223 246.8685,83.6516 243.5316,81.8849 240.141,80.2238 236.6998,78.67 233.2115,77.2251 229.6795,75.8905 226.1074,74.6675 222.4986,73.5573 218.8568,72.561 215.1854,71.6796 211.4881,70.9139 207.7687,70.2648 204.0307,69.7328 200.2778,69.3185 196.5137,69.0222 192.7422,68.8444 188.967,68.7851 185.1918,68.8444 181.4203,69.0222 177.6562,69.3185 173.9033,69.7328 170.1653,70.2648 166.4458,70.9139 162.7486,71.6796 159.0772,72.561 155.4353,73.5573 151.8265,74.6675 148.2544,75.8905 144.7225,77.2251 141.2342,78.67 137.793,80.2238 134.4023,81.8849 131.0655,83.6516 127.7858,85.5223 124.5665,87.4951 121.4108,89.5681 118.3217,91.7391 115.3023,94.0061 112.3556,96.3668 109.4846,98.8189 106.692,101.36 103.9805,103.9876 101.353,106.699 98.8119,109.4916 96.3598,112.3627 93.9991,115.3094 91.7321,118.3287 89.561,121.4178 87.4881,124.5736 85.5153,127.7929 83.6446,131.0725 81.8778,134.4094 80.2167,137.8001 78.663,141.2412 77.2181,144.7295 75.8835,148.2615 74.6605,151.8336 73.5503,155.4424 72.554,159.0842 71.6725,162.7556 70.9069,166.4529 70.2577,170.1723 69.7257,173.9104 69.3114,177.6632 69.0152,181.4273 68.8373,185.1988 68.778,188.974 68.8373,192.7493 69.0152,196.5208 69.3114,200.2848 69.7257,204.0377 70.2577,207.7757 70.9069,211.4952 71.6725,215.1924 72.554,218.8638 73.5503,222.5057 74.6605,226.1145 75.8835,229.6866 77.2181,233.2185 78.663,236.7068 80.2167,240.148 81.8778,243.5387 83.6446,246.8755 85.5153,250.1552 87.4881,253.3745 89.561,256.5303 91.7321,259.6193 93.9991,262.6387 96.3598,265.5854 98.8119,268.4564 101.353,271.249 103.9805,273.9605 106.692,276.588 109.4846,279.1291 112.3556,281.5812 115.3023,283.942 118.3217,286.209 121.4108,288.38 124.5665,290.4529 127.7858,292.4257 131.0655,294.2964 134.4023,296.0632 137.793,297.7243 141.2342,299.278 144.7225,300.7229 148.2544,302.0575 151.8265,303.2805 155.4353,304.3907 159.0772,305.387 162.7486,306.2685 166.4458,307.0341 170.1653,307.6833 173.9033,308.2153 177.6562,308.6296 181.4203,308.9258 185.1918,309.1037 188.967,309.163 192.7422,309.1037 196.5137,308.9258 200.2778,308.6296 204.0307,308.2153 207.7687,307.6833 211.4881,307.0341 215.1854,306.2685 218.8568,305.387 222.4986,304.3907 226.1074,303.2805 229.6795,302.0575 233.2115,300.7229 236.6998,299.278 240.141,297.7243 243.5316,296.0632 246.8685,294.2964 250.1481,292.4257 253.3675,290.4529 256.5232,288.38 259.6123,286.209 262.6317,283.942 265.5783,281.5812 268.4494,279.1291 271.242,276.588 273.9534,273.9605 276.581,271.249 279.1221,268.4564 281.5742,265.5854 283.9349,262.6387 286.2019,259.6193 288.3729,256.5303 290.4459,253.3745 292.4187,250.1552 294.2894,246.8755 296.0561,243.5387 297.7172,240.148 299.271,236.7068 300.7159,233.2185 302.0505,229.6866 303.2735,226.1145 304.3837,222.5057 305.38,218.8638 306.2614,215.1924 307.0271,211.4952 307.6762,207.7757 308.2082,204.0377 308.6226,200.2848 308.9188,196.5208 309.0966,192.7493"/>
  </g>
  <g fill="none" id="layer6" inkscape:groupmode="layer" inkscape:label="6" stroke="#21918c" style="display:inline">
    <polygon points="292.1481,188.974 292.0792,185.2056 291.8728,181.4423 291.5291,177.689 291.0485,173.9507 290.4317,170.2325 289.6796,166.5393 288.793,162.8761 287.7733,159.2476 286.6217,155.6589 285.3398,152.1146 283.9293,148.6194 282.3921,145.1781 280.7303,141.7953 278.946,138.4754 277.0417,135.2228 275.0198,132.042 272.8831,128.9372 270.6345,125.9125 268.2768,122.9719 265.8134,120.1193 263.2474,117.3587 260.5823,114.6936 257.8217,112.1276 254.9691,109.6642 252.0286,107.3065 249.0038,105.0579 245.899,102.9212 242.7182,100.8994 239.4657,98.995 236.1457,97.2107 232.7629,95.5489 229.3216,94.0117 225.8265,92.6012 222.2821,91.3193 218.6934,90.1677 215.0649,89.148 211.4017,88.2614 207.7085,87.5093 203.9903,86.8925 200.252,86.4119 196.4987,86.0682 192.7354,85.8618 188.967,85.7929 185.1986,85.8618 181.4352,86.0682 177.6819,86.4119 173.9437,86.8925 170.2255,87.5093 166.5323,88.2614 162.869,89.148 159.2406,90.1677 155.6518,91.3193 152.1075,92.6012 148.6124,94.0117 145.1711,95.5489 141.7882,97.2107 138.4683,98.995 135.2158,100.8994 132.035,102.9212 128.9301,105.0579 125.9054,107.3065 122.9648,109.6642 120.1123,112.1276 117.3516,114.6936 114.6865,117.3587 112.1206,120.1193 109.6571,122.9719 107.2995,125.9125 105.0508,128.9372 102.9142,132.042 100.8923,135.2228 98.988,138.4754 97.2037,141.7953 95.5418,145.1781 94.0046,148.6194 92.5942,152.1146 91.3123,155.6589 90.1607,159.2476 89.1409,162.8761 88.2544,166.5393 87.5022,170.2325 86.8854,173.9507 86.4049,177.689 86.0611,181.4423 85.8547,185.2056 85.7859,188.974 85.8547,192.7424 86.0611,196.5058 86.4049,200.2591 86.8854,203.9973 87.5022,207.7155 88.2544,211.4087 89.1409,215.072 90.1607,218.7004 91.3123,222.2892 92.5942,225.8335 94.0046,229.3286 95.5418,232.7699 97.2037,236.1528 98.988,239.4727 100.8923,242.7252 102.9142,245.906 105.0508,249.0109 107.2995,252.0356 109.6571,254.9762 112.1206,257.8287 114.6865,260.5894 117.3516,263.2545 120.1123,265.8204 122.9648,268.2839 125.9054,270.6415 128.9301,272.8902 132.035,275.0268 135.2158,277.0487 138.4683,278.953 141.7882,280.7373 145.1711,282.3992 148.6124,283.9364 152.1075,285.3468 155.6518,286.6287 159.2406,287.7803 162.869,288.8001 166.5323,289.6866 170.2255,290.4388 173.9437,291.0556 177.6819,291.5361 181.4352,291.8799 185.1986,292.0863 188.967,292.1551 192.7354,292.0863 196.4987,291.8799 200.252,291.5361 203.9903,291.0556 207.7085,290.4388 211.4017,289.6866 215.0649,288.8001 218.6934,287.7803 222.2821,286.6287 225.8265,285.3468 229.3216,283.9364 232.7629,282.3992 236.1457,280.7373 239.4657,278.953 242.7182,277.0487 245.899,275.0268 249.0038,272.8902 252.0286,270.6415 254.9691,268.2839 257.8217,265.8204 260.5823,263.2545 263.2474,260.5894 265.8134,257.8287 268.2768,254.9762 270.6345,252.0356 272.8831,249.0109 275.0198,245.906 277.0417,242.7252 278.946,239.4727 280.7303,236.1528 282.3921,232.7699 283.9293,229.3286 285.3398,225.8335 286.6217,222.2892 287.7733,218.7004 288.793,215.072 289.6796,211.4087 290.4317,207.7155 291.0485,203.9973 291.5291,200.2591 291.8728,196.5058 292.0792,192.7424"/>
  </g>
  <g fill="none" id="layer7" inkscape:groupmode="layer" inkscape:label="7" stroke="#22a884" style="display:inline">
    <polygon points="274.7623,188.974 274.6795,185.2055 274.4312,181.4443 274.018,177.6976 273.4406,173.9727 272.7001,170.2768 271.7981,166.6169 270.7361,163.0002 269.5163,159.4336 268.141,155.924 266.6129,152.4783 264.9349,149.103 263.1103,145.8046 261.1426,142.5896 259.0355,139.4641 256.7932,136.4342 254.42,133.5057 251.9204,130.6842 249.2993,127.9753 246.5617,125.3841 243.713,122.9157 240.7586,120.5748 237.7043,118.3659 234.5558,116.2933 231.3194,114.361 228.0012,112.5727 224.6076,110.9319 221.1453,109.4417 217.6208,108.1051 214.0411,106.9245 210.4129,105.9024 206.7434,105.0405 203.0395,104.3407 199.3085,103.8043 195.5575,103.4323 191.7937,103.2253 188.0246,103.1839 184.2572,103.3081 180.499,103.5977 176.757,104.052 173.0387,104.6703 169.3511,105.4513 165.7013,106.3935 162.0965,107.4951 158.5436,108.7541 155.0493,110.1678 151.6206,111.7337 148.2639,113.4486 144.9858,115.3094 141.7925,117.3123 138.6904,119.4536 135.6853,121.729 132.783,124.1343 129.9892,126.6647 127.3092,129.3154 124.7483,132.0812 122.3113,134.9569 120.003,137.9368 117.8278,141.0153 115.7899,144.1863 113.8932,147.4438 112.1415,150.7814 110.5381,154.1928 109.086,157.6713 107.7882,161.2102 106.647,164.8027 105.6648,168.4419 104.8433,172.1207 104.1842,175.832 103.6888,179.5687 103.358,183.3236 103.1924,187.0893 103.1924,190.8587 103.358,194.6245 103.6888,198.3793 104.1842,202.116 104.8433,205.8274 105.6648,209.5062 106.647,213.1454 107.7882,216.7379 109.086,220.2768 110.5381,223.7553 112.1415,227.1666 113.8932,230.5043 115.7899,233.7618 117.8278,236.9328 120.003,240.0112 122.3113,242.9912 124.7483,245.8668 127.3092,248.6327 129.9892,251.2834 132.783,253.8138 135.6853,256.219 138.6904,258.4945 141.7925,260.6357 144.9858,262.6387 148.2639,264.4994 151.6206,266.2144 155.0493,267.7803 158.5436,269.194 162.0965,270.4529 165.7013,271.5545 169.3511,272.4968 173.0387,273.2778 176.757,273.896 180.499,274.3504 184.2572,274.6399 188.0246,274.7641 191.7937,274.7227 195.5575,274.5158 199.3085,274.1438 203.0395,273.6073 206.7434,272.9075 210.4129,272.0457 214.0411,271.0235 217.6208,269.843 221.1453,268.5063 224.6076,267.0162 228.0012,265.3753 231.3194,263.5871 234.5558,261.6548 237.7043,259.5822 240.7586,257.3733 243.713,255.0323 246.5617,252.5639 249.2993,249.9727 251.9204,247.2638 254.42,244.4424 256.7932,241.5139 259.0355,238.4839 261.1426,235.3585 263.1103,232.1434 264.9349,228.8451 266.6129,225.4698 268.141,222.024 269.5163,218.5145 270.7361,214.9479 271.7981,211.3312 272.7001,207.6713 273.4406,203.9753 274.018,200.2504 274.4312,196.5037 274.6795,192.7425"/>
  </g>
  <g fill="none" id="layer8" inkscape:groupmode="layer" inkscape:label="8" stroke="#44bf70" style="display:inline">
    <polygon points="257.7544,188.974 257.6517,185.2176 257.3441,181.4724 256.8324,177.7496 256.1182,174.0602 255.2036,170.4154 254.0912,166.826 252.7846,163.3026 251.2875,159.8559 249.6043,156.4961 247.7403,153.2332 245.7008,150.077 243.492,147.0368 241.1205,144.1218 238.5933,141.3407 235.918,138.7017 233.1026,136.2128 230.1555,133.8813 227.0855,131.7142 223.9017,129.718 220.6137,127.8987 217.2312,126.2616 213.7643,124.8117 210.2235,123.5533 206.6192,122.4901 202.9622,121.6254 199.2634,120.9616 195.534,120.5008 191.7849,120.2444 188.0274,120.193 184.2728,120.347 180.5321,120.7057 176.8166,121.2682 173.1374,122.0328 169.5054,122.9971 165.9315,124.1583 162.4263,125.513 159.0004,127.0571 155.6638,128.7859 152.4267,130.6944 149.2986,132.7768 146.2889,135.0269 143.4066,137.438 140.6603,140.0029 138.0581,142.714 135.6078,145.5631 133.3168,148.5418 131.1919,151.6412 129.2394,154.8519 127.4651,158.1645 125.8744,161.5691 124.472,165.0554 123.262,168.6131 122.2482,172.2316 121.4335,175.9 120.8203,179.6075 120.4105,183.3429 120.2052,187.0951 120.2052,190.8529 120.4105,194.6052 120.8203,198.3406 121.4335,202.048 122.2482,205.7165 123.262,209.335 124.472,212.8927 125.8744,216.379 127.4651,219.7835 129.2394,223.0961 131.1919,226.3069 133.3168,229.4062 135.6078,232.3849 138.0581,235.2341 140.6603,237.9451 143.4066,240.51 146.2889,242.9212 149.2986,245.1713 152.4267,247.2537 155.6638,249.1621 159.0004,250.891 162.4263,252.435 165.9315,253.7897 169.5054,254.9509 173.1374,255.9153 176.8166,256.6798 180.5321,257.2423 184.2728,257.6011 188.0274,257.755 191.7849,257.7037 195.534,257.4472 199.2634,256.9864 202.9622,256.3227 206.6192,255.4579 210.2235,254.3947 213.7643,253.1363 217.2312,251.6864 220.6137,250.0493 223.9017,248.23 227.0855,246.2338 230.1555,244.0668 233.1026,241.7353 235.918,239.2463 238.5933,236.6074 241.1205,233.8262 243.492,230.9112 245.7008,227.8711 247.7403,224.7149 249.6043,221.452 251.2875,218.0921 252.7846,214.6454 254.0912,211.1221 255.2036,207.5326 256.1182,203.8878 256.8324,200.1985 257.3441,196.4757 257.6517,192.7305"/>
  </g>
  <g fill="none" id="layer9" inkscape:groupmode="layer" inkscape:label="9" stroke="#7ad151" style="display:inline">
    <polygon points="240.3686,188.974 240.2314,185.222 239.8208,181.4899 239.1388,177.7978 238.1892,174.1653 236.9769,170.6118 235.5084,167.1563 233.7917,163.8172 231.8358,160.6123 229.6511,157.5587 227.2494,154.6728 224.6435,151.9699 221.8472,149.4644 218.8754,147.1697 215.7441,145.098 212.47,143.2604 209.0704,141.6668 205.5635,140.3255 201.9682,139.2438 198.3034,138.4275 194.5888,137.8808 190.8443,137.6067 187.0897,137.6067 183.3451,137.8808 179.6306,138.4275 175.9658,139.2438 172.3704,140.3255 168.8636,141.6668 165.464,143.2604 162.1898,145.098 159.0585,147.1697 156.0868,149.4644 153.2905,151.9699 150.6845,154.6728 148.2828,157.5587 146.0982,160.6123 144.1423,163.8172 142.4255,167.1563 140.9571,170.6118 139.7448,174.1653 138.7951,177.7978 138.1132,181.4899 137.7025,185.222 137.5654,188.974 137.7025,192.7261 138.1132,196.4582 138.7951,200.1503 139.7448,203.7828 140.9571,207.3363 142.4255,210.7918 144.1423,214.1309 146.0982,217.3358 148.2828,220.3893 150.6845,223.2753 153.2905,225.9782 156.0868,228.4837 159.0585,230.7784 162.1898,232.8501 165.464,234.6876 168.8636,236.2813 172.3704,237.6225 175.9658,238.7042 179.6306,239.5206 183.3451,240.0672 187.0897,240.3413 190.8443,240.3413 194.5888,240.0672 198.3034,239.5206 201.9682,238.7042 205.5635,237.6225 209.0704,236.2813 212.47,234.6876 215.7441,232.8501 218.8754,230.7784 221.8472,228.4837 224.6435,225.9782 227.2494,223.2753 229.6511,220.3893 231.8358,217.3358 233.7917,214.1309 235.5084,210.7918 236.9769,207.3363 238.1892,203.7828 239.1388,200.1503 239.8208,196.4582 240.2314,192.7261"/>
  </g>
  <g fill="none" id="layer10" inkscape:groupmode="layer" inkscape:label="10" stroke="#bddf26" style="display:inline">
    <polygon points="223.3607,188.974 223.1591,185.2554 222.5566,181.5804 221.5603,177.9921 220.1819,174.5325 218.4375,171.2422 216.3476,168.1598 213.9367,165.3215 211.233,162.7605 208.2683,160.5067 205.0773,158.5868 201.6974,157.0231 198.1683,155.834 194.5313,155.0334 190.829,154.6308 187.1049,154.6308 183.4027,155.0334 179.7657,155.834 176.2366,157.0231 172.8567,158.5868 169.6657,160.5067 166.701,162.7605 163.9973,165.3215 161.5864,168.1598 159.4965,171.2422 157.7521,174.5325 156.3737,177.9921 155.3774,181.5804 154.7749,185.2554 154.5733,188.974 154.7749,192.6926 155.3774,196.3677 156.3737,199.956 157.7521,203.4156 159.4965,206.7058 161.5864,209.7882 163.9973,212.6266 166.701,215.1876 169.6657,217.4413 172.8567,219.3613 176.2366,220.925 179.7657,222.1141 183.4027,222.9146 187.1049,223.3173 190.829,223.3173 194.5313,222.9146 198.1683,222.1141 201.6974,220.925 205.0773,219.3613 208.2683,217.4413 211.233,215.1876 213.9367,212.6266 216.3476,209.7882 218.4375,206.7058 220.1819,203.4156 221.5603,199.956 222.5566,196.3677 223.1591,192.6926"/>
  </g>
  <g fill="none" id="layer11" inkscape:groupmode="layer" inkscape:label="11" stroke="#fde725" style="display:inline">
    <polygon points="205.9749,188.974 205.5772,185.3178 204.4029,181.8326 202.5068,178.6813 199.9776,176.0113 196.9336,173.9474 193.5171,172.5861 189.8878,171.9911 186.2154,172.1902 182.6717,173.1741 179.4224,174.8968 176.6193,177.2777 174.3937,180.2056 172.8494,183.5434 172.0588,187.1352 172.0588,190.8129 172.8494,194.4047 174.3937,197.7425 176.6193,200.6703 179.4224,203.0513 182.6717,204.7739 186.2154,205.7578 189.8878,205.957 193.5171,205.362 196.9336,204.0007 199.9776,201.9368 202.5068,199.2668 204.4029,196.1154 205.5772,192.6302"/>
  </g>
</svg>
