<?xml encoding="utf-8" ?>
<svg xmlns="http://www.w3.org/2000/svg" height="9.99987567cm" viewBox="0 0 377.9433575349813 377.9480566910331" width="9.99975133cm">
  <rect width="100%" height="100%" fill="white"/>
  <g fill="none" stroke-width="2" id="layer1" stroke="#440154">
    <polygon points="377.9434,188.974 377.9058,185.2048 377.793,181.4371 377.6051,177.6725 377.3422,173.9123 377.0043,170.1581 376.5916,166.4113 376.1043,162.6736 375.5425,158.9463 374.9064,155.231 374.1964,151.5291 373.4127,147.8421 372.5556,144.1714 371.6255,140.5186 370.6227,136.8851 369.5477,133.2723 368.4008,129.6816 367.1825,126.1145 365.8933,122.5725 364.5337,119.0568 363.1042,115.569 361.6055,112.1104 360.0381,108.6824 358.4026,105.2863 356.6997,101.9235 354.9301,98.5953 353.0945,95.3031 351.1935,92.0482 349.228,88.8318 347.1988,85.6553 345.1066,82.5198 342.9523,79.4268 340.7367,76.3773 338.4607,73.3726 336.1253,70.4139 333.7313,67.5024 331.2797,64.6392 328.7715,61.8254 326.2077,59.0623 323.5892,56.3508 320.9172,53.6921 318.1928,51.0872 315.4169,48.5372 312.5906,46.0431 309.7153,43.6058 306.7918,41.2263 303.8215,38.9057 300.8055,36.6447 297.745,34.4444 294.6412,32.3055 291.4954,30.229 288.3088,28.2156 285.0827,26.2662 281.8183,24.3815 278.517,22.5623 275.18,20.8093 271.8088,19.1232 268.4046,17.5047 264.9688,15.9544 261.5027,14.4729 258.0078,13.0609 254.4854,11.7188 250.937,10.4473 247.3639,9.2468 243.7676,8.1178 240.1494,7.0608 236.5109,6.0761 232.8535,5.1642 229.1787,4.3255 225.4878,3.5602 221.7824,2.8686 218.0639,2.2511 214.3339,1.7079 210.5938,1.2392 206.845,0.8452 203.0892,0.5261 199.3277,0.2819 195.5622,0.1128 191.794,0.0188 188.0246,0.0 184.2557,0.0564 180.4886,0.1879 176.7249,0.3946 172.966,0.6763 169.2136,1.0329 165.469,1.4643 161.7337,1.9702 158.0093,2.5506 154.2972,3.2052 150.5988,3.9336 146.9158,4.7357 143.2495,5.6111 139.6013,6.5594 135.9728,7.5803 132.3654,8.6734 128.7805,9.8382 125.2196,11.0742 121.684,12.3811 118.1752,13.7582 114.6945,15.205 111.2434,16.721 107.8233,18.3054 104.4354,19.9578 101.0811,21.6775 97.7618,23.4636 94.4788,25.3157 91.2334,27.2328 88.0268,29.2143 84.8605,31.2594 81.7355,33.3672 78.6532,35.5369 75.6148,37.7677 72.6215,40.0586 69.6745,42.4088 66.7749,44.8173 63.924,47.2831 61.1228,49.8053 58.3725,52.3829 55.6741,55.0148 53.0287,57.7 50.4375,60.4374 47.9013,63.226 45.4213,66.0646 42.9984,68.9522 40.6336,71.8874 38.3278,74.8693 36.0819,77.8965 33.8968,80.9679 31.7735,84.0823 29.7126,87.2385 27.7152,90.4351 25.7818,93.6709 23.9135,96.9446 22.1107,100.255 20.3744,103.6006 18.7051,106.9803 17.1036,110.3925 15.5705,113.836 14.1063,117.3094 12.7117,120.8113 11.3873,124.3403 10.1335,127.895 8.9508,131.4741 7.8398,135.076 6.8008,138.6993 5.8343,142.3427 4.9406,146.0046 4.1202,149.6836 3.3733,153.3783 2.7003,157.0871 2.1013,160.8086 1.5767,164.5413 1.1267,168.2837 0.7514,172.0343 0.4509,175.7917 0.2255,179.5543 0.0752,183.3207 0.0,187.0893 0.0,190.8587 0.0752,194.6273 0.2255,198.3937 0.4509,202.1564 0.7514,205.9137 1.1267,209.6644 1.5767,213.4068 2.1013,217.1395 2.7003,220.861 3.3733,224.5698 4.1202,228.2644 4.9406,231.9434 5.8343,235.6053 6.8008,239.2487 7.8398,242.8721 8.9508,246.474 10.1335,250.053 11.3873,253.6078 12.7117,257.1368 14.1063,260.6387 15.5705,264.1121 17.1036,267.5556 18.7051,270.9678 20.3744,274.3474 22.1107,277.6931 23.9135,281.0034 25.7818,284.2771 27.7152,287.513 29.7126,290.7096 31.7735,293.8657 33.8968,296.9801 36.0819,300.0516 38.3278,303.0788 40.6336,306.0606 42.9984,308.9959 45.4213,311.8834 47.9013,314.722 50.4375,317.5106 53.0287,320.2481 55.6741,322.9333 58.3725,325.5652 61.1228,328.1428 63.924,330.665 66.7749,333.1308 69.6745,335.5393 72.6215,337.8894 75.6148,340.1804 78.6532,342.4111 81.7355,344.5808 84.8605,346.6887 88.0268,348.7337 91.2334,350.7152 94.4788,352.6324 97.7618,354.4844 101.0811,356.2706 104.4354,357.9902 107.8233,359.6426 111.2434,361.2271 114.6945,362.7431 118.1752,364.1899 121.684,365.567 125.2196,366.8738 128.7805,368.1099 132.3654,369.2747 135.9728,370.3678 139.6013,371.3887 143.2495,372.337 146.9158,373.2124 150.5988,374.0144 154.2972,374.7429 158.0093,375.3974 161.7337,375.9778 165.469,376.4838 169.2136,376.9152 172.966,377.2718 176.7249,377.5535 180.4886,377.7601 184.2557,377.8917 188.0246,377.9481 191.794,377.9293 195.5622,377.8353 199.3277,377.6662 203.0892,377.422 206.845,377.1028 210.5938,376.7088 214.3339,376.2401 218.0639,375.6969 221.7824,375.0794 225.4878,374.3879 229.1787,373.6226 232.8535,372.7838 236.5109,371.8719 240.1494,370.8873 243.7676,369.8302 247.3639,368.7012 250.937,367.5007 254.4854,366.2292 258.0078,364.8872 261.5027,363.4751 264.9688,361.9937 268.4046,360.4434 271.8088,358.8249 275.18,357.1388 278.517,355.3858 281.8183,353.5666 285.0827,351.6819 288.3088,349.7325 291.4954,347.7191 294.6412,345.6425 297.745,343.5037 300.8055,341.3033 303.8215,339.0424 306.7918,336.7217 309.7153,334.3423 312.5906,331.905 315.4169,329.4108 318.1928,326.8608 320.9172,324.256 323.5892,321.5973 326.2077,318.8858 328.7715,316.1226 331.2797,313.3089 333.7313,310.4457 336.1253,307.5342 338.4607,304.5755 340.7367,301.5708 342.9523,298.5213 345.1066,295.4282 347.1988,292.2928 349.228,289.1163 351.1935,285.8999 353.0945,282.6449 354.9301,279.3527 356.6997,276.0246 358.4026,272.6618 360.0381,269.2657 361.6055,265.8376 363.1042,262.379 364.5337,258.8912 365.8933,255.3756 367.1825,251.8335 368.4008,248.2664 369.5477,244.6758 370.6227,241.063 371.6255,237.4294 372.5556,233.7766 373.4127,230.106 374.1964,226.419 374.9064,222.7171 375.5425,219.0017 376.1043,215.2745 376.5916,211.5367 377.0043,207.79 377.3422,204.0358 377.6051,200.2756 377.793,196.5109 377.9058,192.7432"/>
  </g>
  <g fill="none" stroke-width="2" id="layer2" stroke="#482475">
    <polygon points="359.0457,188.974 359.0038,185.1982 358.8781,181.4243 358.6686,177.6541 358.3755,173.8895 357.9988,170.1323 357.5389,166.3844 356.9958,162.6476 356.37,158.9238 355.6616,155.2148 354.871,151.5225 353.9987,147.8486 353.0451,144.195 352.0105,140.5635 350.8956,136.9558 349.7009,133.3738 348.4269,129.8191 347.0744,126.2937 345.6439,122.7991 344.1362,119.3371 342.552,115.9095 340.8921,112.5179 339.1573,109.1639 337.3485,105.8494 335.4665,102.5757 333.5123,99.3447 331.4869,96.1578 329.3913,93.0167 327.2264,89.9229 324.9933,86.878 322.6933,83.8833 320.3273,80.9404 317.8965,78.0508 315.4022,75.2159 312.8456,72.4371 310.2279,69.7156 307.5505,67.053 304.8146,64.4505 302.0216,61.9093 299.1728,59.4308 296.2698,57.0161 293.3138,54.6665 290.3065,52.3831 287.2491,50.167 284.1434,48.0193 280.9907,45.9411 277.7926,43.9334 274.5508,41.9972 271.2668,40.1334 267.9422,38.343 264.5787,36.6269 261.1779,34.9859 257.7415,33.4207 254.2713,31.9322 250.7688,30.5212 247.2359,29.1882 243.6742,27.934 240.0856,26.7592 236.4718,25.6643 232.8346,24.6499 229.1758,23.7166 225.4971,22.8646 221.8004,22.0946 218.0876,21.4068 214.3604,20.8016 210.6206,20.2793 206.8702,19.8402 203.111,19.4844 199.3448,19.2122 195.5735,19.0236 191.7989,18.9189 188.023,18.8979 184.2475,18.9608 180.4743,19.1075 176.7053,19.3379 172.9424,19.6519 169.1873,20.0494 165.442,20.5301 161.7083,21.0939 157.9881,21.7404 154.2831,22.4694 150.5952,23.2804 146.9262,24.1731 143.2779,25.147 139.6522,26.2017 136.0508,27.3366 132.4754,28.5512 128.9279,29.8449 125.41,31.217 121.9234,32.6668 118.4699,34.1937 115.0511,35.7969 111.6687,37.4756 108.3245,39.229 105.02,41.0562 101.7569,42.9563 98.5367,44.9284 95.3612,46.9715 92.2318,49.0845 89.15,51.2665 86.1175,53.5164 83.1356,55.8331 80.206,58.2154 77.3299,60.6622 74.5088,63.1722 71.7442,65.7442 69.0374,68.3769 66.3896,71.0691 63.8023,73.8194 61.2767,76.6265 58.8141,79.4889 56.4155,82.4053 54.0823,85.3743 51.8157,88.3943 49.6166,91.4638 47.4862,94.5815 45.4255,97.7457 43.4356,100.9548 41.5174,104.2073 39.6719,107.5016 37.9,110.8361 36.2025,114.2091 34.5804,117.6189 33.0343,121.0639 31.5651,124.5424 30.1735,128.0526 28.8602,131.5929 27.6258,135.1615 26.4709,138.7565 25.3961,142.3764 24.4019,146.0192 23.4889,149.6831 22.6574,153.3665 21.9079,157.0674 21.2407,160.784 20.6562,164.5145 20.1547,168.2571 19.7364,172.0098 19.4015,175.771 19.1502,179.5386 18.9825,183.3109 18.8987,187.086 18.8987,190.862 18.9825,194.6371 19.1502,198.4094 19.4015,202.1771 19.7364,205.9382 20.1547,209.691 20.6562,213.4336 21.2407,217.1641 21.9079,220.8807 22.6574,224.5816 23.4889,228.2649 24.4019,231.9289 25.3961,235.5717 26.4709,239.1915 27.6258,242.7866 28.8602,246.3552 30.1735,249.8954 31.5651,253.4057 33.0343,256.8841 34.5804,260.3291 36.2025,263.739 37.9,267.112 39.6719,270.4464 41.5174,273.7407 43.4356,276.9933 45.4255,280.2024 47.4862,283.3666 49.6166,286.4842 51.8157,289.5538 54.0823,292.5738 56.4155,295.5427 58.8141,298.4592 61.2767,301.3216 63.8023,304.1287 66.3896,306.879 69.0374,309.5712 71.7442,312.2039 74.5088,314.7759 77.3299,317.2859 80.206,319.7326 83.1356,322.1149 86.1175,324.4316 89.15,326.6815 92.2318,328.8635 95.3612,330.9766 98.5367,333.0197 101.7569,334.9917 105.02,336.8918 108.3245,338.719 111.6687,340.4724 115.0511,342.1511 118.4699,343.7543 121.9234,345.2812 125.41,346.7311 128.9279,348.1032 132.4754,349.3968 136.0508,350.6114 139.6522,351.7464 143.2779,352.801 146.9262,353.775 150.5952,354.6677 154.2831,355.4787 157.9881,356.2077 161.7083,356.8542 165.442,357.4179 169.1873,357.8987 172.9424,358.2962 176.7053,358.6102 180.4743,358.8406 184.2475,358.9873 188.023,359.0501 191.7989,359.0292 195.5735,358.9244 199.3448,358.7359 203.111,358.4636 206.8702,358.1079 210.6206,357.6687 214.3604,357.1464 218.0876,356.5412 221.8004,355.8535 225.4971,355.0834 229.1758,354.2315 232.8346,353.2981 236.4718,352.2838 240.0856,351.1889 243.6742,350.0141 247.2359,348.7599 250.7688,347.4269 254.2713,346.0158 257.7415,344.5274 261.1779,342.9622 264.5787,341.3212 267.9422,339.605 271.2668,337.8146 274.5508,335.9509 277.7926,334.0147 280.9907,332.007 284.1434,329.9288 287.2491,327.7811 290.3065,325.565 293.3138,323.2816 296.2698,320.9319 299.1728,318.5173 302.0216,316.0387 304.8146,313.4976 307.5505,310.895 310.2279,308.2324 312.8456,305.511 315.4022,302.7321 317.8965,299.8972 320.3273,297.0076 322.6933,294.0648 324.9933,291.0701 327.2264,288.0251 329.3913,284.9313 331.4869,281.7902 333.5123,278.6034 335.4665,275.3723 337.3485,272.0987 339.1573,268.7841 340.8921,265.4302 342.552,262.0386 344.1362,258.6109 345.6439,255.149 347.0744,251.6544 348.4269,248.1289 349.7009,244.5743 350.8956,240.9923 352.0105,237.3846 353.0451,233.7531 353.9987,230.0994 354.871,226.4256 355.6616,222.7332 356.37,219.0242 356.9958,215.3004 357.5389,211.5637 357.9988,207.8158 358.3755,204.0586 358.6686,200.294 358.8781,196.5237 359.0038,192.7498"/>
  </g>
  <g fill="none" stroke-width="2" id="layer3" stroke="#414487">
    <polygon points="340.1481,188.974 340.1011,185.205 339.9602,181.4383 339.7253,177.6763 339.3968,173.9213 338.9748,170.1756 338.4595,166.4417 337.8513,162.7217 337.1505,159.0181 336.3577,155.3331 335.4732,151.669 334.4976,148.0281 333.4315,144.4126 332.2757,140.8249 331.0307,137.267 329.6975,133.7414 328.2768,130.25 326.7694,126.7952 325.1764,123.379 323.4988,120.0036 321.7375,116.6711 319.8937,113.3835 317.9684,110.1429 315.963,106.9513 313.8787,103.8107 311.7167,100.723 309.4784,97.6902 307.1651,94.7142 304.7784,91.7967 302.3197,88.9396 299.7906,86.1448 297.1925,83.4138 294.5272,80.7485 291.7962,78.1504 289.0014,75.6213 286.1443,73.1626 283.2269,70.7759 280.2508,68.4627 277.218,66.2243 274.1303,64.0623 270.9897,61.978 267.7981,59.9726 264.5575,58.0474 261.2699,56.2035 257.9374,54.4422 254.562,52.7646 251.1458,51.1716 247.691,49.6642 244.1996,48.2435 240.674,46.9103 237.1161,45.6653 233.5284,44.5095 229.9129,43.4434 226.272,42.4679 222.6079,41.5834 218.9229,40.7905 215.2193,40.0897 211.4994,39.4815 207.7654,38.9662 204.0198,38.5442 200.2648,38.2157 196.5027,37.9809 192.736,37.8399 188.967,37.7929 185.1979,37.8399 181.4312,37.9809 177.6692,38.2157 173.9142,38.5442 170.1686,38.9662 166.4346,39.4815 162.7147,40.0897 159.011,40.7905 155.326,41.5834 151.6619,42.4679 148.021,43.4434 144.4056,44.5095 140.8178,45.6653 137.26,46.9103 133.7343,48.2435 130.243,49.6642 126.7881,51.1716 123.372,52.7646 119.9965,54.4422 116.664,56.2035 113.3764,58.0474 110.1358,59.9726 106.9442,61.978 103.8036,64.0623 100.716,66.2243 97.6832,68.4627 94.7071,70.7759 91.7896,73.1626 88.9326,75.6213 86.1377,78.1504 83.4068,80.7485 80.7414,83.4138 78.1434,86.1448 75.6142,88.9396 73.1555,91.7967 70.7688,94.7142 68.4556,97.6902 66.2173,100.723 64.0553,103.8107 61.9709,106.9513 59.9655,110.1429 58.0403,113.3835 56.1965,116.6711 54.4352,120.0036 52.7575,123.379 51.1645,126.7952 49.6572,130.25 48.2365,133.7414 46.9032,137.267 45.6583,140.8249 44.5024,144.4126 43.4364,148.0281 42.4608,151.669 41.5763,155.3331 40.7834,159.0181 40.0827,162.7217 39.4744,166.4417 38.9592,170.1756 38.5371,173.9213 38.2086,177.6763 37.9738,181.4383 37.8329,185.205 37.7859,188.974 37.8329,192.7431 37.9738,196.5098 38.2086,200.2718 38.5371,204.0268 38.9592,207.7724 39.4744,211.5064 40.0827,215.2264 40.7834,218.93 41.5763,222.615 42.4608,226.2791 43.4364,229.92 44.5024,233.5354 45.6583,237.1232 46.9032,240.681 48.2365,244.2067 49.6572,247.698 51.1645,251.1529 52.7575,254.5691 54.4352,257.9445 56.1965,261.277 58.0403,264.5646 59.9655,267.8052 61.9709,270.9968 64.0553,274.1374 66.2173,277.225 68.4556,280.2578 70.7688,283.2339 73.1555,286.1514 75.6142,289.0084 78.1434,291.8033 80.7414,294.5342 83.4068,297.1996 86.1377,299.7976 88.9326,302.3268 91.7896,304.7855 94.7071,307.1722 97.6832,309.4854 100.716,311.7237 103.8036,313.8857 106.9442,315.9701 110.1358,317.9755 113.3764,319.9007 116.664,321.7445 119.9965,323.5058 123.372,325.1835 126.7881,326.7765 130.243,328.2838 133.7343,329.7045 137.26,331.0378 140.8178,332.2827 144.4056,333.4386 148.021,334.5046 151.6619,335.4802 155.326,336.3647 159.011,337.1576 162.7147,337.8584 166.4346,338.4666 170.1686,338.9818 173.9142,339.4039 177.6692,339.7324 181.4312,339.9672 185.1979,340.1081 188.967,340.1551 192.736,340.1081 196.5027,339.9672 200.2648,339.7324 204.0198,339.4039 207.7654,338.9818 211.4994,338.4666 215.2193,337.8584 218.9229,337.1576 222.6079,336.3647 226.272,335.4802 229.9129,334.5046 233.5284,333.4386 237.1161,332.2827 240.674,331.0378 244.1996,329.7045 247.691,328.2838 251.1458,326.7765 254.562,325.1835 257.9374,323.5058 261.2699,321.7445 264.5575,319.9007 267.7981,317.9755 270.9897,315.9701 274.1303,313.8857 277.218,311.7237 280.2508,309.4854 283.2269,307.1722 286.1443,304.7855 289.0014,302.3268 291.7962,299.7976 294.5272,297.1996 297.1925,294.5342 299.7906,291.8033 302.3197,289.0084 304.7784,286.1514 307.1651,283.2339 309.4784,280.2578 311.7167,277.225 313.8787,274.1374 315.963,270.9968 317.9684,267.8052 319.8937,264.5646 321.7375,261.277 323.4988,257.9445 325.1764,254.5691 326.7694,251.1529 328.2768,247.698 329.6975,244.2067 331.0307,240.681 332.2757,237.1232 333.4315,233.5354 334.4976,229.92 335.4732,226.2791 336.3577,222.615 337.1505,218.93 337.8513,215.2264 338.4595,211.5064 338.9748,207.7724 339.3968,204.0268 339.7253,200.2718 339.9602,196.5098 340.1011,192.7431"/>
  </g>
  <g fill="none" stroke-width="2" id="layer4" stroke="#355f8d">
    <polygon points="321.2504,188.974 321.1965,185.1965 321.0347,181.4221 320.7652,177.6539 320.3882,173.8948 319.904,170.1481 319.313,166.4168 318.6157,162.7038 317.8127,159.0123 316.9045,155.3451 315.892,151.7055 314.776,148.0962 313.5574,144.5203 312.2372,140.9806 310.8164,137.48 309.2963,134.0215 307.678,130.6078 305.9628,127.2417 304.1523,123.9259 302.2478,120.6632 300.2509,117.4562 298.1633,114.3075 295.9866,111.2198 293.7226,108.1954 291.3731,105.2369 288.9402,102.3468 286.4256,99.5273 283.8317,96.7807 281.1603,94.1093 278.4137,91.5154 275.5942,89.0009 272.7041,86.5679 269.7456,84.2185 266.7212,81.9545 263.6335,79.7777 260.4848,77.6901 257.2778,75.6932 254.0151,73.7887 250.6993,71.9782 247.3332,70.2631 243.9195,68.6448 240.461,67.1246 236.9604,65.7038 233.4208,64.3836 229.8448,63.165 226.2355,62.049 222.5959,61.0365 218.9288,60.1284 215.2372,59.3253 211.5242,58.628 207.7929,58.037 204.0462,57.5528 200.2871,57.1758 196.5189,56.9063 192.7445,56.7445 188.967,56.6906 185.1895,56.7445 181.4151,56.9063 177.6468,57.1758 173.8878,57.5528 170.1411,58.037 166.4097,58.628 162.6967,59.3253 159.0052,60.1284 155.3381,61.0365 151.6984,62.049 148.0891,63.165 144.5132,64.3836 140.9735,65.7038 137.473,67.1246 134.0144,68.6448 130.6007,70.2631 127.2346,71.9782 123.9188,73.7887 120.6561,75.6932 117.4491,77.6901 114.3005,79.7777 111.2127,81.9545 108.1884,84.2185 105.2299,86.5679 102.3397,89.0009 99.5202,91.5154 96.7737,94.1093 94.1023,96.7807 91.5083,99.5273 88.9938,102.3468 86.5608,105.2369 84.2114,108.1954 81.9474,111.2198 79.7707,114.3075 77.683,117.4562 75.6862,120.6632 73.7817,123.9259 71.9711,127.2417 70.256,130.6078 68.6377,134.0215 67.1176,137.48 65.6968,140.9806 64.3765,144.5203 63.1579,148.0962 62.0419,151.7055 61.0294,155.3451 60.1213,159.0123 59.3183,162.7038 58.621,166.4168 58.03,170.1481 57.5458,173.8948 57.1688,177.6539 56.8993,181.4221 56.7375,185.1965 56.6835,188.974 56.7375,192.7515 56.8993,196.5259 57.1688,200.2942 57.5458,204.0532 58.03,207.7999 58.621,211.5313 59.3183,215.2443 60.1213,218.9358 61.0294,222.6029 62.0419,226.2426 63.1579,229.8519 64.3765,233.4278 65.6968,236.9675 67.1176,240.468 68.6377,243.9266 70.256,247.3403 71.9711,250.7064 73.7817,254.0222 75.6862,257.2849 77.683,260.4919 79.7707,263.6405 81.9474,266.7283 84.2114,269.7526 86.5608,272.7111 88.9938,275.6013 91.5083,278.4208 94.1023,281.1673 96.7737,283.8387 99.5202,286.4327 102.3397,288.9472 105.2299,291.3802 108.1884,293.7296 111.2127,295.9936 114.3005,298.1703 117.4491,300.258 120.6561,302.2548 123.9188,304.1593 127.2346,305.9699 130.6007,307.685 134.0144,309.3033 137.473,310.8235 140.9735,312.2442 144.5132,313.5645 148.0891,314.7831 151.6984,315.8991 155.3381,316.9116 159.0052,317.8197 162.6967,318.6227 166.4097,319.32 170.1411,319.911 173.8878,320.3952 177.6468,320.7722 181.4151,321.0418 185.1895,321.2035 188.967,321.2575 192.7445,321.2035 196.5189,321.0418 200.2871,320.7722 204.0462,320.3952 207.7929,319.911 211.5242,319.32 215.2372,318.6227 218.9288,317.8197 222.5959,316.9116 226.2355,315.8991 229.8448,314.7831 233.4208,313.5645 236.9604,312.2442 240.461,310.8235 243.9195,309.3033 247.3332,307.685 250.6993,305.9699 254.0151,304.1593 257.2778,302.2548 260.4848,300.258 263.6335,298.1703 266.7212,295.9936 269.7456,293.7296 272.7041,291.3802 275.5942,288.9472 278.4137,286.4327 281.1603,283.8387 283.8317,281.1673 286.4256,278.4208 288.9402,275.6013 291.3731,272.7111 293.7226,269.7526 295.9866,266.7283 298.1633,263.6405 300.2509,260.4919 302.2478,257.2849 304.1523,254.0222 305.9628,250.7064 307.678,247.3403 309.2963,243.9266 310.8164,240.468 312.2372,236.9675 313.5574,233.4278 314.776,229.8519 315.892,226.2426 316.9045,222.6029 317.8127,218.9358 318.6157,215.2443 319.313,211.5313 319.904,207.7999 320.3882,204.0532 320.7652,200.2942 321.0347,196.5259 321.1965,192.7515"/>
  </g>
  <g fill="none" stroke-width="2" id="layer5" stroke="#2a788e">
    <polygon points="302.3528,188.974 302.2902,185.2053 302.1023,181.4407 301.7894,177.6844 301.3518,173.9407 300.79,170.2135 300.1046,166.5071 299.2965,162.8255 298.3664,159.1727 297.3154,155.553 296.1447,151.9701 294.8555,148.4282 293.4493,144.931 291.9277,141.4826 290.2923,138.0866 288.5449,134.7468 286.6874,131.467 284.722,128.2507 282.6507,125.1015 280.476,122.0229 278.2001,119.0183 275.8256,116.091 273.3551,113.2443 270.7913,110.4812 268.1371,107.8049 265.3955,105.2182 262.5693,102.7242 259.6619,100.3254 256.6763,98.0246 253.6159,95.8243 250.484,93.727 247.2842,91.7349 244.0199,89.8503 240.6948,88.0752 237.3125,86.4116 233.8768,84.8613 230.3915,83.4261 226.8604,82.1076 223.2874,80.9071 219.6764,79.8261 216.0316,78.8657 212.3568,78.0269 208.6562,77.3108 204.9339,76.718 201.1938,76.2494 197.4403,75.9053 193.6774,75.6861 189.9093,75.5921 186.1402,75.6234 182.3742,75.78 178.6155,76.0617 174.8682,76.4682 171.1365,76.9989 167.4245,77.6535 163.7363,78.431 160.0759,79.3307 156.4476,80.3516 152.8551,81.4925 149.3026,82.7522 145.7939,84.1293 142.3329,85.6222 138.9234,87.2293 135.5692,88.9489 132.2741,90.779 129.0416,92.7177 125.8753,94.7627 122.7787,96.9118 119.7553,99.1626 116.8084,101.5127 113.9412,103.9595 111.1569,106.5002 108.4586,109.132 105.8493,111.8521 103.3318,114.6574 100.909,117.5448 98.5835,120.5112 96.3578,123.5532 94.2345,126.6675 92.2159,129.8507 90.3042,133.0992 88.5015,136.4094 86.8099,139.7778 85.2311,143.2005 83.767,146.6738 82.4192,150.1938 81.189,153.7567 80.078,157.3585 79.0874,160.9952 78.2181,164.6629 77.4712,168.3574 76.8476,172.0747 76.3478,175.8107 75.9725,179.5613 75.7221,183.3222 75.5968,187.0894 75.5968,190.8587 75.7221,194.6258 75.9725,198.3868 76.3478,202.1373 76.8476,205.8733 77.4712,209.5906 78.2181,213.2852 79.0874,216.9528 80.078,220.5896 81.189,224.1914 82.4192,227.7543 83.767,231.2743 85.2311,234.7476 86.8099,238.1703 88.5015,241.5386 90.3042,244.8489 92.2159,248.0974 94.2345,251.2806 96.3578,254.3949 98.5835,257.4369 100.909,260.4033 103.3318,263.2907 105.8493,266.096 108.4586,268.816 111.1569,271.4479 113.9412,273.9886 116.8084,276.4353 119.7553,278.7854 122.7787,281.0363 125.8753,283.1854 129.0416,285.2304 132.2741,287.169 135.5692,288.9992 138.9234,290.7187 142.3329,292.3259 145.7939,293.8188 149.3026,295.1959 152.8551,296.4556 156.4476,297.5965 160.0759,298.6173 163.7363,299.517 167.4245,300.2946 171.1365,300.9491 174.8682,301.4799 178.6155,301.8863 182.3742,302.168 186.1402,302.3246 189.9093,302.3559 193.6774,302.262 197.4403,302.0428 201.1938,301.6987 204.9339,301.23 208.6562,300.6373 212.3568,299.9211 216.0316,299.0824 219.6764,298.122 223.2874,297.0409 226.8604,295.8405 230.3915,294.5219 233.8768,293.0867 237.3125,291.5365 240.6948,289.8729 244.0199,288.0978 247.2842,286.2132 250.484,284.2211 253.6159,282.1237 256.6763,279.9234 259.6619,277.6226 262.5693,275.2239 265.3955,272.7298 268.1371,270.1432 270.7913,267.4669 273.3551,264.7038 275.8256,261.857 278.2001,258.9297 280.476,255.9251 282.6507,252.8465 284.722,249.6974 286.6874,246.4811 288.5449,243.2013 290.2923,239.8615 291.9277,236.4655 293.4493,233.017 294.8555,229.5199 296.1447,225.9779 297.3154,222.3951 298.3664,218.7753 299.2965,215.1226 300.1046,211.441 300.79,207.7346 301.3518,204.0074 301.7894,200.2636 302.1023,196.5074 302.2902,192.7428"/>
  </g>
  <g fill="none" stroke-width="2" id="layer6" stroke="#21918c">
    <polygon points="283.4552,188.974 283.3805,185.2175 283.1565,181.4669 282.7836,177.7282 282.2623,174.0073 281.5935,170.31 280.7783,166.6423 279.8178,163.0098 278.7138,159.4184 277.4678,155.8738 276.0819,152.3815 274.5582,148.947 272.8992,145.5759 271.1075,142.2733 269.1859,139.0446 267.1374,135.8949 264.9654,132.829 262.6732,129.852 260.2644,126.9684 257.7429,124.1829 255.1127,121.4999 252.3779,118.9235 249.5428,116.4579 246.6119,114.1069 243.5898,111.8744 240.4814,109.7637 237.2916,107.7783 234.0253,105.9213 230.6878,104.1956 227.2843,102.6039 223.8203,101.1488 220.3011,99.8326 216.7324,98.6574 213.1197,97.6249 209.4689,96.7369 205.7857,95.9947 202.0758,95.3996 198.3453,94.9524 194.5999,94.6539 190.8456,94.5045 187.0883,94.5045 183.3341,94.6539 179.5887,94.9524 175.8581,95.3996 172.1483,95.9947 168.465,96.7369 164.8142,97.6249 161.2016,98.6574 157.6329,99.8326 154.1137,101.1488 150.6496,102.6039 147.2461,104.1956 143.9086,105.9213 140.6424,107.7783 137.4525,109.7637 134.3441,111.8744 131.3221,114.1069 128.3912,116.4579 125.5561,118.9235 122.8213,121.4999 120.191,124.1829 117.6695,126.9684 115.2608,129.852 112.9686,132.829 110.7965,135.8949 108.7481,139.0446 106.8265,142.2733 105.0348,145.5759 103.3758,148.947 101.8521,152.3815 100.4662,155.8738 99.2202,159.4184 98.1161,163.0098 97.1557,166.6423 96.3405,170.31 95.6717,174.0073 95.1504,177.7282 94.7775,181.4669 94.5535,185.2175 94.4788,188.974 94.5535,192.7305 94.7775,196.4811 95.1504,200.2198 95.6717,203.9408 96.3405,207.638 97.1557,211.3058 98.1161,214.9382 99.2202,218.5296 100.4662,222.0743 101.8521,225.5666 103.3758,229.001 105.0348,232.3722 106.8265,235.6747 108.7481,238.9034 110.7965,242.0532 112.9686,245.119 115.2608,248.0961 117.6695,250.9796 120.191,253.7651 122.8213,256.4482 125.5561,259.0246 128.3912,261.4902 131.3221,263.8411 134.3441,266.0737 137.4525,268.1844 140.6424,270.1698 143.9086,272.0268 147.2461,273.7525 150.6496,275.3442 154.1137,276.7992 157.6329,278.1154 161.2016,279.2907 164.8142,280.3232 168.465,281.2112 172.1483,281.9533 175.8581,282.5485 179.5887,282.9956 183.3341,283.2942 187.0883,283.4435 190.8456,283.4435 194.5999,283.2942 198.3453,282.9956 202.0758,282.5485 205.7857,281.9533 209.4689,281.2112 213.1197,280.3232 216.7324,279.2907 220.3011,278.1154 223.8203,276.7992 227.2843,275.3442 230.6878,273.7525 234.0253,272.0268 237.2916,270.1698 240.4814,268.1844 243.5898,266.0737 246.6119,263.8411 249.5428,261.4902 252.3779,259.0246 255.1127,256.4482 257.7429,253.7651 260.2644,250.9796 262.6732,248.0961 264.9654,245.119 267.1374,242.0532 269.1859,238.9034 271.1075,235.6747 272.8992,232.3722 274.5582,229.001 276.0819,225.5666 277.4678,222.0743 278.7138,218.5296 279.8178,214.9382 280.7783,211.3058 281.5935,207.638 282.2623,203.9408 282.7836,200.2198 283.1565,196.4811 283.3805,192.7305"/>
  </g>
  <g fill="none" stroke-width="2" id="layer7" stroke="#22a884">
    <polygon points="264.5575,188.974 264.4636,185.2062 264.1819,181.4476 263.7132,177.7078 263.0588,173.9961 262.2201,170.3215 261.1993,166.6933 259.9989,163.1205 258.6219,159.612 257.0717,156.1765 255.3522,152.8225 253.4677,149.5585 251.4228,146.3924 249.2227,143.3321 246.8727,140.3854 244.3788,137.5594 241.7471,134.8613 238.9842,132.2977 236.0969,129.875 233.0925,127.5992 229.9784,125.476 226.7623,123.5107 223.4522,121.7081 220.0564,120.0728 216.5833,118.6088 213.0416,117.3197 209.44,116.2087 205.7875,115.2787 202.0931,114.5319 198.3662,113.9701 194.6159,113.5948 190.8515,113.407 187.0825,113.407 183.3181,113.5948 179.5678,113.9701 175.8408,114.5319 172.1465,115.2787 168.494,116.2087 164.8924,117.3197 161.3507,118.6088 157.8776,120.0728 154.4818,121.7081 151.1717,123.5107 147.9556,125.476 144.8415,127.5992 141.837,129.875 138.9498,132.2977 136.1869,134.8613 133.5552,137.5594 131.0613,140.3854 128.7113,143.3321 126.5111,146.3924 124.4663,149.5585 122.5817,152.8225 120.8622,156.1765 119.3121,159.612 117.9351,163.1205 116.7347,166.6933 115.7139,170.3215 114.8752,173.9961 114.2207,177.7078 113.7521,181.4476 113.4704,185.2062 113.3764,188.974 113.4704,192.7419 113.7521,196.5004 114.2207,200.2402 114.8752,203.952 115.7139,207.6266 116.7347,211.2547 117.9351,214.8275 119.3121,218.336 120.8622,221.7715 122.5817,225.1255 124.4663,228.3896 126.5111,231.5557 128.7113,234.6159 131.0613,237.5627 133.5552,240.3887 136.1869,243.0868 138.9498,245.6504 141.837,248.0731 144.8415,250.3489 147.9556,252.4721 151.1717,254.4374 154.4818,256.2399 157.8776,257.8753 161.3507,259.3393 164.8924,260.6284 168.494,261.7393 172.1465,262.6694 175.8408,263.4162 179.5678,263.9779 183.3181,264.3532 187.0825,264.5411 190.8515,264.5411 194.6159,264.3532 198.3662,263.9779 202.0931,263.4162 205.7875,262.6694 209.44,261.7393 213.0416,260.6284 216.5833,259.3393 220.0564,257.8753 223.4522,256.2399 226.7623,254.4374 229.9784,252.4721 233.0925,250.3489 236.0969,248.0731 238.9842,245.6504 241.7471,243.0868 244.3788,240.3887 246.8727,237.5627 249.2227,234.6159 251.4228,231.5557 253.4677,228.3896 255.3522,225.1255 257.0717,221.7715 258.6219,218.336 259.9989,214.8275 261.1993,211.2547 262.2201,207.6266 263.0588,203.952 263.7132,200.2402 264.1819,196.5004 264.4636,192.7419"/>
  </g>
  <g fill="none" stroke-width="2" id="layer8" stroke="#44bf70">
    <polygon points="245.6599,188.974 245.5359,185.2272 245.1646,181.4967 244.5476,177.7989 243.6875,174.15 242.5881,170.5659 241.2543,167.0623 239.6918,163.6545 237.9075,160.3574 235.9092,157.1855 233.7057,154.1525 231.3065,151.2718 228.7221,148.556 225.964,146.017 223.044,143.6657 219.9751,141.5126 216.7705,139.567 213.4444,137.8375 210.0112,136.3316 206.4861,135.0559 202.8843,134.0159 199.2216,133.2163 195.5141,132.6604 191.778,132.3508 188.0296,132.2889 184.2853,132.4748 180.5615,132.9077 176.8744,133.5858 173.2402,134.5061 169.6748,135.6646 166.1937,137.0562 162.8122,138.6748 159.5451,140.5133 156.4066,142.5638 153.4105,144.8172 150.5699,147.2637 147.8972,149.8926 145.4041,152.6923 143.1014,155.6508 140.9994,158.7549 139.1071,161.9912 137.4328,165.3455 135.9838,168.803 134.7665,172.3488 133.7863,175.9673 133.0473,179.6427 132.5528,183.3588 132.3051,187.0996 132.3051,190.8485 132.5528,194.5892 133.0473,198.3054 133.7863,201.9807 134.7665,205.5992 135.9838,209.145 137.4328,212.6026 139.1071,215.9569 140.9994,219.1931 143.1014,222.2973 145.4041,225.2557 147.8972,228.0555 150.5699,230.6844 153.4105,233.1309 156.4066,235.3843 159.5451,237.4347 162.8122,239.2733 166.1937,240.8919 169.6748,242.2835 173.2402,243.442 176.8744,244.3623 180.5615,245.0404 184.2853,245.4733 188.0296,245.6592 191.778,245.5972 195.5141,245.2876 199.2216,244.7318 202.8843,243.9322 206.4861,242.8922 210.0112,241.6165 213.4444,240.1105 216.7705,238.381 219.9751,236.4354 223.044,234.2823 225.964,231.9311 228.7221,229.392 231.3065,226.6762 233.7057,223.7955 235.9092,220.7626 237.9075,217.5907 239.6918,214.2936 241.2543,210.8858 242.5881,207.3822 243.6875,203.7981 244.5476,200.1492 245.1646,196.4514 245.5359,192.7209"/>
  </g>
  <g fill="none" stroke-width="2" id="layer9" stroke="#7ad151">
    <polygon points="226.7623,188.974 226.5744,185.2108 226.0129,181.485 225.0831,177.8337 223.7944,174.293 222.1596,170.8983 220.1949,167.6832 217.9198,164.6797 215.357,161.9176 212.5319,159.4245 209.4727,157.225 206.2096,155.3411 202.7751,153.7914 199.2035,152.5914 195.5301,151.7529 191.7914,151.2844 188.0247,151.1905 184.2674,151.4721 180.5567,152.1264 176.9297,153.1469 173.4223,154.5234 170.0693,156.2424 166.9042,158.2866 163.9584,160.6358 161.2611,163.2667 158.8391,166.1531 156.7166,169.2662 154.9146,172.5753 153.451,176.0473 152.3404,179.6478 151.5938,183.3409 151.2187,187.0901 151.2187,190.858 151.5938,194.6071 152.3404,198.3003 153.451,201.9008 154.9146,205.3728 156.7166,208.6818 158.8391,211.795 161.2611,214.6813 163.9584,217.3122 166.9042,219.6614 170.0693,221.7057 173.4223,223.4246 176.9297,224.8012 180.5567,225.8217 184.2674,226.476 188.0247,226.7576 191.7914,226.6636 195.5301,226.1951 199.2035,225.3567 202.7751,224.1567 206.2096,222.607 209.4727,220.723 212.5319,218.5236 215.357,216.0304 217.9198,213.2684 220.1949,210.2649 222.1596,207.0498 223.7944,203.655 225.0831,200.1144 226.0129,196.463 226.5744,192.7372"/>
  </g>
  <g fill="none" stroke-width="2" id="layer10" stroke="#bddf26">
    <polygon points="207.8646,188.974 207.5015,185.2873 206.4261,181.7422 204.6798,178.4751 202.3296,175.6114 199.4659,173.2612 196.1988,171.5149 192.6537,170.4395 188.967,170.0764 185.2802,170.4395 181.7352,171.5149 178.468,173.2612 175.6043,175.6114 173.2542,178.4751 171.5078,181.7422 170.4325,185.2873 170.0693,188.974 170.4325,192.6608 171.5078,196.2058 173.2542,199.473 175.6043,202.3367 178.468,204.6868 181.7352,206.4332 185.2802,207.5086 188.967,207.8717 192.6537,207.5086 196.1988,206.4332 199.4659,204.6868 202.3296,202.3367 204.6798,199.473 206.4261,196.2058 207.5015,192.6608"/>
  </g>
  <g fill="none" stroke-width="2" id="layer11" stroke="#fde725">
    <polygon points="196.526,188.974 195.6602,185.4612 193.261,182.753 189.8781,181.4701 186.2865,181.9062 183.3089,183.9614 181.6276,187.165 181.6276,190.783 183.3089,193.9866 186.2865,196.0419 189.8781,196.478 193.261,195.195 195.6602,192.4869"/>
  </g>
</svg>
